<svg width="14" height="19" viewBox="0 0 14 19" xmlns="http://www.w3.org/2000/svg">
<path fill-rule="evenodd" clip-rule="evenodd" d="M6.34086 0.151453C6.54538 0.052567 6.77051 0 7.00057 0C7.23064 0 7.45577 0.052567 7.66029 0.151453C7.86452 0.250201 8.04129 0.391693 8.18165 0.562159L13.7726 7.36507C14.1233 7.79175 14.0616 8.4219 13.635 8.77257C13.2083 9.12323 12.5781 9.06161 12.2275 8.63493L8.00003 3.49111L8.00003 18C8.00003 18.5523 7.55231 19 7.00003 19C6.44774 19 6.00003 18.5523 6.00003 18L6.00003 3.49211L1.77254 8.63501C1.42183 9.06165 0.791667 9.12321 0.365023 8.77251C-0.0616212 8.4218 -0.123182 7.79164 0.227522 7.36499L5.81898 0.562792C5.95933 0.392328 6.13662 0.250202 6.34086 0.151453Z" fill="currentColor"/>
</svg>
