<svg width="20" height="30" viewBox="0 0 20 30" fill="none" xmlns="http://www.w3.org/2000/svg">
<path fill-rule="evenodd" clip-rule="evenodd" d="M5.22105 10.2211C5.51579 9.92632 5.99365 9.92632 6.28838 10.2211L10 13.9327L13.7116 10.2211C14.0064 9.92632 14.4842 9.92632 14.7789 10.2211C15.0737 10.5158 15.0737 10.9936 14.7789 11.2884L11.0673 15L14.7789 18.7116C15.0737 19.0064 15.0737 19.4842 14.7789 19.7789C14.4842 20.0737 14.0064 20.0737 13.7116 19.7789L10 16.0673L6.28838 19.7789C5.99365 20.0737 5.51579 20.0737 5.22105 19.7789C4.92632 19.4842 4.92632 19.0064 5.22105 18.7116L8.93267 15L5.22105 11.2884C4.92632 10.9936 4.92632 10.5158 5.22105 10.2211Z" fill="currentColor"/>
</svg>
