<svg width="18" height="18" viewBox="0 0 18 18" fill="none" xmlns="http://www.w3.org/2000/svg">
<path d="M16.4037 1H12.4022C12.244 1 12.0923 1.06283 11.9805 1.17467C11.8686 1.2865 11.8058 1.43819 11.8058 1.59635C11.8058 1.75451 11.8686 1.90619 11.9805 2.01803C12.0923 2.12987 12.244 2.19269 12.4022 2.19269H14.9635L10.7473 6.40887C10.6919 6.46428 10.6479 6.53005 10.618 6.60245C10.588 6.67484 10.5725 6.75243 10.5725 6.83079C10.5725 6.90914 10.588 6.98673 10.618 7.05913C10.6479 7.13152 10.6919 7.19729 10.7473 7.2527C10.8027 7.30811 10.8685 7.35206 10.9409 7.38205C11.0133 7.41203 11.0909 7.42746 11.1692 7.42746C11.2476 7.42746 11.3252 7.41203 11.3976 7.38205C11.4699 7.35206 11.5357 7.30811 11.5911 7.2527L15.8073 3.03653V5.59784C15.8073 5.756 15.8701 5.90768 15.982 6.01952C16.0938 6.13136 16.2455 6.19419 16.4037 6.19419C16.5618 6.19419 16.7135 6.13136 16.8253 6.01952C16.9372 5.90768 17 5.756 17 5.59784V1.59635C17 1.43819 16.9372 1.2865 16.8253 1.17467C16.7135 1.06283 16.5618 1 16.4037 1Z" fill="currentColor"/>
<path d="M16.4037 11.8058C16.2455 11.8058 16.0938 11.8686 15.982 11.9805C15.8701 12.0923 15.8073 12.244 15.8073 12.4022V14.9635L11.5911 10.7473C11.4792 10.6354 11.3275 10.5725 11.1692 10.5725C11.011 10.5725 10.8592 10.6354 10.7473 10.7473C10.6354 10.8592 10.5725 11.011 10.5725 11.1692C10.5725 11.3275 10.6354 11.4792 10.7473 11.5911L14.9635 15.8073H12.4022C12.244 15.8073 12.0923 15.8701 11.9805 15.982C11.8686 16.0938 11.8058 16.2455 11.8058 16.4037C11.8058 16.5618 11.8686 16.7135 11.9805 16.8253C12.0923 16.9372 12.244 17 12.4022 17H16.4037C16.5618 17 16.7135 16.9372 16.8253 16.8253C16.9372 16.7135 17 16.5618 17 16.4037V12.4022C17 12.244 16.9372 12.0923 16.8253 11.9805C16.7135 11.8686 16.5618 11.8058 16.4037 11.8058Z" fill="currentColor"/>
<path d="M3.03653 2.19269H5.59784C5.756 2.19269 5.90768 2.12987 6.01952 2.01803C6.13136 1.90619 6.19419 1.75451 6.19419 1.59635C6.19419 1.43819 6.13136 1.2865 6.01952 1.17467C5.90768 1.06283 5.756 1 5.59784 1H1.59635C1.43819 1 1.2865 1.06283 1.17467 1.17467C1.06283 1.2865 1 1.43819 1 1.59635V5.59784C1 5.756 1.06283 5.90768 1.17467 6.01952C1.2865 6.13136 1.43819 6.19419 1.59635 6.19419C1.75451 6.19419 1.90619 6.13136 2.01803 6.01952C2.12987 5.90768 2.19269 5.756 2.19269 5.59784V3.03653L6.40887 7.2527C6.52077 7.3646 6.67254 7.42746 6.83079 7.42746C6.98904 7.42746 7.1408 7.3646 7.2527 7.2527C7.3646 7.1408 7.42746 6.98904 7.42746 6.83079C7.42746 6.67254 7.3646 6.52077 7.2527 6.40887L3.03653 2.19269Z" fill="currentColor"/>
<path d="M6.40887 10.7473L2.19269 14.9635V12.4022C2.19269 12.244 2.12987 12.0923 2.01803 11.9805C1.90619 11.8686 1.75451 11.8058 1.59635 11.8058C1.43819 11.8058 1.2865 11.8686 1.17467 11.9805C1.06283 12.0923 1 12.244 1 12.4022V16.4037C1 16.5618 1.06283 16.7135 1.17467 16.8253C1.2865 16.9372 1.43819 17 1.59635 17H5.59784C5.756 17 5.90768 16.9372 6.01952 16.8253C6.13136 16.7135 6.19419 16.5618 6.19419 16.4037C6.19419 16.2455 6.13136 16.0938 6.01952 15.982C5.90768 15.8701 5.756 15.8073 5.59784 15.8073H3.03653L7.2527 11.5911C7.30811 11.5357 7.35206 11.4699 7.38205 11.3976C7.41203 11.3252 7.42746 11.2476 7.42746 11.1692C7.42746 11.0909 7.41203 11.0133 7.38205 10.9409C7.35206 10.8685 7.30811 10.8027 7.2527 10.7473C7.19729 10.6919 7.13152 10.6479 7.05913 10.618C6.98673 10.588 6.90914 10.5725 6.83079 10.5725C6.75243 10.5725 6.67484 10.588 6.60245 10.618C6.53005 10.6479 6.46428 10.6919 6.40887 10.7473Z" fill="currentColor"/>
<path d="M16.4037 1H12.4022C12.244 1 12.0923 1.06283 11.9805 1.17467C11.8686 1.2865 11.8058 1.43819 11.8058 1.59635C11.8058 1.75451 11.8686 1.90619 11.9805 2.01803C12.0923 2.12987 12.244 2.19269 12.4022 2.19269H14.9635L10.7473 6.40887C10.6919 6.46428 10.6479 6.53005 10.618 6.60245C10.588 6.67484 10.5725 6.75243 10.5725 6.83079C10.5725 6.90914 10.588 6.98673 10.618 7.05913C10.6479 7.13152 10.6919 7.19729 10.7473 7.2527C10.8027 7.30811 10.8685 7.35206 10.9409 7.38205C11.0133 7.41203 11.0909 7.42746 11.1692 7.42746C11.2476 7.42746 11.3252 7.41203 11.3976 7.38205C11.4699 7.35206 11.5357 7.30811 11.5911 7.2527L15.8073 3.03653V5.59784C15.8073 5.756 15.8701 5.90768 15.982 6.01952C16.0938 6.13136 16.2455 6.19419 16.4037 6.19419C16.5618 6.19419 16.7135 6.13136 16.8253 6.01952C16.9372 5.90768 17 5.756 17 5.59784V1.59635C17 1.43819 16.9372 1.2865 16.8253 1.17467C16.7135 1.06283 16.5618 1 16.4037 1Z" stroke="currentColor"/>
<path d="M16.4037 11.8058C16.2455 11.8058 16.0938 11.8686 15.982 11.9805C15.8701 12.0923 15.8073 12.244 15.8073 12.4022V14.9635L11.5911 10.7473C11.4792 10.6354 11.3275 10.5725 11.1692 10.5725C11.011 10.5725 10.8592 10.6354 10.7473 10.7473C10.6354 10.8592 10.5725 11.011 10.5725 11.1692C10.5725 11.3275 10.6354 11.4792 10.7473 11.5911L14.9635 15.8073H12.4022C12.244 15.8073 12.0923 15.8701 11.9805 15.982C11.8686 16.0938 11.8058 16.2455 11.8058 16.4037C11.8058 16.5618 11.8686 16.7135 11.9805 16.8253C12.0923 16.9372 12.244 17 12.4022 17H16.4037C16.5618 17 16.7135 16.9372 16.8253 16.8253C16.9372 16.7135 17 16.5618 17 16.4037V12.4022C17 12.244 16.9372 12.0923 16.8253 11.9805C16.7135 11.8686 16.5618 11.8058 16.4037 11.8058Z" stroke="currentColor"/>
<path d="M3.03653 2.19269H5.59784C5.756 2.19269 5.90768 2.12987 6.01952 2.01803C6.13136 1.90619 6.19419 1.75451 6.19419 1.59635C6.19419 1.43819 6.13136 1.2865 6.01952 1.17467C5.90768 1.06283 5.756 1 5.59784 1H1.59635C1.43819 1 1.2865 1.06283 1.17467 1.17467C1.06283 1.2865 1 1.43819 1 1.59635V5.59784C1 5.756 1.06283 5.90768 1.17467 6.01952C1.2865 6.13136 1.43819 6.19419 1.59635 6.19419C1.75451 6.19419 1.90619 6.13136 2.01803 6.01952C2.12987 5.90768 2.19269 5.756 2.19269 5.59784V3.03653L6.40887 7.2527C6.52077 7.3646 6.67254 7.42746 6.83079 7.42746C6.98904 7.42746 7.1408 7.3646 7.2527 7.2527C7.3646 7.1408 7.42746 6.98904 7.42746 6.83079C7.42746 6.67254 7.3646 6.52077 7.2527 6.40887L3.03653 2.19269Z" stroke="currentColor"/>
<path d="M6.40887 10.7473L2.19269 14.9635V12.4022C2.19269 12.244 2.12987 12.0923 2.01803 11.9805C1.90619 11.8686 1.75451 11.8058 1.59635 11.8058C1.43819 11.8058 1.2865 11.8686 1.17467 11.9805C1.06283 12.0923 1 12.244 1 12.4022V16.4037C1 16.5618 1.06283 16.7135 1.17467 16.8253C1.2865 16.9372 1.43819 17 1.59635 17H5.59784C5.756 17 5.90768 16.9372 6.01952 16.8253C6.13136 16.7135 6.19419 16.5618 6.19419 16.4037C6.19419 16.2455 6.13136 16.0938 6.01952 15.982C5.90768 15.8701 5.756 15.8073 5.59784 15.8073H3.03653L7.2527 11.5911C7.30811 11.5357 7.35206 11.4699 7.38205 11.3976C7.41203 11.3252 7.42746 11.2476 7.42746 11.1692C7.42746 11.0909 7.41203 11.0133 7.38205 10.9409C7.35206 10.8685 7.30811 10.8027 7.2527 10.7473C7.19729 10.6919 7.13152 10.6479 7.05913 10.618C6.98673 10.588 6.90914 10.5725 6.83079 10.5725C6.75243 10.5725 6.67484 10.588 6.60245 10.618C6.53005 10.6479 6.46428 10.6919 6.40887 10.7473Z" stroke="currentColor"/>
</svg>
