<svg width="64" height="64" viewBox="0 0 64 64" xmlns="http://www.w3.org/2000/svg">
<path d="M39 18H25C21.1503 18 18 21.1503 18 24.9998V39.0002C18 42.8487 21.1503 46 25 46H39C42.8497 46 46 42.8487 46 39.0002V24.9998C46 21.1503 42.8497 18 39 18ZM43.6666 39.0002C43.6666 41.5726 41.5739 43.6666 39 43.6666H25C22.4272 43.6666 20.3334 41.5726 20.3334 39.0002V24.9998C20.3334 22.4267 22.4272 20.3334 25 20.3334H39C41.5739 20.3334 43.6666 22.4267 43.6666 24.9998V39.0002Z" fill="currentColor"/>
<path d="M32 24.9998C28.1332 24.9998 25 28.1333 25 31.9997C25 35.8646 28.1332 39.0002 32 39.0002C35.8657 39.0002 39 35.8646 39 31.9997C39 28.1333 35.8657 24.9998 32 24.9998ZM32 36.6668C29.4229 36.6668 27.3334 34.5774 27.3334 31.9997C27.3334 29.422 29.4229 27.3332 32 27.3332C34.5771 27.3332 36.6666 29.422 36.6666 31.9997C36.6666 34.5774 34.5771 36.6668 32 36.6668Z" fill="currentColor"/>
<path fill-rule="evenodd" clip-rule="evenodd" d="M43.6666 39.0002C43.6666 41.5726 41.5739 43.6666 39 43.6666H25C22.4272 43.6666 20.3334 41.5726 20.3334 39.0002V24.9998C20.3334 22.4267 22.4272 20.3334 25 20.3334H39C41.5739 20.3334 43.6666 22.4267 43.6666 24.9998V39.0002ZM39.5845 26.1664C40.551 26.1664 41.3345 25.3829 41.3345 24.4164C41.3345 23.4499 40.551 22.6664 39.5845 22.6664C38.618 22.6664 37.8345 23.4499 37.8345 24.4164C37.8345 25.3829 38.618 26.1664 39.5845 26.1664ZM25 31.9997C25 28.1333 28.1332 24.9998 32 24.9998C35.8657 24.9998 39 28.1333 39 31.9997C39 35.8646 35.8657 39.0002 32 39.0002C28.1332 39.0002 25 35.8646 25 31.9997Z" fill="currentColor"/>
</svg>
