<svg width="14" height="14" viewBox="0 0 14 14" fill="none" xmlns="http://www.w3.org/2000/svg">
<path fill-rule="evenodd" clip-rule="evenodd" d="M3.94312 3.55511C2.72625 3.55511 1.64706 4.56728 1.64706 5.92753C1.64706 6.57296 1.90149 7.18231 2.33876 7.62384L7 12.3305L11.6612 7.62384C12.0985 7.18231 12.3529 6.57296 12.3529 5.92753C12.3529 4.56728 11.2738 3.55511 10.0569 3.55511C9.46645 3.55511 8.88805 3.79146 8.45253 4.23123L7.60153 5.09052H6.39847L5.54747 4.23123C5.11195 3.79146 4.53355 3.55511 3.94312 3.55511ZM0 5.92753C0 3.80841 1.71419 2 3.94312 2C5.00742 2 6.01597 2.42739 6.75053 3.1691L7 3.421L7.24947 3.1691L7.851 3.70016L7.24947 3.1691C7.98403 2.42739 8.99258 2 10.0569 2C12.2858 2 14 3.80841 14 5.92753C14 6.95296 13.5971 7.94603 12.8643 8.68597L7.60153 14H6.39847L1.13571 8.68597C0.402905 7.94603 0 6.95296 0 5.92753Z" fill="currentColor"/>
<path fill-rule="evenodd" clip-rule="evenodd" d="M3.94312 3.55511C2.72625 3.55511 1.64706 4.56728 1.64706 5.92753C1.64706 6.57296 1.90149 7.18231 2.33876 7.62384L7 12.3305L11.6612 7.62384C12.0985 7.18231 12.3529 6.57296 12.3529 5.92753C12.3529 4.56728 11.2738 3.55511 10.0569 3.55511C9.46645 3.55511 8.88805 3.79146 8.45253 4.23123L7.60153 5.09052H6.39847L5.54747 4.23123C5.11195 3.79146 4.53355 3.55511 3.94312 3.55511ZM0 5.92753C0 3.80841 1.71419 2 3.94312 2C5.00742 2 6.01597 2.42739 6.75053 3.1691L7 3.421L7.24947 3.1691C7.98403 2.42739 8.99258 2 10.0569 2C12.2858 2 14 3.80841 14 5.92753C14 6.95296 13.5971 7.94603 12.8643 8.68597L7.60153 14H6.39847L1.13571 8.68597C0.402905 7.94603 0 6.95296 0 5.92753Z" fill="currentColor"/>
<path d="M1.64706 5.92753C1.64706 4.56728 2.72625 3.55511 3.94312 3.55511C4.53355 3.55511 5.11195 3.79146 5.54747 4.23123L6.39847 5.09052H7.60153L8.45253 4.23123C8.88805 3.79146 9.46645 3.55511 10.0569 3.55511C11.2738 3.55511 12.3529 4.56728 12.3529 5.92753C12.3529 6.57296 12.0985 7.18231 11.6612 7.62384L7 12.3305L2.33876 7.62384C1.90149 7.18231 1.64706 6.57296 1.64706 5.92753Z" fill="currentColor"/>
</svg>
