<svg width="16" height="16" viewBox="0 0 16 16" fill="none" xmlns="http://www.w3.org/2000/svg">
<path d="M8.8 0H7.2V1.6H8.8V0Z" fill="currentColor"/>
<path d="M0 9.2L6.99382e-08 10.8H1.6V9.2H0Z" fill="currentColor"/>
<path d="M14.4 7.62047L15.7071 6.31336C15.8946 6.12583 16 5.87147 16 5.60626V5.1109L15.3234 4.43431L14.4 5.35773V7.6V7.62047Z" fill="currentColor"/>
<path d="M11.4343 9.45477C11.7467 9.76719 12.2533 9.76719 12.5657 9.45477L14 8.02047V8L14.4 7.6V5.35773L11.4343 8.3234C11.1219 8.63582 11.1219 9.14235 11.4343 9.45477Z" fill="currentColor"/>
<path d="M13 1.6C13.7732 1.6 14.4 2.2268 14.4 3V5.35773L15.3234 4.43431L16 5.1109V5V3C16 1.34315 14.6569 0 13 0H8.8V1.6H13Z" fill="currentColor"/>
<path d="M1.6 3C1.6 2.2268 2.2268 1.6 3 1.6H7.2V0H3C1.34315 0 3.49691e-08 1.34315 3.49691e-08 3L0 9.2H1.6V3Z" fill="currentColor"/>
<path d="M8 6.3C8.44183 6.3 8.8 5.94183 8.8 5.5V1.6H7.2V5.5C7.2 5.94183 7.55817 6.3 8 6.3Z" fill="currentColor"/>
<path d="M6.3 10C6.3 9.55817 5.94183 9.2 5.5 9.2H1.6V10.8H5.5C5.94183 10.8 6.3 10.4418 6.3 10Z" fill="currentColor"/>
<path d="M3 14.4C2.2268 14.4 1.6 13.7732 1.6 13V10.8H6.99382e-08L3.49691e-08 13C3.49691e-08 14.6569 1.34315 16 3 16H13C14.6569 16 16 14.6569 16 13V10.8C16 10.3582 15.6418 10 15.2 10C14.7582 10 14.4 10.3582 14.4 10.8V13C14.4 13.7732 13.7732 14.4 13 14.4H3Z" fill="currentColor"/>
</svg>
