<svg width="26" height="24" viewBox="0 0 26 24" xmlns="http://www.w3.org/2000/svg">
<path id="Vector" d="M25.4598 18.3646L16.2752 1.82631C14.7996 -0.607154 11.2024 -0.610387 9.72476 1.82631L0.540662 18.3646C-0.967846 20.8512 0.858502 24 3.81514 24H22.1846C25.1387 24 26.9683 20.8537 25.4598 18.3646ZM13 21.0154C12.1602 21.0154 11.4766 20.3458 11.4766 19.5231C11.4766 18.7005 12.1602 18.0309 13 18.0309C13.8398 18.0309 14.5234 18.7005 14.5234 19.5231C14.5234 20.3458 13.8398 21.0154 13 21.0154ZM14.5234 15.0463C14.5234 15.8689 13.8398 16.5386 13 16.5386C12.1602 16.5386 11.4766 15.8689 11.4766 15.0463V7.58488C11.4766 6.76224 12.1602 6.0926 13 6.0926C13.8398 6.0926 14.5234 6.76224 14.5234 7.58488V15.0463Z" fill="currentColor"/>
</svg>
