<svg width="32" height="32" viewBox="0 0 32 32" fill="none" xmlns="http://www.w3.org/2000/svg">
<path d="M12.5029 13.4552L12.3821 12.6644L12.5029 13.4552C13.0963 13.3646 13.6055 12.9841 13.8606 12.4407L15.819 8.2685C15.8909 8.11515 16.1091 8.11514 16.181 8.2685L18.1394 12.4407C18.3945 12.9841 18.9037 13.3646 19.4971 13.4552L23.9552 14.1359C24.1161 14.1605 24.1818 14.3568 24.0681 14.4733L20.7799 17.8434C20.3809 18.2524 20.1997 18.8264 20.2917 19.3903L21.0595 24.0963C21.0864 24.261 20.9115 24.3843 20.7653 24.3035L16.8708 22.1506C16.3289 21.851 15.6711 21.851 15.1292 22.1506L11.2347 24.3035C11.0886 24.3843 10.9136 24.261 10.9405 24.0963L11.7083 19.3903C11.8003 18.8264 11.6191 18.2524 11.2201 17.8434L7.93187 14.4733C7.81818 14.3568 7.8839 14.1605 8.04483 14.1359L12.5029 13.4552Z" stroke="currentColor" stroke-width="1.6" stroke-linecap="round" stroke-linejoin="round"/>
</svg>
