<svg width="22" height="29" viewBox="0 0 22 29" xmlns="http://www.w3.org/2000/svg">
<path fill-rule="evenodd" clip-rule="evenodd" d="M11 0C9.48122 0 8.25 1.29837 8.25 2.9H2.0625C0.923409 2.9 0 3.87378 0 5.075V26.825C0 28.0262 0.923409 29 2.0625 29H19.9375C21.0766 29 22 28.0262 22 26.825V5.075C22 3.87378 21.0766 2.9 19.9375 2.9H13.75C13.75 1.29837 12.5188 0 11 0ZM5.5 8.7V7.975C5.5 6.77378 6.42341 5.8 7.5625 5.8H14.4375C15.5766 5.8 16.5 6.77378 16.5 7.975V8.7H5.5ZM16.0973 13.4747C16.6342 14.041 16.6342 14.9591 16.0973 15.5253L10.5973 21.3253C10.0603 21.8915 9.1897 21.8915 8.65272 21.3253L5.90272 18.4253C5.36576 17.8591 5.36576 16.9409 5.90272 16.3747C6.4397 15.8085 7.3103 15.8085 7.84728 16.3747L9.625 18.2494L14.1527 13.4747C14.6897 12.9084 15.5603 12.9084 16.0973 13.4747Z" fill="currentColor"/>
</svg>
