<svg width="14" height="14" viewBox="0 0 14 14" xmlns="http://www.w3.org/2000/svg">
<path fill-rule="evenodd" clip-rule="evenodd" d="M6 0.00585938C9.31371 0.00585938 12 2.69215 12 6.00586C12 7.30169 11.5892 8.50158 10.8907 9.48239L13.7071 12.2988C14.0976 12.6893 14.0976 13.3224 13.7071 13.713C13.3166 14.1035 12.6834 14.1035 12.2929 13.713L9.47653 10.8966C8.49572 11.5951 7.29583 12.0059 6 12.0059C2.68629 12.0059 0 9.31957 0 6.00586C0 2.69215 2.68629 0.00585938 6 0.00585938ZM10 6.00586C10 3.79672 8.20914 2.00586 6 2.00586C3.79086 2.00586 2 3.79672 2 6.00586C2 8.215 3.79086 10.0059 6 10.0059C6.74181 10.0059 7.43645 9.80393 8.03197 9.45204C8.61441 9.10788 9.10202 8.62027 9.44618 8.03783C9.79807 7.44231 10 6.74767 10 6.00586Z" fill="currentColor"/>
</svg>
