<svg width="30" height="30" viewBox="0 0 30 30" xmlns="http://www.w3.org/2000/svg">
<path d="M10.4766 24.9498C10.4854 25.3014 10.4941 25.6318 10.5035 25.8645C10.5621 27.1307 11.6473 28.1555 12.9129 28.1555H13.0078C13.1092 29.1867 13.9752 30 15 30C16.0248 30 16.8926 29.1867 16.9922 28.1555H17.0854C18.351 28.1555 19.4379 27.1307 19.4947 25.8645C19.5041 25.6301 19.5129 25.299 19.5217 24.9498H10.4766Z" fill="currentColor"/>
<path d="M24.3498 14.035C24.1107 9.14531 19.6529 5.20605 14.9924 5.21074C10.3213 5.21426 5.88926 9.13652 5.6502 14.035C5.55352 16.7578 6.92051 19.1988 9.00586 20.8207C9.39502 21.1207 9.72045 21.4953 9.96312 21.9226C10.2058 22.3499 10.3608 22.8213 10.4191 23.3092H19.5809C19.6435 22.8168 19.803 22.3416 20.0501 21.9111C20.2971 21.4806 20.627 21.1033 21.0205 20.8008C23.0912 19.1777 24.4465 16.7484 24.3498 14.035ZM20.8852 12.7459C20.7515 12.8053 20.6075 12.8378 20.4614 12.8415C20.3152 12.8452 20.1697 12.8201 20.0333 12.7676C19.8968 12.7151 19.772 12.6362 19.6661 12.5355C19.5601 12.4347 19.475 12.3141 19.4156 12.1805C18.9404 11.1094 17.9883 10.2164 16.8697 9.7916C16.733 9.7397 16.6079 9.66138 16.5015 9.56112C16.395 9.46086 16.3094 9.34062 16.2494 9.20726C16.1895 9.07391 16.1564 8.93005 16.152 8.78389C16.1477 8.63774 16.1721 8.49216 16.224 8.35547C16.2759 8.21877 16.3542 8.09364 16.4545 7.98721C16.5548 7.88078 16.675 7.79514 16.8084 7.73518C16.9417 7.67523 17.0856 7.64212 17.2317 7.63776C17.3779 7.6334 17.5235 7.65787 17.6602 7.70977C19.3462 8.34989 20.7094 9.63281 21.4506 11.277C21.5701 11.5467 21.5777 11.8528 21.4717 12.1281C21.3657 12.4035 21.1547 12.6254 20.8852 12.7453V12.7459Z" fill="currentColor"/>
<path d="M15 3.89355C14.7047 3.89355 14.4216 3.77626 14.2128 3.56748C14.004 3.3587 13.8867 3.07553 13.8867 2.78027V1.11328C13.8867 0.818021 14.004 0.534853 14.2128 0.326073C14.4216 0.117292 14.7047 0 15 0C15.2953 0 15.5784 0.117292 15.7872 0.326073C15.996 0.534853 16.1133 0.818021 16.1133 1.11328V2.78027C16.1133 3.07553 15.996 3.3587 15.7872 3.56748C15.5784 3.77626 15.2953 3.89355 15 3.89355Z" fill="currentColor"/>
<path d="M2.78027 15.423H1.11328C0.818021 15.423 0.534853 15.3058 0.326073 15.097C0.117292 14.8882 0 14.605 0 14.3098C0 14.0145 0.117292 13.7313 0.326073 13.5226C0.534853 13.3138 0.818021 13.1965 1.11328 13.1965H2.78027C3.07553 13.1965 3.3587 13.3138 3.56748 13.5226C3.77626 13.7313 3.89355 14.0145 3.89355 14.3098C3.89355 14.605 3.77626 14.8882 3.56748 15.097C3.3587 15.3058 3.07553 15.423 2.78027 15.423Z" fill="currentColor"/>
<path d="M28.8867 15.423H27.2197C26.9245 15.423 26.6413 15.3058 26.4325 15.097C26.2237 14.8882 26.1064 14.605 26.1064 14.3098C26.1064 14.0145 26.2237 13.7313 26.4325 13.5226C26.6413 13.3138 26.9245 13.1965 27.2197 13.1965H28.8867C29.182 13.1965 29.4651 13.3138 29.6739 13.5226C29.8827 13.7313 30 14.0145 30 14.3098C30 14.605 29.8827 14.8882 29.6739 15.097C29.4651 15.3058 29.182 15.423 28.8867 15.423Z" fill="currentColor"/>
<path d="M6.35918 6.78223C6.21298 6.78234 6.0682 6.75357 5.93316 6.69756C5.79811 6.64155 5.67547 6.55941 5.57227 6.45586L4.39453 5.27695C4.2908 5.17365 4.20846 5.05091 4.15223 4.91575C4.096 4.78059 4.06698 4.63566 4.06683 4.48927C4.06667 4.34288 4.0954 4.19789 4.15135 4.06261C4.2073 3.92734 4.28938 3.80442 4.3929 3.70091C4.49641 3.59739 4.61933 3.51531 4.75461 3.45936C4.88988 3.4034 5.03487 3.37468 5.18126 3.37483C5.32765 3.37499 5.47258 3.40401 5.60774 3.46024C5.7429 3.51647 5.86565 3.59881 5.96895 3.70254L7.14844 4.88144C7.30425 5.03714 7.41037 5.23556 7.45338 5.45159C7.49638 5.66763 7.47434 5.89156 7.39003 6.09506C7.30572 6.29856 7.16293 6.47247 6.97975 6.59479C6.79656 6.71711 6.58121 6.78234 6.36094 6.78223H6.35918Z" fill="currentColor"/>
<path d="M24.8191 25.2428C24.6729 25.243 24.5281 25.2143 24.393 25.1583C24.258 25.1023 24.1354 25.0201 24.0322 24.9164L22.8516 23.7375C22.6435 23.5286 22.5268 23.2456 22.5271 22.9508C22.5274 22.6559 22.6447 22.3732 22.8532 22.1647C23.0617 21.9562 23.3444 21.8389 23.6392 21.8386C23.9341 21.8383 24.217 21.955 24.426 22.1631L25.6055 23.342C25.7613 23.4977 25.8674 23.6961 25.9104 23.9121C25.9534 24.1282 25.9314 24.3521 25.8471 24.5556C25.7627 24.7591 25.62 24.933 25.4368 25.0553C25.2536 25.1777 25.0382 25.2429 24.818 25.2428H24.8191Z" fill="currentColor"/>
<path d="M23.6408 6.78223C23.4204 6.78269 23.2048 6.71771 23.0213 6.59552C22.8379 6.47334 22.6948 6.29944 22.6103 6.09587C22.5258 5.8923 22.5036 5.66822 22.5465 5.45203C22.5895 5.23583 22.6956 5.03725 22.8516 4.88144L24.0305 3.70254C24.2392 3.49368 24.5224 3.37632 24.8178 3.37626C25.1131 3.37621 25.3963 3.49347 25.6052 3.70225C25.814 3.91103 25.9314 4.19422 25.9315 4.48954C25.9315 4.78485 25.8142 5.0681 25.6055 5.27695L24.4277 6.45586C24.3245 6.55941 24.2019 6.64155 24.0668 6.69756C23.9318 6.75357 23.787 6.78234 23.6408 6.78223Z" fill="currentColor"/>
<path d="M5.18086 25.2428C4.96069 25.2427 4.7455 25.1773 4.56249 25.0548C4.37948 24.9324 4.23688 24.7585 4.15272 24.5551C4.06855 24.3516 4.04661 24.1278 4.08965 23.9119C4.13269 23.6959 4.23879 23.4976 4.39453 23.342L5.57227 22.1631C5.78105 21.9541 6.06431 21.8366 6.35973 21.8364C6.65515 21.8362 6.93855 21.9534 7.14756 22.1622C7.35657 22.371 7.47409 22.6542 7.47425 22.9497C7.47442 23.2451 7.35722 23.5285 7.14844 23.7375L5.96953 24.9164C5.86612 25.0202 5.74319 25.1024 5.60783 25.1584C5.47247 25.2145 5.32735 25.2431 5.18086 25.2428Z" fill="currentColor"/>
</svg>
