<svg width="64" height="64" viewBox="0 0 64 64" xmlns="http://www.w3.org/2000/svg">
<path fill-rule="evenodd" clip-rule="evenodd" d="M31.9993 16C36.2595 16.0017 40.2623 17.6521 43.2713 20.647C46.3221 23.6838 48.0012 27.6675 48 31.864C47.998 36.0903 46.3248 40.071 43.288 43.0728C40.2587 46.0671 36.2494 47.7163 31.9995 47.7163H31.9932C29.7375 47.7154 27.4991 47.2346 25.4519 46.318C25.0279 46.1281 24.5551 46.0658 24.1022 46.1688L19.1182 47.3013C17.6883 47.6263 16.4065 46.353 16.7218 44.9209L17.7886 40.0769C17.892 39.6073 17.8184 39.1183 17.6083 38.6859C16.5534 36.515 16.0004 34.1781 16 31.8596V31.8518C16.0039 27.6282 17.6764 23.6423 20.7106 20.6431C23.7394 17.6489 27.7486 16 31.9993 16ZM26.9444 24.8665H27.6457C27.9065 24.8772 28.1948 24.8977 28.469 25.5046C28.6581 25.9232 28.9743 26.7066 29.2241 27.3256C29.4044 27.7722 29.5501 28.1333 29.5885 28.2097C29.6799 28.3918 29.741 28.6047 29.619 28.8479C29.5939 28.8979 29.5717 28.9441 29.5508 28.9878C29.4699 29.1562 29.4072 29.2867 29.262 29.4558C29.079 29.6685 28.8568 29.8916 28.6924 30.0547C28.5089 30.2366 28.3182 30.4338 28.5316 30.7983C28.7452 31.1631 29.5003 32.395 30.5885 33.3611C31.7639 34.4046 32.7757 34.8476 33.2857 35.0709C33.3823 35.1132 33.461 35.1476 33.5193 35.1768C33.8854 35.3591 34.0989 35.3286 34.3123 35.0852C34.5259 34.842 35.2446 33.9993 35.4887 33.635C35.7328 33.27 35.9767 33.3308 36.3123 33.4521C36.6316 33.5681 38.2717 34.3857 38.7449 34.6216C38.7689 34.6336 38.7899 34.644 38.8076 34.6528C38.8791 34.6885 38.946 34.7206 39.0081 34.7504C39.2631 34.8729 39.4355 34.9557 39.5092 35.0779C39.6006 35.2302 39.6006 35.9597 39.2956 36.8105C38.9906 37.6614 37.4963 38.4822 36.8252 38.5427C36.7607 38.5486 36.6966 38.5561 36.6306 38.5638C36.0106 38.6365 35.2278 38.7282 32.4335 37.6311C28.9952 36.281 26.7283 32.9348 26.2603 32.2441C26.222 32.1875 26.1958 32.1488 26.1819 32.1304L26.1777 32.1247C25.9798 31.8614 24.6876 30.1413 24.6876 28.3616C24.6876 26.6834 25.5159 25.8036 25.8971 25.3988C25.9231 25.3711 25.9471 25.3456 25.9686 25.3223C26.3039 24.9578 26.7002 24.8665 26.9444 24.8665Z" fill="currentColor"/>
</svg>
