<svg width="64" height="64" viewBox="0 0 64 64" xmlns="http://www.w3.org/2000/svg">
<path d="M48.7497 25.1365L48.7481 25.1208C48.7193 24.8445 48.4327 22.3868 47.2493 21.1368C45.8815 19.6665 44.3308 19.4879 43.5851 19.4023C43.5233 19.3952 43.4668 19.3887 43.4162 19.3818L43.3568 19.3756C38.862 19.0456 32.0738 19.0005 32.0058 19.0003L31.9999 19L31.9939 19.0003C31.9259 19.0005 25.1378 19.0456 20.6025 19.3756L20.5425 19.3818C20.4943 19.3884 20.4411 19.3944 20.3833 19.4012C19.6461 19.4871 18.112 19.666 16.7403 21.1895C15.6132 22.4261 15.2874 24.8311 15.254 25.1014L15.2501 25.1365C15.2399 25.2515 15 27.9885 15 30.7364V33.305C15 36.0528 15.2399 38.7899 15.2501 38.9052L15.2519 38.9224C15.2807 39.1943 15.567 41.6069 16.745 42.8574C18.0311 44.2785 19.6572 44.4665 20.5319 44.5676C20.6702 44.5836 20.7892 44.5972 20.8704 44.6116L20.949 44.6226C23.5443 44.8719 31.6813 44.9948 32.0263 44.9997L32.0367 45L32.0471 44.9997C32.115 44.9995 38.903 44.9544 43.3978 44.6244L43.4572 44.6182C43.514 44.6106 43.5778 44.6038 43.6479 44.5964C44.3809 44.5178 45.9067 44.3547 47.2594 42.8519C48.3865 41.615 48.7126 39.21 48.7458 38.94L48.7497 38.9049C48.7598 38.7897 49 36.0528 49 33.305V30.7364C48.9997 27.9885 48.7598 25.2517 48.7497 25.1365ZM47.0073 33.305C47.0073 35.8483 46.7873 38.4675 46.7666 38.7079C46.682 39.3703 46.3383 40.8919 45.7892 41.4945C44.9425 42.435 44.0727 42.5282 43.4377 42.5961C43.361 42.6042 43.2899 42.612 43.2256 42.6201C38.8781 42.9376 32.3462 42.9863 32.0453 42.9881C31.7078 42.9831 23.6898 42.8593 21.1737 42.6233C21.0447 42.6021 20.9054 42.5858 20.7586 42.5691C20.0139 42.4829 18.9945 42.3651 18.2106 41.4945L18.1921 41.4746C17.6526 40.9071 17.3188 39.4842 17.2339 38.7158C17.2181 38.534 16.9924 35.8839 16.9924 33.305V30.7364C16.9924 28.196 17.2119 25.5796 17.2332 25.3342C17.3341 24.554 17.6842 23.1246 18.2106 22.5469C19.0832 21.5778 20.0033 21.4705 20.6118 21.3995C20.6167 21.3989 20.6215 21.3984 20.6263 21.3978C20.6789 21.3916 20.7283 21.3859 20.7742 21.3799C25.1409 21.064 31.6326 21.0144 31.9909 21.0117C31.9945 21.0117 31.9975 21.0116 31.9999 21.0116C32.2359 21.0132 38.8124 21.0609 43.1841 21.3799C43.2368 21.3865 43.2943 21.3932 43.356 21.4004L43.3594 21.4008C43.9853 21.4728 44.9314 21.5818 45.7996 22.5167L45.8076 22.5254C46.3471 23.0929 46.681 24.5407 46.7658 25.3245C46.7809 25.4961 47.0073 28.152 47.0073 30.7364V33.305Z" fill="currentColor"/>
<path fill-rule="evenodd" clip-rule="evenodd" d="M47.0073 33.305C47.0073 35.8483 46.7873 38.4675 46.7666 38.7079C46.682 39.3703 46.3383 40.8919 45.7892 41.4945C44.9425 42.435 44.0727 42.5282 43.4377 42.5961C43.361 42.6042 43.2899 42.612 43.2256 42.6201C38.8781 42.9376 32.3462 42.9863 32.0453 42.9881C31.7078 42.9831 23.6898 42.8593 21.1737 42.6233C21.0447 42.6021 20.9054 42.5858 20.7586 42.5691C20.0139 42.4829 18.9945 42.3651 18.2106 41.4945L18.1921 41.4746C17.6526 40.9071 17.3188 39.4842 17.2339 38.7158C17.2181 38.534 16.9924 35.8839 16.9924 33.305V30.7364C16.9924 28.196 17.2119 25.5796 17.2332 25.3342C17.3341 24.554 17.6842 23.1246 18.2106 22.5469C19.0832 21.5778 20.0033 21.4705 20.6118 21.3995L20.6263 21.3978C20.6789 21.3916 20.7283 21.3859 20.7742 21.3799C25.1409 21.064 31.6326 21.0144 31.9909 21.0117L31.9999 21.0116C32.2359 21.0132 38.8124 21.0609 43.1841 21.3799C43.2368 21.3865 43.2943 21.3932 43.356 21.4004L43.3594 21.4008C43.9853 21.4728 44.9314 21.5818 45.7996 22.5167L45.8076 22.5254C46.3471 23.0929 46.681 24.5407 46.7658 25.3245C46.7809 25.4961 47.0073 28.152 47.0073 30.7364V33.305ZM29.7218 26.3148L37.2332 30.4642C37.6778 30.7099 37.9528 31.18 37.951 31.6915C37.9489 32.203 37.6706 32.671 37.2247 32.9132L29.713 36.9912C29.5068 37.1033 29.2827 37.1591 29.0591 37.1591C28.815 37.1591 28.5714 37.0926 28.3517 36.9601C27.931 36.7063 27.6799 36.2592 27.6799 35.7645V27.5368C27.6799 27.0397 27.9325 26.5918 28.3561 26.3383C28.7795 26.0851 29.2899 26.0762 29.7218 26.3148Z" fill="currentColor"/>
</svg>
