<svg width="34" height="42" viewBox="0 0 34 42" fill="none" xmlns="http://www.w3.org/2000/svg">
<path d="M34 36.575V5.425C34 2.45 31.4681 0 28.3936 0H13.9255C12.4787 0 11.0319 0.7 10.1277 1.575L1.80851 9.275C0.723404 10.15 0 11.725 0 13.3V36.575C0 39.55 2.53191 42 5.60638 42H28.3936C31.4681 42 34 39.55 34 36.575ZM3.61702 13.3C3.61702 12.6 3.97872 12.075 4.34043 11.725L12.6596 4.025C13.0213 3.675 13.5638 3.5 14.1064 3.5H14.2872V10.15C14.2872 11.9 12.8404 13.475 10.8511 13.475H3.61702V13.3ZM25.6809 34.3H8.5C7.41489 34.3 6.69149 33.425 6.69149 32.55C6.69149 31.5 7.41489 30.8 8.5 30.8H25.6809C26.766 30.8 27.4894 31.5 27.4894 32.55C27.4894 33.6 26.5851 34.3 25.6809 34.3ZM25.6809 25.9H8.5C7.41489 25.9 6.69149 25.2 6.69149 24.15C6.69149 23.275 7.41489 22.4 8.5 22.4H25.6809C26.766 22.4 27.4894 23.275 27.4894 24.15C27.4894 25.2 26.5851 25.9 25.6809 25.9Z" fill="white"/>
</svg>
