<svg width="42" height="40" viewBox="0 0 42 40" fill="none" xmlns="http://www.w3.org/2000/svg">
<path id="Vector" d="M39.0957 15.9102C38.5566 15.5506 38.0696 15.1193 37.6486 14.6282C37.6799 13.9444 37.8182 13.2697 38.0587 12.6284C38.5108 11.1082 39.0738 9.21623 37.9887 7.73579C36.8959 6.24358 34.8994 6.19349 33.2954 6.15277C32.6207 6.17952 31.9457 6.10746 31.2921 5.93883C30.9327 5.37887 30.6583 4.76944 30.4778 4.13003C29.9426 2.61599 29.2759 0.731564 27.4904 0.155184C25.7579 -0.404155 24.2031 0.658541 22.8322 1.59305C22.2812 2.03003 21.6627 2.37543 21.0005 2.61592C20.338 2.3757 19.7191 2.03023 19.1681 1.59305C17.7971 0.65772 16.2419 -0.401623 14.5098 0.155184C12.7248 0.731564 12.0583 2.61503 11.5225 4.12941C11.3423 4.76561 11.0709 5.37278 10.7167 5.93226C10.0611 6.10602 9.38272 6.18014 8.70472 6.15215C7.10085 6.1928 5.10435 6.24297 4.01147 7.73511C2.92645 9.21637 3.48938 11.1083 3.94147 12.6287C4.17916 13.2666 4.31874 13.9365 4.35546 14.6158C3.93631 15.1138 3.44757 15.5498 2.90412 15.9102C1.61 16.8906 0 18.1111 0 19.9998C0 21.8884 1.61 23.109 2.9044 24.0894C3.4435 24.449 3.93045 24.8803 4.35147 25.3714C4.32019 26.0551 4.18185 26.7298 3.94133 27.3712C3.48932 28.8914 2.92631 30.7835 4.01133 32.2638C5.10421 33.756 7.10071 33.8061 8.70465 33.8469C9.37941 33.8201 10.0544 33.8922 10.708 34.0608C11.0673 34.6208 11.3417 35.2303 11.5223 35.8696C12.0581 37.3839 12.7246 39.2681 14.51 39.8446C14.8263 39.9476 15.1571 40.0001 15.49 40C16.8338 40 18.0608 39.1622 19.1683 38.4068C19.7192 37.9697 20.3377 37.6242 21 37.3836C21.6625 37.6238 22.2813 37.9693 22.8325 38.4065C24.2034 39.3418 25.7583 40.4004 27.4908 39.8444C29.2757 39.268 29.9422 37.3845 30.478 35.8701C30.6583 35.2339 30.9296 34.6268 31.2838 34.0673C31.9395 33.8935 32.6178 33.8194 33.2958 33.8474C34.8997 33.8068 36.8962 33.7566 37.9891 32.2645C39.0741 30.7833 38.5112 28.8912 38.0591 27.3709C37.8214 26.7329 37.6818 26.0631 37.6451 25.3838C38.0642 24.8857 38.553 24.4498 39.0964 24.0893C40.39 23.109 42 21.8884 42 19.9998C42.0001 18.1111 40.3901 16.8906 39.0957 15.9102ZM28.7999 16.8829L20.0498 25.5748C19.3667 26.2537 18.2589 26.2539 17.5755 25.5752C17.5754 25.5751 17.5753 25.575 17.5751 25.5748L13.2001 21.2288C12.5081 20.5586 12.494 19.458 13.1687 18.7706C13.8434 18.0831 14.9513 18.0692 15.6434 18.7394C15.654 18.7496 15.6645 18.76 15.6748 18.7706L18.8125 21.8875L26.3252 14.4246C26.9999 13.7371 28.1078 13.7232 28.7999 14.3935C29.4919 15.0637 29.5059 16.1643 28.8312 16.8517C28.8209 16.8623 28.8104 16.8727 28.7999 16.8829Z" fill="white"/>
</svg>
