<svg width="38" height="38" viewBox="0 0 38 38" fill="none" xmlns="http://www.w3.org/2000/svg">
<g id="Vector">
<path d="M0.863664 17.2727H14.7257C14.9787 17.2727 15.2182 17.1622 15.3835 16.9691C15.8693 16.3981 16.404 15.8642 16.9691 15.3835C17.1614 15.2191 17.2727 14.9787 17.2727 14.7257V0.863664C17.2727 0.386289 16.8864 0 16.4091 0H3.45457C1.55017 0 0 1.54928 0 3.45457V16.4091C0 16.8864 0.386289 17.2727 0.863664 17.2727ZM5.18182 7.77273H7.77273V5.18182C7.77273 4.70445 8.15902 4.31816 8.6364 4.31816C9.11377 4.31816 9.49998 4.70445 9.49998 5.18182V7.77273H12.0909C12.5683 7.77273 12.9546 8.15902 12.9546 8.6364C12.9546 9.11377 12.5683 9.50006 12.0909 9.50006H9.49998V12.091C9.49998 12.5683 9.11369 12.9546 8.63632 12.9546C8.15894 12.9546 7.77273 12.5683 7.77273 12.0909V9.49998H5.18182C4.70445 9.49998 4.31816 9.11369 4.31816 8.63632C4.31816 8.15894 4.70445 7.77273 5.18182 7.77273Z" fill="white"/>
<path d="M19.3964 13.2666C19.6444 13.4251 19.9547 13.448 20.2195 13.3273C25.0471 11.1387 30.8531 11.9847 34.849 15.3843C35.0093 15.5201 35.2084 15.5902 35.4091 15.5902C35.5322 15.5902 35.6554 15.564 35.7717 15.5109C36.0771 15.3692 36.2728 15.0631 36.2728 14.7265V3.45457C36.2728 1.54928 34.7226 0 32.8182 0H19.8636C19.3862 0 19 0.386289 19 0.863664V12.5405C19 12.8339 19.1485 13.1072 19.3964 13.2666ZM24.1819 7.77273H31.0909C31.5683 7.77273 31.9546 8.15902 31.9546 8.6364C31.9546 9.11377 31.5683 9.50006 31.0909 9.50006H24.1819C23.7045 9.50006 23.3182 9.11377 23.3182 8.6364C23.3182 8.15902 23.7045 7.77273 24.1819 7.77273Z" fill="white"/>
<path d="M12.0909 25.9091C12.0909 23.9457 12.5058 22.0321 13.3256 20.2195C13.4471 19.9522 13.4251 19.6419 13.2649 19.3956C13.1064 19.1493 12.8331 19 12.5396 19H0.863664C0.386289 19 0 19.3862 0 19.8636V32.8182C0 34.7235 1.55017 36.2728 3.45457 36.2728H14.7257C15.0631 36.2728 15.3684 36.0771 15.5101 35.7717C15.6501 35.4656 15.6012 35.1063 15.3835 34.8499C13.2599 32.3518 12.0909 29.1773 12.0909 25.9091ZM11.8379 30.8379C11.6692 31.0066 11.4482 31.0909 11.2272 31.0909C11.0063 31.0909 10.7853 31.0066 10.6166 30.8379L8.63632 28.8576L6.65605 30.8379C6.4874 31.0066 6.26636 31.0909 6.0454 31.0909C5.82445 31.0909 5.60349 31.0066 5.43476 30.8379C5.09737 30.5005 5.09737 29.954 5.43476 29.6167L7.41503 27.6364L5.43476 25.6562C5.09737 25.3188 5.09737 24.7723 5.43476 24.435C5.77214 24.0976 6.31867 24.0976 6.65597 24.435L8.63624 26.4152L10.6165 24.435C10.9539 24.0976 11.5004 24.0976 11.8377 24.435C12.1751 24.7723 12.1751 25.3189 11.8377 25.6562L9.85744 27.6364L11.8377 29.6167C12.1753 29.954 12.1753 30.5005 11.8379 30.8379Z" fill="white"/>
<path d="M25.9091 13.8182C19.2429 13.8182 13.8182 19.2421 13.8182 25.9091C13.8182 32.5761 19.2429 38 25.9091 38C32.5753 38 38 32.5762 38 25.9091C38 19.242 32.5753 13.8182 25.9091 13.8182ZM30.2273 29.3637H21.591C21.1136 29.3637 20.7273 28.9774 20.7273 28.5C20.7273 28.0226 21.1136 27.6364 21.591 27.6364H30.2273C30.7047 27.6364 31.091 28.0226 31.091 28.5C31.0909 28.9774 30.7046 29.3637 30.2273 29.3637ZM30.2273 24.1819H21.591C21.1136 24.1819 20.7273 23.7956 20.7273 23.3182C20.7273 22.8408 21.1136 22.4545 21.591 22.4545H30.2273C30.7047 22.4545 31.091 22.8408 31.091 23.3182C31.0909 23.7956 30.7046 24.1819 30.2273 24.1819Z" fill="white"/>
</g>
</svg>
