<svg width="40" height="48" viewBox="0 0 40 48" fill="none" xmlns="http://www.w3.org/2000/svg">
<path d="M39.9969 24C40.0472 19.4062 39.4374 12.4584 38.9403 9.96844C38.1524 5.88094 34.4372 1.92937 30.3826 1.02656C27.9208 0.511875 24.5693 0.0084375 20 0C15.4307 0.0075 12.0792 0.512812 9.61736 1.03125C5.56278 1.93406 1.84764 5.88656 1.05966 9.97312C0.564495 12.4594 -0.0491001 19.4062 0.00312083 24C-0.047235 28.5938 0.56263 35.5416 1.05966 38.0325C1.84764 42.12 5.56278 46.0716 9.61736 46.9744C12.0792 47.4881 15.4307 47.9925 20 48C24.5693 47.9916 27.9208 47.4872 30.3826 46.9734C34.4372 46.0706 38.1524 42.1181 38.9403 38.0316C39.4355 35.5416 40.0491 28.5938 39.9969 24ZM8.59906 10.9613C8.62161 10.3757 8.70347 9.7939 8.84337 9.225C9.02335 8.53594 9.70129 7.79344 10.3764 7.5375C10.7877 7.455 12.2182 6.58125 20 6.46875C27.7818 6.58125 29.2123 7.455 29.6236 7.53656C30.2987 7.79344 30.9776 8.53594 31.1566 9.22406C31.2965 9.79296 31.3784 10.3747 31.4009 10.9603C31.4284 11.5309 31.3933 12.1027 31.2965 12.6656C31.1706 13.3275 30.5309 13.9556 29.853 14.1094C29.4408 14.2378 28.0616 14.4844 20 14.4225C11.9384 14.4806 10.5592 14.235 10.147 14.1094C9.46909 13.9556 8.82939 13.3275 8.7035 12.6656C8.60677 12.1031 8.57174 11.5315 8.59906 10.9613ZM8.39856 20.2256C8.5114 19.6416 9.06531 19.0941 9.66679 18.9713C10.1741 18.8758 10.6885 18.8225 11.2045 18.8119C11.7178 18.7949 12.2316 18.8219 12.7404 18.8925C13.0451 18.9497 13.3261 19.0967 13.5474 19.3149C13.7688 19.5331 13.9206 19.8126 13.9834 20.1178C14.0625 20.6267 14.0996 21.1412 14.0944 21.6562C14.0962 22.1706 14.0553 22.6843 13.9722 23.1919C13.9056 23.4998 13.7514 23.7817 13.5284 24.0033C13.3054 24.2248 13.0232 24.3764 12.7161 24.4397C11.6937 24.5934 10.654 24.5909 9.63228 24.4322C9.02988 24.3262 8.48249 23.7956 8.37712 23.2134C8.22199 22.2243 8.22924 21.2162 8.39856 20.2294V20.2256ZM8.31277 29.8819C8.29984 29.3844 8.33105 28.8869 8.40602 28.395C8.50394 27.8156 9.0448 27.2981 9.64627 27.2053C10.1558 27.1328 10.6704 27.1014 11.1849 27.1116C11.7017 27.1167 12.2172 27.164 12.7264 27.2531C13.0344 27.3215 13.3167 27.4768 13.54 27.7008C13.7633 27.9248 13.9184 28.2083 13.9871 28.5178C14.1515 29.5335 14.1612 30.5685 14.016 31.5872C13.9571 31.8897 13.8083 32.1671 13.5891 32.3827C13.37 32.5983 13.0909 32.742 12.7889 32.7947C12.2832 32.8577 11.773 32.8762 11.2642 32.85C10.7501 32.83 10.2386 32.7673 9.73486 32.6625C9.13618 32.5266 8.58041 31.9659 8.46198 31.3791C8.36879 30.8844 8.31887 30.3825 8.31277 29.8791V29.8819ZM14.168 39.99C14.0748 40.5834 13.5675 41.0962 12.9921 41.1581C12.5001 41.2036 12.0049 41.202 11.5132 41.1534C11.0092 41.1111 10.5099 41.0242 10.0211 40.8938C9.43739 40.7288 8.88347 40.1381 8.75199 39.5447C8.64834 39.0508 8.58595 38.549 8.56549 38.0447C8.5408 37.5499 8.56014 37.0538 8.6233 36.5625C8.7035 35.9897 9.22198 35.5022 9.81133 35.4375C10.8249 35.3533 11.8452 35.4136 12.842 35.6166C13.1497 35.6987 13.4294 35.8635 13.6509 36.0935C13.8723 36.3234 14.0273 36.6097 14.099 36.9216C14.1895 37.4302 14.2391 37.9453 14.2473 38.4619C14.262 38.9716 14.2355 39.4817 14.168 39.9872V39.99ZM22.7043 40.1156C22.5943 40.7222 22.0618 41.2856 21.4818 41.4009C20.5003 41.5759 19.4959 41.5759 18.5145 41.4009C17.9354 41.2856 17.402 40.7222 17.292 40.1156C17.2064 39.6032 17.1621 39.0846 17.1596 38.565C17.1503 38.0484 17.184 37.5319 17.2603 37.0209C17.3196 36.7159 17.4673 36.4353 17.6848 36.2144C17.9023 35.9936 18.18 35.8423 18.4828 35.7797C19.4876 35.6309 20.5087 35.6309 21.5135 35.7797C21.8163 35.8423 22.0939 35.9936 22.3114 36.2144C22.529 36.4353 22.6767 36.7159 22.736 37.0209C22.8118 37.532 22.8455 38.0484 22.8367 38.565C22.8341 39.0846 22.7899 39.6032 22.7043 40.1156ZM22.7752 31.6481C22.6661 32.2528 22.1224 32.8097 21.5247 32.9212C20.5137 33.0875 19.4826 33.0875 18.4716 32.9212C17.8748 32.8097 17.3302 32.2537 17.2211 31.6481C17.1364 31.1363 17.0943 30.6182 17.0952 30.0994C17.0897 29.5821 17.1275 29.0653 17.208 28.5544C17.2725 28.2456 17.4252 27.9624 17.6473 27.7394C17.8694 27.5164 18.1513 27.3634 18.4585 27.2991C19.4785 27.1442 20.5159 27.1442 21.5359 27.2991C21.8431 27.3634 22.125 27.5164 22.3471 27.7394C22.5692 27.9624 22.7219 28.2456 22.7864 28.5544C22.8669 29.0653 22.9047 29.5821 22.8992 30.0994C22.9013 30.6181 22.8605 31.1362 22.777 31.6481H22.7752ZM22.7957 23.1806C22.7298 23.4901 22.5762 23.7737 22.3535 23.9973C22.1308 24.2209 21.8484 24.3749 21.5405 24.4406C21.0313 24.5245 20.516 24.5653 20 24.5625C19.4835 24.5655 18.9676 24.5253 18.4576 24.4425C18.1494 24.3767 17.8668 24.2225 17.6441 23.9985C17.4213 23.7746 17.2679 23.4905 17.2024 23.1806C17.0452 22.1553 17.0471 21.1116 17.208 20.0869C17.2743 19.7768 17.4278 19.4924 17.6504 19.2677C17.8729 19.0429 18.1551 18.8873 18.4632 18.8194C19.4825 18.6552 20.5212 18.6552 21.5405 18.8194C21.8486 18.8873 22.1308 19.0429 22.3534 19.2677C22.5759 19.4924 22.7295 19.7768 22.7957 20.0869C22.8797 20.5981 22.9206 21.1156 22.9178 21.6337C22.9207 22.1518 22.8805 22.6693 22.7975 23.1806H22.7957ZM31.5819 33.9975C31.4886 36.8353 31.3189 39.1716 31.2433 39.5288C31.1109 40.1231 30.557 40.7147 29.9733 40.8797C29.4847 41.0112 28.9853 41.0984 28.4812 41.1403C27.9894 41.1874 27.4941 41.1874 27.0023 41.1403C26.4269 41.0784 25.915 40.5647 25.8264 39.9703C25.776 39.6094 25.7779 37.2909 25.8264 34.2891C25.8655 31.8591 25.9457 28.965 26.0129 28.6003C26.0828 28.2917 26.2384 28.0095 26.4616 27.7863C26.6848 27.5631 26.9663 27.4081 27.2736 27.3394C27.7826 27.2514 28.2977 27.2047 28.8141 27.1997C29.3288 27.1883 29.8436 27.2178 30.3537 27.2878C30.9533 27.3816 31.4951 27.8991 31.5921 28.4794C31.649 28.8319 31.6658 31.4878 31.5837 33.9975H31.5819ZM31.621 23.2097C31.5166 23.7909 30.9683 24.3216 30.3659 24.4284C29.3442 24.5872 28.3045 24.5897 27.282 24.4359C26.9749 24.3727 26.6927 24.221 26.4697 23.9995C26.2467 23.778 26.0925 23.4961 26.0259 23.1881C25.8668 22.1715 25.863 21.1365 26.0147 20.1188C26.0773 19.8134 26.229 19.5338 26.4504 19.3156C26.6718 19.0973 26.9529 18.9504 27.2578 18.8934C27.7662 18.8228 28.2797 18.7959 28.7927 18.8128C29.3091 18.8234 29.8237 18.8767 30.3313 18.9722C30.9328 19.095 31.4867 19.6425 31.5996 20.2266C31.7689 21.2134 31.7761 22.2214 31.621 23.2106V23.2097Z" fill="white"/>
</svg>
