<svg width="40" height="48" viewBox="0 0 40 48" fill="none" xmlns="http://www.w3.org/2000/svg">
<g id="Vector">
<path d="M16.0176 0C14.913 0 14.0176 0.897485 14.0176 2.00205C14.0176 3.10662 14.913 4.00411 16.0176 4.00411H17.0883C17.6018 4.00411 18.0181 4.4204 18.0181 4.93392C18.0181 5.4998 18.5195 5.93075 19.0839 5.89006C19.7141 5.84463 20.3227 5.84463 20.9529 5.89006C21.5173 5.93075 22.0186 5.4998 22.0186 4.93393C22.0186 4.4204 22.4349 4.00411 22.9485 4.00411H24.0192C25.1237 4.00411 26.0192 3.10662 26.0192 2.00205C26.0192 0.897485 25.1237 0 24.0192 0H16.0176Z" fill="white"/>
<path d="M34.3492 13.9155C33.9618 13.523 33.9453 12.8878 34.3351 12.4977C34.7133 12.1191 35.3269 12.1191 35.7052 12.4977L35.8203 12.6129C36.262 13.0551 36.9787 13.0551 37.4205 12.6129L38.0218 12.011C38.7946 11.2375 38.7946 9.98416 38.0218 9.21066L34.8214 6.0074C34.0477 5.23293 32.7924 5.23293 32.0186 6.0074L31.4197 6.6068C30.9777 7.04919 30.9778 7.76602 31.4198 8.20839C31.8618 8.65077 31.8618 9.3676 31.4198 9.80998L31.2111 10.0188C30.7464 10.484 30.0261 10.5668 29.446 10.2572C19.9955 5.21362 8.22941 8.32996 2.81633 17.6179C-2.78431 27.2277 0.215958 39.2399 9.61712 45.0459C19.0183 50.8518 31.4197 47.8488 37.0205 38.239C41.8423 30.324 40.7128 20.3614 34.3492 13.9155ZM20.0183 41.8426C12.2174 41.8426 6.01669 35.6364 6.01669 27.8284C6.01669 20.699 11.1865 14.9049 18.0239 13.9517C19.1179 13.7991 20.0183 14.7095 20.0183 15.8141V25.8283C20.0183 26.9329 20.9138 27.8283 22.0183 27.8283H32.02C33.1246 27.8283 34.0349 28.7288 33.8828 29.8228C32.9313 36.6672 27.142 41.8426 20.0183 41.8426Z" fill="white"/>
</g>
</svg>
