<svg width="42" height="39" viewBox="0 0 42 39" fill="none" xmlns="http://www.w3.org/2000/svg">
<path d="M31.8296 29.4452C29.1417 29.4452 26.9255 31.5583 26.9255 34.2226C26.9255 36.841 29.0946 39 31.8296 39C34.5174 39 36.7337 36.8869 36.7337 34.2226C36.6865 31.6042 34.5174 29.4452 31.8296 29.4452Z" fill="white"/>
<path d="M40.4589 6.66078C40.3646 6.66078 40.2232 6.61484 40.0817 6.61484H10.3741L9.90254 3.5371C9.61961 1.5159 7.82772 0 5.70575 0H1.8862C0.848789 0 0 0.826855 0 1.83746C0 2.84806 0.848789 3.67491 1.8862 3.67491H5.70575C5.94152 3.67491 6.13014 3.85866 6.1773 4.08834L9.1009 23.4735C9.47814 25.9081 11.6473 27.7456 14.1936 27.7456H33.8101C36.2621 27.7456 38.3841 26.0459 38.9028 23.7032L41.9679 8.77385C42.1565 7.80919 41.4963 6.84452 40.4589 6.66078Z" fill="white"/>
<path d="M19.8051 33.9929C19.7108 31.4664 17.5416 29.4452 14.9481 29.4452C12.2131 29.583 10.1383 31.788 10.2326 34.4064C10.3269 36.9329 12.4489 38.9541 15.0424 38.9541H15.1367C17.8246 38.8163 19.9465 36.6113 19.8051 33.9929Z" fill="white"/>
</svg>
