<svg width="36" height="36" viewBox="0 0 36 36" fill="none" xmlns="http://www.w3.org/2000/svg">
<path fill-rule="evenodd" clip-rule="evenodd" d="M29.6244 21.3746H22.1219C21.5381 21.3746 21.0652 20.9024 21.0652 20.3199V16.7643C21.0652 16.1963 21.5024 15.7078 22.0708 15.681C22.6777 15.6524 23.1786 16.135 23.1786 16.7344V19.2652H36L35.9998 1.05469C35.9998 0.472192 35.5265 0 34.9431 0H23.0339V10.3764C23.0339 10.9441 22.5967 11.4328 22.0283 11.4596C21.4214 11.4882 20.9205 11.0057 20.9205 10.406V0H1.05669C0.47309 0 0 0.472192 0 1.05469V23.2853H10.6079C11.177 23.2853 11.6666 23.7217 11.6932 24.2888C11.7218 24.8946 11.2384 25.3947 10.638 25.3947H0V34.9453C0 35.5278 0.47309 36 1.05669 36H29.6244C30.2078 36 30.6811 35.5278 30.6811 34.9453V22.4292C30.6811 21.847 30.2078 21.3746 29.6244 21.3746Z" fill="white"/>
</svg>
