<svg width="52" height="40" viewBox="0 0 52 40" fill="none" xmlns="http://www.w3.org/2000/svg">
<path id="Vector" d="M51.3195 26.014C50.8926 26.4236 50.3443 26.6269 49.7969 26.6269C49.2165 26.6269 48.637 26.3981 48.2044 25.9445L45.664 23.2799C44.4328 30.7044 39.061 37.0068 31.5698 39.1937C29.7036 39.7384 27.816 40 25.9572 40C18.4916 40.0004 11.4801 35.7815 8.07695 28.7463C7.54567 27.6482 8.0026 26.326 9.09745 25.7934C10.1924 25.2599 11.5105 25.7188 12.0416 26.8169C15.3512 33.6586 23.0458 37.0799 30.3384 34.9497C35.9155 33.3215 39.985 28.7662 41.1714 23.3188L38.6574 25.7305C37.778 26.5744 36.3831 26.5424 35.5422 25.661C34.701 24.7787 34.7321 23.3797 35.6115 22.5363L42.0835 16.3278C42.51 15.9186 43.0579 15.7153 43.6049 15.7148H43.6068C44.1872 15.7148 44.7667 15.9436 45.1993 16.3973L51.3891 22.8893C52.2301 23.7715 52.1989 25.1705 51.3195 26.014ZM9.91604 23.6722L16.3885 17.4637C17.268 16.6203 17.2991 15.2213 16.4581 14.339C15.617 13.4571 14.2222 13.4252 13.3429 14.2695L10.827 16.6827C12.0092 11.2339 16.0734 6.68174 21.6618 5.05029C28.9536 2.92142 36.6483 6.34139 39.9578 13.1836C40.489 14.2817 41.807 14.7414 42.902 14.2071C43.9968 13.6744 44.4537 12.3522 43.9226 11.2542C39.6721 2.46718 29.7925 -1.92616 20.4303 0.806193C12.926 2.9968 7.5602 9.29144 6.33271 16.7162L3.79579 14.0554C2.95475 13.1735 1.55999 13.1416 0.680461 13.9859C-0.198969 14.8294 -0.230047 16.2284 0.610992 17.1107L6.80082 23.6027C7.23367 24.0564 7.81309 24.2852 8.39352 24.2852C8.94094 24.2852 9.48927 24.0819 9.91604 23.6722Z" fill="white"/>
</svg>
