<svg width="46" height="36" viewBox="0 0 46 36" fill="none" xmlns="http://www.w3.org/2000/svg">
<path id="Vector" d="M44.178 29.9003C43.081 28.7022 43.2454 27.8529 43.7665 25.428C44.1402 23.6889 44.6523 21.3074 44.6523 18C44.6523 14.6234 44.1286 12.2409 43.7467 10.5009C43.2265 8.13415 43.0558 7.32462 44.178 6.09969C44.1825 6.09508 44.1861 6.09046 44.1905 6.08677C45.3576 4.77785 46 3.108 46 1.38462C46 0.620308 45.3963 0 44.6523 0C42.9741 0 41.3488 0.66 40.0757 1.85908C40.0721 1.86369 40.0676 1.86738 40.0631 1.872C38.9455 2.952 37.9563 2.83015 34.6932 2.33262C32.0652 1.93292 28.467 1.38462 23 1.38462C17.542 1.38462 13.9429 1.932 11.3158 2.33169C8.07246 2.82462 7.06352 2.96123 5.93688 1.872C5.93238 1.86738 5.92789 1.86369 5.9243 1.85908C4.65121 0.66 3.02594 0 1.34766 0C0.60375 0 0 0.620308 0 1.38462C0 3.108 0.642383 4.77785 1.80945 6.08677C1.81395 6.09046 1.81754 6.09508 1.82203 6.09969C2.91723 7.296 2.75641 8.13877 2.23352 10.572C1.85977 12.3111 1.34766 14.6926 1.34766 18C1.34766 21.3766 1.87145 23.7591 2.25328 25.4991C2.77168 27.8603 2.94688 28.6717 1.82203 29.9003C1.81754 29.9049 1.81395 29.9095 1.80945 29.9142C0.642383 31.2222 0 32.8911 0 34.6154C0 35.3797 0.60375 36 1.34766 36C3.02594 36 4.65121 35.34 5.9243 34.1409C5.92789 34.1363 5.93238 34.1326 5.93688 34.128C7.05453 33.048 8.04371 33.1698 11.3068 33.6665C13.9348 34.0671 17.533 34.6154 23 34.6154C28.458 34.6154 32.0571 34.068 34.6842 33.6683C37.9877 33.1662 38.9518 33.0535 40.0631 34.128C40.0676 34.1326 40.0721 34.1363 40.0757 34.1409C41.3488 35.34 42.9741 36 44.6523 36C45.3963 36 46 35.3797 46 34.6154C46 32.8911 45.3576 31.2222 44.1905 29.9142C44.1861 29.9095 44.1825 29.9049 44.178 29.9003ZM20.3047 22.1538C21.0486 22.1538 21.6523 22.7742 21.6523 23.5385C21.6523 24.3028 21.0486 24.9231 20.3047 24.9231H14.9141C13.7173 24.9231 13.1127 23.4305 13.9608 22.5591L17.0514 19.3846H14.9141C14.1702 19.3846 13.5664 18.7643 13.5664 18C13.5664 17.2357 14.1702 16.6154 14.9141 16.6154H20.3047C21.5014 16.6154 22.1061 18.108 21.2579 18.9794L18.1673 22.1538H20.3047ZM31.0859 16.6154C31.8298 16.6154 32.4336 17.2357 32.4336 18C32.4336 18.7643 31.8298 19.3846 31.0859 19.3846H25.6953C24.4986 19.3846 23.8939 17.892 24.7421 17.0206L27.8327 13.8462H25.6953C24.9514 13.8462 24.3477 13.2258 24.3477 12.4615C24.3477 11.6972 24.9514 11.0769 25.6953 11.0769H31.0859C32.2827 11.0769 32.8873 12.5695 32.0392 13.4409L28.9486 16.6154H31.0859Z" fill="white"/>
</svg>
