<svg width="52" height="52" viewBox="0 0 52 52" fill="none" xmlns="http://www.w3.org/2000/svg">
<g id="Vector">
<path d="M42.3167 16.2926C42.2803 16.2926 42.2438 16.2928 42.2076 16.2932C42.2809 11.7254 38.4675 7.97771 33.9047 8.13199C32.6095 1.21519 23.4219 -0.78558 19.3893 5.05349C16.6202 4.32773 13.5712 5.68159 12.233 8.15902C6.57585 8.57033 3.0556 15.0547 5.87478 20.0426C0.981662 24.4802 3.39079 32.7273 9.80803 33.8974C10.0972 37.6716 13.3143 40.645 17.1576 40.5683C17.8742 49.239 29.4239 51.7761 33.7143 44.2298C40.3831 48.2126 48.6837 42.1027 46.8637 34.536C55.6708 29.7911 52.3709 16.3659 42.3167 16.2926ZM35.8041 31.3068C35.4693 31.46 35.1458 31.649 34.8424 31.8685C34.2052 32.3297 33.3219 32.2295 32.8037 31.6378C31.4372 30.0468 28.7495 30.787 28.3841 32.8499C28.2353 33.6441 27.4924 34.1843 26.6918 34.081C25.575 33.9413 24.4136 34.1402 23.4124 34.6447C22.179 35.2248 21.1966 34.1764 21.208 33.2933C21.1907 31.1602 19.5809 29.3845 17.4634 29.1628C16.5344 29.0655 15.9092 28.1599 16.1494 27.255C16.3675 26.4341 16.5992 24.4959 15.1405 22.7633C14.5366 22.0461 14.7181 20.9584 15.5192 20.4753C16.6524 19.7919 17.4832 18.6676 17.7983 17.3904C17.9484 16.7826 18.4546 16.3283 19.0747 16.2449C19.6951 16.162 20.303 16.4663 20.608 17.0131C21.8497 19.3014 25.249 19.3007 26.4902 17.0131C26.7951 16.4663 27.4037 16.1621 28.0235 16.2449C28.6436 16.3283 29.1499 16.7826 29.2999 17.3904C29.8522 19.6284 31.8495 21.1913 34.1567 21.1913C34.6389 21.1913 35.4904 20.9612 36.087 21.78C36.4087 22.2213 36.4699 22.8012 36.2472 23.2999C35.1594 25.7373 35.8481 27.9986 36.5031 29.1817C36.9329 29.9582 36.6108 30.9374 35.8041 31.3068Z" fill="white"/>
<path d="M46.3965 11.177C49.4862 11.177 52 8.6618 52 5.5702C51.7182 -1.85772 41.0736 -1.85579 40.793 5.5703C40.793 8.6618 43.3068 11.177 46.3965 11.177Z" fill="white"/>
<path d="M9.44968 41.2447C8.96415 39.1147 7.05548 37.5206 4.78175 37.5206C0.370594 37.517 -1.67815 43.072 1.64494 45.9322C1.36409 49.1728 3.97708 52.0156 7.22968 51.9999C13.3074 51.9303 14.961 43.6874 9.44968 41.2447Z" fill="white"/>
</g>
</svg>
