<svg width="40" height="35" viewBox="0 0 40 35" fill="none" xmlns="http://www.w3.org/2000/svg">
<path id="Vector" d="M20 35C19.7976 35 19.5954 34.9471 19.4141 34.8412C19.2172 34.7263 14.5398 31.9787 9.79532 27.8387C6.9833 25.3851 4.73862 22.9514 3.12379 20.6055C1.0341 17.5699 -0.0167512 14.65 0.000201881 11.9268C0.0200456 8.75812 1.14184 5.77815 3.15918 3.53578C5.21057 1.25563 7.94822 0 10.868 0C14.6099 0 18.0311 2.12065 20.0001 5.48001C21.969 2.12073 25.3902 0 29.1321 0C31.8906 0 34.5224 1.13296 36.543 3.19022C38.7605 5.44784 40.0204 8.63774 39.9997 11.9419C39.9827 14.6603 38.9122 17.5758 36.8179 20.6072C35.198 22.9519 32.9565 25.3844 30.1555 27.8374C25.4283 31.9769 20.7845 34.7245 20.5891 34.8394C20.407 34.9464 20.2034 35 20 35Z" fill="white"/>
</svg>
