<svg width="40" height="44" viewBox="0 0 40 44" fill="none" xmlns="http://www.w3.org/2000/svg">
<path id="Vector" d="M8.93956 1.70344C9.14784 1.21578 9.01873 0.649897 8.62165 0.301568C8.22214 -0.0479829 7.64724 -0.0980935 7.19414 0.174458C0.439008 4.24074 -2.05428 14.6943 1.85922 22.5457C5.49987 29.8508 7.69718 34.2593 4.26602 42.2953C4.05774 42.783 4.18685 43.3489 4.58392 43.6972C4.98343 44.0468 5.55834 44.0969 6.01144 43.8243C12.7641 39.758 15.2574 29.3045 11.3451 21.4494C7.7057 14.1455 5.5084 9.737 8.93956 1.70344ZM22.3378 1.70344C22.546 1.21578 22.4169 0.649897 22.0199 0.301568C21.6203 -0.0479829 21.0454 -0.0980935 20.5923 0.174458C13.8384 4.24074 11.3451 14.6955 15.2574 22.5469C18.8981 29.8521 21.0954 34.2606 17.6642 42.2966C17.4559 42.7842 17.585 43.3501 17.9821 43.6984C18.3816 44.048 18.9565 44.0981 19.4096 43.8255C26.1623 39.7593 28.6556 29.3057 24.7433 21.4506C21.1039 14.1455 18.9066 9.737 22.3378 1.70344ZM38.1415 21.4506C34.5021 14.1455 32.3048 9.737 35.736 1.70344C35.9442 1.21578 35.8151 0.649897 35.418 0.301568C35.0185 -0.0479829 34.4436 -0.0980935 33.9905 0.174458C27.2366 4.24074 24.7433 14.6955 28.6556 22.5469C32.2963 29.8521 34.4936 34.2606 31.0624 42.2966C30.8541 42.7842 30.9832 43.3501 31.3803 43.6984C31.7798 44.048 32.3547 44.0981 32.8078 43.8255C39.5605 39.7593 42.0538 29.3045 38.1415 21.4506Z" fill="white"/>
</svg>
