<svg width="32" height="55" viewBox="0 0 32 55" fill="none" xmlns="http://www.w3.org/2000/svg">
<g id="Vector">
<path d="M29.7143 11.4583H27.4286C26.1669 11.4583 25.1429 10.4317 25.1429 9.16667C25.1429 7.90167 26.1669 6.875 27.4286 6.875H29.7143C30.976 6.875 32 7.90167 32 9.16667C32 10.4317 30.976 11.4583 29.7143 11.4583Z" fill="white"/>
<path d="M29.7143 20.625H27.4286C26.1669 20.625 25.1429 19.5983 25.1429 18.3333C25.1429 17.0683 26.1669 16.0417 27.4286 16.0417H29.7143C30.976 16.0417 32 17.0683 32 18.3333C32 19.5983 30.976 20.625 29.7143 20.625Z" fill="white"/>
<path d="M29.7143 29.7917H27.4286C26.1669 29.7917 25.1429 28.765 25.1429 27.5C25.1429 26.235 26.1669 25.2083 27.4286 25.2083H29.7143C30.976 25.2083 32 26.235 32 27.5C32 28.765 30.976 29.7917 29.7143 29.7917Z" fill="white"/>
<path d="M20.5714 32.6815V8.02083C20.5714 3.59792 16.9829 0 12.5714 0C8.16 0 4.57143 3.59792 4.57143 8.02083V32.6815C1.69371 35.0648 0 38.6329 0 42.3958C0 49.3442 5.63886 55 12.5714 55C19.504 55 25.1429 49.3442 25.1429 42.3958C25.1429 38.6306 23.4491 35.0648 20.5714 32.6815ZM12.5714 48.125C9.42171 48.125 6.85714 45.556 6.85714 42.3958C6.85714 40.0515 8.272 38.0394 10.2857 37.1525V13.75C10.2857 12.485 11.3097 11.4583 12.5714 11.4583C13.8331 11.4583 14.8571 12.485 14.8571 13.75V37.1525C16.8709 38.0394 18.2857 40.0515 18.2857 42.3958C18.2857 45.556 15.7211 48.125 12.5714 48.125Z" fill="white"/>
</g>
</svg>
