<svg width="40" height="54" viewBox="0 0 40 54" fill="none" xmlns="http://www.w3.org/2000/svg">
<path id="Vector" d="M35.2595 20.4953C35.1096 20.3129 34.928 20.3487 34.8328 20.386C34.753 20.4174 34.5703 20.5178 34.5956 20.7695C34.626 21.0716 34.643 21.3797 34.6462 21.6852C34.6598 22.9528 34.1367 24.1945 33.211 25.0922C32.2912 25.984 31.0815 26.4645 29.7934 26.4506C28.0339 26.4288 26.5746 25.5368 25.5731 23.8712C24.745 22.4939 25.109 20.7175 25.4943 18.8366C25.7198 17.7358 25.953 16.5973 25.953 15.5139C25.953 7.07756 20.1177 2.21041 16.6393 0.0600115C16.5674 0.0156093 16.4989 0 16.4382 0C16.3396 0 16.2615 0.0413436 16.2229 0.066656C16.1483 0.115804 16.0288 0.227812 16.0672 0.426092C17.3967 7.28807 13.4311 11.4152 9.23265 15.7845C4.90503 20.2883 0 25.3931 0 34.5996C0 45.2971 8.95442 54 19.961 54C29.0234 54 37.0135 47.8592 39.3913 39.0667C41.0128 33.0716 39.3136 25.4348 35.2595 20.4953ZM20.459 49.859C17.7029 49.9811 15.0818 49.0204 13.0798 47.16C11.0992 45.3193 9.96329 42.7506 9.96329 40.1125C9.96329 35.1617 11.9109 31.5272 17.1494 26.7023C17.2352 26.6233 17.323 26.5983 17.3995 26.5983C17.4688 26.5983 17.5289 26.6188 17.5703 26.6381C17.6574 26.679 17.8006 26.78 17.7813 26.9985C17.594 29.1169 17.5973 30.8751 17.7909 32.2247C18.2857 35.6719 20.8822 37.9881 24.2521 37.9881C25.9044 37.9881 27.4782 37.3838 28.6837 36.2864C28.8236 36.159 28.9799 36.1752 29.0398 36.1876C29.1191 36.2042 29.2253 36.2515 29.281 36.3819C29.7808 37.5549 30.0363 38.7999 30.0402 40.0823C30.0561 45.2423 25.758 49.6282 20.459 49.859Z" fill="white"/>
</svg>
