<svg width="22" height="18" viewBox="0 0 22 18" fill="none" xmlns="http://www.w3.org/2000/svg">
<g id="Vector">
<path d="M21.6437 4.88158L11.2883 0.0629901C11.107 -0.0209967 10.893 -0.0209967 10.7117 0.0629901L0.356254 4.88158C0.137844 4.98309 0 5.18957 0 5.41592C0 5.64228 0.137844 5.84876 0.356254 5.95027L10.7117 10.729C10.8023 10.771 10.9012 10.792 11 10.792C11.0988 10.792 11.1977 10.771 11.2883 10.729L21.6437 5.95027C21.8622 5.84876 22 5.64228 22 5.41592C22 5.18957 21.8622 4.98309 21.6437 4.88158Z" fill="white"/>
<path d="M21.6437 12.0497L20.3711 11.4599L11.8648 15.3818C11.598 15.5054 11.299 15.5708 11 15.5708C10.701 15.5708 10.402 15.5054 10.1352 15.3818L1.62895 11.4599L0.356254 12.0497C0.137844 12.1512 0 12.3577 0 12.5841C0 12.8104 0.137844 13.0169 0.356254 13.1184L10.7117 17.937C10.8023 17.979 10.9012 18 11 18C11.0988 18 11.1977 17.979 11.2883 17.937L21.6437 13.1184C21.8622 13.0169 22 12.8104 22 12.5841C22 12.3577 21.8622 12.1512 21.6437 12.0497Z" fill="white"/>
<path d="M21.6437 8.46565L20.3711 7.87587L11.8648 11.7977C11.598 11.9214 11.299 11.9867 11 11.9867C10.701 11.9867 10.402 11.9214 10.1352 11.7977L1.62895 7.87587L0.356254 8.46565C0.137844 8.56716 0 8.77364 0 9C0 9.22635 0.137844 9.43283 0.356254 9.53434L10.7117 14.3131C10.8023 14.3551 10.9012 14.3761 11 14.3761C11.0988 14.3761 11.1977 14.3551 11.2883 14.3131L21.6437 9.53434C21.8622 9.43283 22 9.22635 22 9C22 8.77364 21.8622 8.56716 21.6437 8.46565Z" fill="white"/>
</g>
</svg>
