<svg width="50" height="52" viewBox="0 0 50 52" fill="none" xmlns="http://www.w3.org/2000/svg">
<g id="Vector">
<path d="M44.7926 23.8818C40.1977 23.8818 36.4591 27.6782 36.4591 32.3441V33.8895C34.6143 33.22 31.0454 32.3441 25.0005 32.3441C18.9556 32.3441 15.3878 33.22 13.5419 33.8895V32.3441C13.5419 27.6782 9.80333 23.8818 5.20844 23.8818C2.33651 23.8818 0 26.2544 0 29.1707C0 31.3106 1.25836 33.2305 3.20736 34.0546C3.7907 34.3021 4.16675 34.8765 4.16675 35.5175L5.20844 39.7486C5.20844 43.5461 8.04079 46.6825 11.6732 47.1024C10.8179 47.5171 10.2221 48.3972 10.2221 49.4211C10.2221 50.847 11.3596 52 12.7617 52C14.1638 52 15.3014 50.8449 15.3014 49.4211C15.3014 48.4331 14.7472 47.5869 13.943 47.1511H36.0612C35.257 47.5837 34.7028 48.4321 34.7028 49.4211C34.7028 50.847 35.8403 52 37.2424 52C38.6446 52 39.7821 50.8449 39.7821 49.4211C39.7821 48.395 39.1873 47.515 38.33 47.1024C41.9592 46.6825 44.7916 43.5461 44.7916 39.7486L45.8332 35.5175C45.8332 34.8765 46.2093 34.3042 46.7926 34.0546C48.7416 33.2316 50 31.3106 50 29.1707C50.001 26.2544 47.6645 23.8818 44.7926 23.8818Z" fill="white"/>
<path d="M16.4066 29.871C18.5743 29.469 21.3963 29.1707 25.0005 29.1707C28.6048 29.1707 31.4267 29.469 33.5945 29.871C34.4132 26.0418 37.0977 22.9171 40.6269 21.5134V15.8669C40.6269 7.10413 33.6309 0 25.0005 0C16.3712 0 9.3752 7.10413 9.3752 15.8669V21.5144C12.9034 22.9181 15.5878 26.0428 16.4066 29.871Z" fill="white"/>
</g>
</svg>
