<svg width="40" height="40" viewBox="0 0 40 40" fill="none" xmlns="http://www.w3.org/2000/svg">
<g id="Vector">
<path d="M39.3523 11.9205L20.5241 2.46734C20.1945 2.30258 19.8055 2.30258 19.4759 2.46734L0.647734 11.9205C0.250625 12.1196 0 12.5247 0 12.9688C0 13.4128 0.250625 13.8179 0.647734 14.017L19.4759 23.392C19.6406 23.4745 19.8203 23.5156 20 23.5156C20.1797 23.5156 20.3594 23.4745 20.5241 23.392L39.3523 14.017C39.7494 13.8179 40 13.4128 40 12.9688C40 12.5247 39.7494 12.1196 39.3523 11.9205Z" fill="white"/>
<path d="M1.17188 7.10938C1.81961 7.10938 2.34375 6.58523 2.34375 5.9375V2.34375H5.85938C6.50711 2.34375 7.03125 1.81961 7.03125 1.17188C7.03125 0.524141 6.50711 0 5.85938 0H1.17188C0.524141 0 0 0.524141 0 1.17188V5.9375C0 6.58523 0.524141 7.10938 1.17188 7.10938Z" fill="white"/>
<path d="M38.8281 0H34.1406C33.4929 0 32.9688 0.524141 32.9688 1.17188C32.9688 1.81961 33.4929 2.34375 34.1406 2.34375H37.6562V5.9375C37.6562 6.58523 38.1804 7.10938 38.8281 7.10938C39.4759 7.10938 40 6.58523 40 5.9375V1.17188C40 0.524141 39.4759 0 38.8281 0Z" fill="white"/>
<path d="M38.8281 32.8906C38.1804 32.8906 37.6562 33.4148 37.6562 34.0625V37.6562H34.1406C33.4929 37.6562 32.9688 38.1804 32.9688 38.8281C32.9688 39.4759 33.4929 40 34.1406 40H38.8281C39.4759 40 40 39.4759 40 38.8281V34.0625C40 33.4148 39.4759 32.8906 38.8281 32.8906Z" fill="white"/>
<path d="M1.17188 40H5.85938C6.50711 40 7.03125 39.4759 7.03125 38.8281C7.03125 38.1804 6.50711 37.6562 5.85938 37.6562H2.34375V34.0625C2.34375 33.4148 1.81961 32.8906 1.17188 32.8906C0.524141 32.8906 0 33.4148 0 34.0625V38.8281C0 39.4759 0.524141 40 1.17188 40Z" fill="white"/>
<path d="M39.3523 25.983L37.0383 24.8259L21.5724 32.5198C21.0872 32.7624 20.5436 32.8906 20 32.8906C19.4564 32.8906 18.9128 32.7624 18.4276 32.5198L2.96172 24.8259L0.647734 25.983C0.250625 26.1821 0 26.5872 0 27.0312C0 27.4753 0.250625 27.8804 0.647734 28.0795L19.4759 37.5327C19.6406 37.6151 19.8203 37.6562 20 37.6562C20.1797 37.6562 20.3594 37.6151 20.5241 37.5327L39.3523 28.0795C39.7494 27.8804 40 27.4753 40 27.0312C40 26.5872 39.7494 26.1821 39.3523 25.983Z" fill="white"/>
<path d="M39.3523 18.9517L37.0383 17.7947L21.5724 25.4885C21.0872 25.7312 20.5436 25.8594 20 25.8594C19.4564 25.8594 18.9128 25.7312 18.4276 25.4886L2.96172 17.7947L0.647734 18.9517C0.250625 19.1509 0 19.5559 0 20C0 20.4441 0.250625 20.8491 0.647734 21.0483L19.4759 30.4233C19.6406 30.5057 19.8203 30.5469 20 30.5469C20.1797 30.5469 20.3594 30.5057 20.5241 30.4233L39.3523 21.0483C39.7494 20.8491 40 20.4441 40 20C40 19.5559 39.7494 19.1509 39.3523 18.9517Z" fill="white"/>
</g>
</svg>
