<svg width="22" height="24" viewBox="0 0 22 24" fill="none" xmlns="http://www.w3.org/2000/svg">
<g id="Vector">
<path d="M19.7087 11.0224C17.687 11.0224 16.042 12.7745 16.042 14.9281V15.6413C15.2303 15.3323 13.66 14.9281 11.0002 14.9281C8.34047 14.9281 6.77064 15.3323 5.95846 15.6413V14.9281C5.95846 12.7745 4.31347 11.0224 2.29171 11.0224C1.02806 11.0224 0 12.1174 0 13.4634C0 14.4511 0.553678 15.3372 1.41124 15.7175C1.66791 15.8317 1.83337 16.0968 1.83337 16.3927L2.29171 18.3455C2.29171 20.0982 3.53795 21.5458 5.13619 21.7396C4.75989 21.931 4.49772 22.3372 4.49772 22.8097C4.49772 23.4679 4.99823 24 5.61516 24C6.23209 24 6.7326 23.4669 6.7326 22.8097C6.7326 22.3538 6.48876 21.9632 6.13492 21.762H15.8669C15.5131 21.9617 15.2692 22.3533 15.2692 22.8097C15.2692 23.4679 15.7697 24 16.3867 24C17.0036 24 17.5041 23.4669 17.5041 22.8097C17.5041 22.3362 17.2424 21.93 16.8652 21.7396C18.4621 21.5458 19.7083 20.0982 19.7083 18.3455L20.1666 16.3927C20.1666 16.0968 20.3321 15.8327 20.5888 15.7175C21.4463 15.3377 22 14.4511 22 13.4634C22.0005 12.1174 20.9724 11.0224 19.7087 11.0224Z" fill="white"/>
<path d="M7.2189 13.7866C8.17271 13.6011 9.41436 13.4634 11.0002 13.4634C12.5861 13.4634 13.8277 13.6011 14.7816 13.7866C15.1418 12.0193 16.323 10.5771 17.8758 9.92925V7.32318C17.8758 3.27883 14.7976 0 11.0002 0C7.20332 0 4.12509 3.27883 4.12509 7.32318V9.92974C5.67749 10.5776 6.85864 12.0198 7.2189 13.7866Z" fill="white"/>
</g>
</svg>
