<svg width="46" height="46" viewBox="0 0 46 46" fill="none" xmlns="http://www.w3.org/2000/svg">
<g id="Vector">
<path d="M37.375 28.75H46V11.5H37.375C35.788 11.5 34.5 12.788 34.5 14.375V25.875C34.5 27.462 35.788 28.75 37.375 28.75Z" fill="white"/>
<path d="M17.25 34.5H28.75C30.337 34.5 31.625 33.212 31.625 31.625V17.25C31.625 15.663 30.337 14.375 28.75 14.375H17.25C15.663 14.375 14.375 15.663 14.375 17.25V31.625C14.375 33.212 15.663 34.5 17.25 34.5Z" fill="white"/>
<path d="M17.25 11.5H28.75C30.337 11.5 31.625 10.212 31.625 8.625V0H14.375V8.625C14.375 10.212 15.663 11.5 17.25 11.5Z" fill="white"/>
<path d="M14.375 46H31.625V40.25C31.625 38.663 30.337 37.375 28.75 37.375H17.25C15.663 37.375 14.375 38.663 14.375 40.25V46Z" fill="white"/>
<path d="M43.125 0H34.5V5.75C34.5 7.337 35.788 8.625 37.375 8.625H46V2.875C46 1.288 44.712 0 43.125 0Z" fill="white"/>
<path d="M34.5 46H43.125C44.712 46 46 44.712 46 43.125V31.625H37.375C35.788 31.625 34.5 32.913 34.5 34.5V46Z" fill="white"/>
<path d="M0 28.75H8.625C10.212 28.75 11.5 27.462 11.5 25.875V14.375C11.5 12.788 10.212 11.5 8.625 11.5H0V28.75Z" fill="white"/>
<path d="M0 2.875V8.625H8.625C10.212 8.625 11.5 7.337 11.5 5.75V0H2.875C1.288 0 0 1.288 0 2.875Z" fill="white"/>
<path d="M0 43.125C0 44.712 1.288 46 2.875 46H11.5V34.5C11.5 32.913 10.212 31.625 8.625 31.625H0V43.125Z" fill="white"/>
</g>
</svg>
