<svg width="20" height="22" viewBox="0 0 20 22" fill="none" xmlns="http://www.w3.org/2000/svg">
<path id="Vector" d="M4.46978 0.851719C4.57392 0.607889 4.50936 0.324948 4.31083 0.150784C4.11107 -0.0239915 3.82362 -0.0490467 3.59707 0.0872292C0.219504 2.12037 -1.02714 7.34713 0.929609 11.2729C2.74994 14.9254 3.84859 17.1297 2.13301 21.1477C2.02887 21.3915 2.09343 21.6744 2.29196 21.8486C2.49172 22.0234 2.77917 22.0484 3.00572 21.9122C6.38207 19.879 7.62871 14.6523 5.67257 10.7247C3.85285 7.07275 2.7542 4.8685 4.46978 0.851719ZM11.1689 0.851719C11.273 0.607889 11.2085 0.324948 11.0099 0.150784C10.8102 -0.0239915 10.5227 -0.0490467 10.2962 0.0872292C6.91921 2.12037 5.67257 7.34774 7.62871 11.2735C9.44904 14.926 10.5477 17.1303 8.83211 21.1483C8.72797 21.3921 8.79252 21.6751 8.99106 21.8492C9.19082 22.024 9.47827 22.049 9.70482 21.9128C13.0812 19.8796 14.3278 14.6529 12.3717 10.7253C10.552 7.07275 9.4533 4.8685 11.1689 0.851719ZM19.0708 10.7253C17.2511 7.07275 16.1524 4.8685 17.868 0.851719C17.9721 0.607889 17.9076 0.324948 17.709 0.150784C17.5093 -0.0239915 17.2218 -0.0490467 16.9953 0.0872292C13.6183 2.12037 12.3717 7.34774 14.3278 11.2735C16.1481 14.926 17.2468 17.1303 15.5312 21.1483C15.4271 21.3921 15.4916 21.6751 15.6902 21.8492C15.8899 22.024 16.1774 22.049 16.4039 21.9128C19.7803 19.8796 21.0269 14.6523 19.0708 10.7253Z" fill="white"/>
</svg>
