<svg width="36" height="36" viewBox="0 0 36 36" fill="none" xmlns="http://www.w3.org/2000/svg">
<path id="+" d="M21.8073 32.2326C21.8073 34.3133 20.1206 36 18.0399 36C15.9592 36 14.2724 34.3133 14.2724 32.2326V21.7434H3.76327C1.68487 21.7434 0 20.0585 0 17.9801C0 15.9017 1.68488 14.2168 3.76328 14.2168H14.2724V3.76744C14.2724 1.68674 15.9592 0 18.0399 0C20.1206 0 21.8073 1.68674 21.8073 3.76744V14.2168H32.2367C34.3151 14.2168 36 15.9017 36 17.9801C36 20.0585 34.3151 21.7434 32.2367 21.7434H21.8073V32.2326Z" fill="white"/>
</svg>
