<svg width="48" height="48" viewBox="0 0 48 48" fill="none" xmlns="http://www.w3.org/2000/svg">
<g id="Vector">
<path d="M43.7812 19.6876H4.21875C1.89244 19.6876 0 21.58 0 23.9063C0 27.3015 2.41959 30.1419 5.625 30.7952V40.9688C5.625 44.8456 8.77941 48 12.6562 48H35.3438C39.2206 48 42.375 44.8456 42.375 40.9688V30.7952C45.5804 30.1419 48 27.3015 48 23.9063C48 21.58 46.1076 19.6876 43.7812 19.6876ZM2.8125 23.9063C2.8125 23.1304 3.44287 22.5 4.21875 22.5H5.625V27.866C3.99169 27.2835 2.8125 25.7372 2.8125 23.9063ZM42.375 27.866V22.5H43.7812C44.5571 22.5 45.1875 23.1304 45.1875 23.9063C45.1875 25.7372 44.0083 27.2835 42.375 27.866Z" fill="white"/>
<path d="M5.84784 16.0566C6.17484 16.7695 7.01859 17.0679 7.71281 16.7461L38.4638 2.68452C39.1697 2.36043 39.4787 1.52408 39.1533 0.819554C38.8292 0.113711 37.9928 -0.196695 37.2883 0.130117L26.9746 4.7833C25.6758 1.95824 22.3298 0.721116 19.5135 2.02574C16.6912 3.32314 15.4577 6.65951 16.7557 9.48748L6.53719 14.1917C5.83134 14.5157 5.52234 15.3507 5.84784 16.0566Z" fill="white"/>
<path d="M39.0804 7.51339C39.0804 6.73611 38.4515 6.10714 37.6742 6.10714C37.4105 6.10714 35.0622 6.14698 33.6944 7.51339C32.3293 8.8812 32.2896 11.2281 32.2896 11.4918C32.2896 11.9821 32.1193 13.0683 31.7073 13.4804C31.3173 13.8704 30.2873 14.0585 29.7188 14.0627C28.9415 14.0627 28.3125 14.6916 28.3125 15.4689C28.3125 16.2462 28.9415 16.8752 29.7188 16.8752C29.9825 16.8752 32.3294 16.8353 33.6958 15.4689C35.0622 14.1025 35.1021 11.7556 35.1021 11.4918C35.1021 11.0016 35.2737 9.91394 35.6843 9.50191C36.073 9.11323 37.1016 8.92516 37.677 8.91963C38.4529 8.91823 39.0804 8.28926 39.0804 7.51339Z" fill="white"/>
<path d="M38.1562 16.8751C38.42 16.8751 40.7669 16.8352 42.1333 15.4688C43.4997 14.1024 43.5396 11.7555 43.5396 11.4918C43.5396 11.0015 43.7112 9.91385 44.1218 9.50182C44.5105 9.11313 45.5391 8.92507 46.1145 8.91954C46.8904 8.91813 47.518 8.28917 47.518 7.51329C47.518 6.73601 46.8891 6.10704 46.1118 6.10704C45.8481 6.10704 43.4998 6.14689 42.132 7.51329C40.7669 8.8811 40.7272 11.228 40.7272 11.4918C40.7272 11.982 40.5569 13.0683 40.1449 13.4803C39.7549 13.8703 38.7249 14.0584 38.1563 14.0626C37.3791 14.0626 36.7501 14.6915 36.7501 15.4688C36.7501 16.2461 37.379 16.8751 38.1562 16.8751Z" fill="white"/>
</g>
</svg>
