<svg width="18" height="18" viewBox="0 0 18 18" fill="none" xmlns="http://www.w3.org/2000/svg">
<path id="Vector" fill-rule="evenodd" clip-rule="evenodd" d="M14.8122 10.6873H11.0609C10.769 10.6873 10.5326 10.4512 10.5326 10.1599V8.38213C10.5326 8.09813 10.7512 7.85391 11.0354 7.8405C11.3389 7.82622 11.5893 8.06748 11.5893 8.36719V9.63259H18L17.9999 0.527344C17.9999 0.236096 17.7632 0 17.4715 0H11.517V5.18818C11.517 5.47207 11.2984 5.71641 11.0142 5.72981C10.7107 5.74409 10.4603 5.50283 10.4603 5.20302V0H0.528347C0.236545 0 0 0.236096 0 0.527344V11.6427H5.30394C5.58848 11.6427 5.83328 11.8608 5.8466 12.1444C5.86091 12.4473 5.61919 12.6973 5.31902 12.6973H0V17.4727C0 17.7639 0.236545 18 0.528347 18H14.8122C15.1039 18 15.3405 17.7639 15.3405 17.4727V11.2146C15.3405 10.9235 15.1039 10.6873 14.8122 10.6873Z" fill="white"/>
</svg>
