<svg width="21" height="27" viewBox="0 0 21 27" fill="none" xmlns="http://www.w3.org/2000/svg">
<path id="Vector" d="M6.23321 23.7319L6.23319 23.7318C5.10249 22.7139 4.44214 21.2827 4.44214 19.7947C4.44214 18.4943 4.70943 17.3385 5.34167 16.1957C5.96449 15.0698 6.92223 13.9917 8.24614 12.8105M6.23321 23.7319L15.8801 19.7778M6.23321 23.7319C7.37351 24.7583 8.86363 25.2845 10.419 25.2179M6.23321 23.7319L10.419 25.2179M8.24614 12.8105L8.75156 13.377L8.24601 12.8106C8.24605 12.8106 8.24609 12.8106 8.24614 12.8105ZM8.24614 12.8105C8.43578 12.6413 8.66227 12.5679 8.87561 12.5679C9.05199 12.5679 9.19106 12.6173 9.27314 12.6545L9.27401 12.6548C9.35858 12.6932 9.50395 12.7734 9.62741 12.9292C9.76606 13.1041 9.84426 13.3347 9.82111 13.5885L9.82111 13.5885C9.73138 14.5714 9.73746 15.3463 9.82077 15.9089M9.82077 15.9089C9.82077 15.9089 9.82076 15.9088 9.82076 15.9088L9.06897 16.0202L9.82077 15.9089ZM9.82077 15.9089C10.0102 17.1868 10.9738 18.0181 12.2608 18.0181C12.8976 18.0181 13.4948 17.7928 13.9472 17.3939C14.2757 17.1041 14.6451 17.1454 14.7746 17.1712L14.7774 17.1718C14.955 17.2079 15.2776 17.3332 15.4406 17.7032L15.4407 17.7035C15.7298 18.3605 15.8779 19.0597 15.8801 19.7778M15.8801 19.7778C15.8894 22.6947 13.404 25.092 10.419 25.2179M15.8801 19.7778L10.419 25.2179M5.46146 8.60718C7.22355 6.83155 9.1529 4.88737 9.10592 1.95418C10.6303 3.11334 12.3411 5.07326 12.3411 8.02377C12.3411 8.44833 12.2459 8.9129 12.1309 9.45655L12.1244 9.48745C12.0339 9.91513 11.9302 10.405 11.9099 10.8759C11.8885 11.3704 11.9538 11.918 12.2677 12.4237L12.2677 12.4237C12.8863 13.4204 13.8366 14.0033 14.9891 14.0172L14.9903 14.0172C15.8179 14.0258 16.6061 13.7254 17.2068 13.1611L17.2069 13.1611C17.533 12.8547 17.7855 12.4828 17.9477 12.0758C19.1809 14.1851 19.6164 16.9092 19.0076 19.0899L19.0076 19.0899C17.9278 22.9574 14.2887 25.6801 10.141 25.6801C5.07965 25.6801 1.04027 21.8133 1.04027 17.1567C1.04027 13.0904 3.24022 10.8464 5.38076 8.68851C5.40762 8.66144 5.43452 8.63433 5.46146 8.60718ZM14.9982 13.2572C14.129 13.2468 13.4081 12.8199 12.9134 12.0229L14.9982 13.2572ZM14.9528 18.5337C14.9521 18.5344 14.9513 18.5351 14.9505 18.5357C14.9513 18.5351 14.952 18.5345 14.9527 18.5338L14.9528 18.5337Z" stroke="white" stroke-width="1.52"/>
</svg>
