<svg width="20" height="24" viewBox="0 0 20 24" fill="none" xmlns="http://www.w3.org/2000/svg">
<g id="Vector">
<path d="M19.6425 16.9755L17.7323 15.8183L19.2387 15.3947C19.62 15.2875 19.8463 14.8763 19.7441 14.4762C19.6419 14.0761 19.2501 13.8386 18.8687 13.9459L15.9815 14.7577L13.8097 13.442V10.558L15.9815 9.24234C19.1219 10.1253 18.9201 10.0799 19.0541 10.0799C19.3697 10.0799 19.6585 9.85884 19.7441 9.52378C19.8463 9.12366 19.62 8.71242 19.2387 8.60522L17.7323 8.18166L19.6425 7.02445C19.9844 6.81736 20.1015 6.35864 19.9041 5.99995C19.7067 5.64122 19.2696 5.51841 18.9278 5.72545L17.0175 6.8827L17.4212 5.30194C17.5233 4.90181 17.2971 4.49058 16.9157 4.38338C16.5346 4.27608 16.1425 4.51359 16.0403 4.91367L15.2667 7.9433L13.0949 9.25894L10.7148 7.81687V5.18564L12.8283 2.96784C13.1075 2.67497 13.1075 2.20008 12.8283 1.9072C12.5492 1.61428 12.0967 1.61428 11.8175 1.9072L10.7148 3.06436V0.75C10.7148 0.335812 10.3948 0 10 0C9.60523 0 9.28524 0.335812 9.28524 0.75V3.06436L8.18242 1.9072C7.9033 1.61428 7.45073 1.61428 7.17162 1.9072C6.89246 2.20008 6.89246 2.67497 7.17162 2.96784L9.28524 5.18564V7.81687L6.90505 9.25898L4.73331 7.94334L3.95967 4.91372C3.85751 4.51364 3.46569 4.27617 3.08427 4.38342C2.70295 4.49062 2.47664 4.90186 2.57885 5.30198L2.98251 6.88275L1.07223 5.7255C0.730442 5.51836 0.293189 5.64127 0.0958711 6C-0.101491 6.35873 0.0156397 6.81741 0.357473 7.0245L2.26766 8.1817L0.761311 8.60527C0.379987 8.71247 0.153677 9.1237 0.255888 9.52383C0.34148 9.85889 0.630242 10.0799 0.945852 10.0799C1.08009 10.0799 0.882819 10.124 4.01851 9.24239L6.19034 10.5581V13.442L4.01851 14.7577L1.13129 13.9459C0.750187 13.8386 0.358098 14.0761 0.255888 14.4762C0.153722 14.8763 0.379987 15.2876 0.761311 15.3948L2.26766 15.8183L0.357473 16.9755C-0.27339 17.3578 -0.0144248 18.3752 0.715521 18.3752C0.970467 18.3752 0.877369 18.3926 2.98251 17.1173L2.57885 18.6981C2.47668 19.0982 2.70295 19.5095 3.08427 19.6167C3.46636 19.7243 3.85773 19.4854 3.95967 19.0864L4.73331 16.0568L6.90505 14.7411L9.28524 16.1831V18.8144L7.17166 21.0322C6.8925 21.325 6.8925 21.7999 7.17166 22.0928C7.45077 22.3857 7.90335 22.3857 8.18246 22.0928L9.28524 20.9356V23.25C9.28524 23.6642 9.60523 24 10 24C10.3948 24 10.7148 23.6642 10.7148 23.25V20.9356L11.8176 22.0928C11.9571 22.2393 12.14 22.3125 12.323 22.3125C12.954 22.3125 13.28 21.506 12.8283 21.0322L10.7148 18.8144V16.1831L13.0949 14.741L15.2667 16.0567L16.0403 19.0863C16.1259 19.4213 16.4147 19.6424 16.7303 19.6424C17.2002 19.6424 17.5427 19.1742 17.4212 18.6981L17.0175 17.1173L18.9278 18.2745C19.2674 18.4803 19.7056 18.361 19.9041 18C20.1015 17.6413 19.9844 17.1826 19.6425 16.9755Z" fill="white"/>
<path d="M3.92456 12C3.92456 11.3798 3.44344 10.875 2.85242 10.875C2.26141 10.875 1.78029 11.3798 1.78029 12C1.78029 12.6202 2.26141 13.125 2.85242 13.125C3.44344 13.125 3.92456 12.6202 3.92456 12Z" fill="white"/>
<path d="M16.0754 12C16.0754 12.6202 16.5566 13.125 17.1476 13.125C17.7386 13.125 18.2197 12.6202 18.2197 12C18.2197 11.3798 17.7386 10.875 17.1476 10.875C16.5566 10.875 16.0754 11.3798 16.0754 12Z" fill="white"/>
<path d="M7.27722 17.8102C6.8145 17.1757 5.87902 17.2392 5.49792 17.9325C5.0189 18.8016 5.78619 19.8378 6.70363 19.582C7.43831 19.3753 7.7432 18.4492 7.27722 17.8102Z" fill="white"/>
<path d="M12.6455 4.94203C12.3493 5.48034 12.524 6.16725 13.0377 6.47906C13.5482 6.78881 14.2061 6.60544 14.5021 6.0675C14.7976 5.53134 14.625 4.84308 14.1099 4.53047C13.5923 4.21734 12.939 4.40794 12.6455 4.94203Z" fill="white"/>
<path d="M12.5383 18.2039C12.3852 18.8038 12.7233 19.4208 13.2964 19.582C14.214 19.8379 14.9809 18.8012 14.5021 17.9325C14.026 17.0672 12.7851 17.2381 12.5383 18.2039Z" fill="white"/>
<path d="M6.428 6.62953C6.89715 6.62953 7.33221 6.30291 7.46172 5.79609C7.61481 5.19619 7.27668 4.57922 6.70363 4.41797C6.13298 4.25737 5.54447 4.6118 5.39071 5.21344C5.20804 5.92931 5.72222 6.62953 6.428 6.62953Z" fill="white"/>
</g>
</svg>
