<svg width="18" height="18" viewBox="0 0 18 18" fill="none" xmlns="http://www.w3.org/2000/svg">
<g id="Vector">
<path d="M17.7085 5.36421L9.23586 1.1103C9.08754 1.03616 8.91246 1.03616 8.76414 1.1103L0.29148 5.36421C0.112781 5.45382 0 5.63611 0 5.83594C0 6.03577 0.112781 6.21805 0.29148 6.30766L8.76414 10.5264C8.83828 10.5635 8.91914 10.582 9 10.582C9.08086 10.582 9.16172 10.5635 9.23586 10.5264L17.7085 6.30766C17.8872 6.21805 18 6.03577 18 5.83594C18 5.63611 17.8872 5.45382 17.7085 5.36421Z" fill="white"/>
<path d="M0.527344 3.19922C0.818824 3.19922 1.05469 2.96336 1.05469 2.67188V1.05469H2.63672C2.9282 1.05469 3.16406 0.818824 3.16406 0.527344C3.16406 0.235863 2.9282 0 2.63672 0H0.527344C0.235863 0 0 0.235863 0 0.527344V2.67188C0 2.96336 0.235863 3.19922 0.527344 3.19922Z" fill="white"/>
<path d="M17.4727 0H15.3633C15.0718 0 14.8359 0.235863 14.8359 0.527344C14.8359 0.818824 15.0718 1.05469 15.3633 1.05469H16.9453V2.67188C16.9453 2.96336 17.1812 3.19922 17.4727 3.19922C17.7641 3.19922 18 2.96336 18 2.67188V0.527344C18 0.235863 17.7641 0 17.4727 0Z" fill="white"/>
<path d="M17.4727 14.8008C17.1812 14.8008 16.9453 15.0366 16.9453 15.3281V16.9453H15.3633C15.0718 16.9453 14.8359 17.1812 14.8359 17.4727C14.8359 17.7641 15.0718 18 15.3633 18H17.4727C17.7641 18 18 17.7641 18 17.4727V15.3281C18 15.0366 17.7641 14.8008 17.4727 14.8008Z" fill="white"/>
<path d="M0.527344 18H2.63672C2.9282 18 3.16406 17.7641 3.16406 17.4727C3.16406 17.1812 2.9282 16.9453 2.63672 16.9453H1.05469V15.3281C1.05469 15.0366 0.818824 14.8008 0.527344 14.8008C0.235863 14.8008 0 15.0366 0 15.3281V17.4727C0 17.7641 0.235863 18 0.527344 18Z" fill="white"/>
<path d="M17.7085 11.6923L16.6672 11.1717L9.70759 14.6339C9.48923 14.7431 9.24462 14.8008 9 14.8008C8.75538 14.8008 8.51077 14.7431 8.29241 14.6339L1.33277 11.1717L0.29148 11.6923C0.112781 11.7819 0 11.9642 0 12.1641C0 12.3639 0.112781 12.5462 0.29148 12.6358L8.76414 16.8897C8.83828 16.9268 8.91914 16.9453 9 16.9453C9.08086 16.9453 9.16172 16.9268 9.23586 16.8897L17.7085 12.6358C17.8872 12.5462 18 12.3639 18 12.1641C18 11.9642 17.8872 11.7819 17.7085 11.6923Z" fill="white"/>
<path d="M17.7085 8.52827L16.6672 8.00761L9.70759 11.4698C9.48923 11.579 9.24462 11.6367 9 11.6367C8.75538 11.6367 8.51077 11.579 8.29241 11.4699L1.33277 8.00761L0.29148 8.52827C0.112781 8.61789 0 8.80017 0 9C0 9.19983 0.112781 9.38211 0.29148 9.47173L8.76414 13.6905C8.83828 13.7276 8.91914 13.7461 9 13.7461C9.08086 13.7461 9.16172 13.7276 9.23586 13.6905L17.7085 9.47173C17.8872 9.38211 18 9.19983 18 9C18 8.80017 17.8872 8.61789 17.7085 8.52827Z" fill="white"/>
</g>
</svg>
