<svg width="16" height="20" viewBox="0 0 16 20" fill="none" xmlns="http://www.w3.org/2000/svg">
<path id="Vector" d="M3.57582 0.77429C3.65913 0.552626 3.60749 0.295408 3.44866 0.137076C3.28886 -0.0218104 3.0589 -0.044588 2.87765 0.0792993C0.175603 1.92761 -0.82171 6.67921 0.743687 10.2481C2.19995 13.5686 3.07887 15.5724 1.70641 19.2252C1.6231 19.4468 1.67474 19.704 1.83357 19.8624C1.99337 20.0213 2.22334 20.044 2.40458 19.9201C5.10565 18.0718 6.10297 13.3202 4.53806 9.74973C3.08228 6.42977 2.20336 4.42591 3.57582 0.77429ZM8.9351 0.77429C9.01841 0.552626 8.96677 0.295408 8.80794 0.137076C8.64814 -0.0218104 8.41817 -0.044588 8.23693 0.0792993C5.53537 1.92761 4.53806 6.67977 6.10297 10.2486C7.55923 13.5691 8.43815 15.573 7.06569 19.2257C6.98238 19.4474 7.03402 19.7046 7.19285 19.8629C7.35265 20.0218 7.58261 20.0446 7.76385 19.9207C10.4649 18.0724 11.4622 13.3208 9.89734 9.75028C8.44156 6.42977 7.56264 4.42591 8.9351 0.77429ZM15.2566 9.75028C13.8008 6.42977 12.9219 4.42591 14.2944 0.77429C14.3777 0.552626 14.326 0.295408 14.1672 0.137076C14.0074 -0.0218104 13.7775 -0.044588 13.5962 0.0792993C10.8946 1.92761 9.89734 6.67977 11.4622 10.2486C12.9185 13.5691 13.7974 15.573 12.425 19.2257C12.3417 19.4474 12.3933 19.7046 12.5521 19.8629C12.7119 20.0218 12.9419 20.0446 13.1231 19.9207C15.8242 18.0724 16.8215 13.3202 15.2566 9.75028Z" fill="white"/>
</svg>
