<svg width="41" height="49" viewBox="0 0 41 49" fill="none" xmlns="http://www.w3.org/2000/svg">
<g id="Vector">
<path d="M20.1899 23.6034C23.4421 23.6034 26.2582 22.4403 28.5591 20.1457C30.86 17.8515 32.0264 15.0443 32.0264 11.8013C32.0264 8.55938 30.86 5.75186 28.5587 3.45688C26.2574 1.16301 23.4417 0 20.1899 0C16.9374 0 14.1221 1.16301 11.8211 3.45725C9.5202 5.75149 8.35342 8.55901 8.35342 11.8013C8.35342 15.0443 9.5202 17.8519 11.8215 20.1461C14.1228 22.44 16.9385 23.6034 20.1899 23.6034Z" fill="white"/>
<path d="M40.9006 37.6783C40.8343 36.7236 40.7001 35.682 40.5025 34.5822C40.303 33.4742 40.0462 32.4267 39.7387 31.4693C39.4212 30.4797 38.9893 29.5025 38.4554 28.566C37.9012 27.5941 37.2503 26.7477 36.52 26.0512C35.7562 25.3226 34.8212 24.7368 33.7399 24.3095C32.6623 23.8845 31.4682 23.6691 30.1908 23.6691C29.6891 23.6691 29.204 23.8744 28.267 24.4826C27.6904 24.8576 27.0159 25.2912 26.263 25.7709C25.6193 26.1798 24.7472 26.563 23.67 26.9099C22.6191 27.249 21.5521 27.421 20.4989 27.421C19.4457 27.421 18.379 27.249 17.327 26.9099C16.2509 26.5634 15.3788 26.1802 14.7358 25.7712C13.9901 25.2961 13.3152 24.8624 12.73 24.4822C11.7941 23.874 11.3086 23.6688 10.807 23.6688C9.5292 23.6688 8.33542 23.8845 7.25825 24.3099C6.17771 24.7365 5.24226 25.3223 4.47778 26.0516C3.74779 26.7484 3.09654 27.5944 2.54314 28.566C2.00962 29.5025 1.5777 30.4793 1.25976 31.4696C0.952695 32.427 0.695868 33.4742 0.496406 34.5822C0.298818 35.6805 0.164594 36.7224 0.0982315 37.6795C0.0329938 38.617 0 39.5901 0 40.573C0 43.1308 0.815471 45.2014 2.42354 46.7286C4.01174 48.2355 6.11322 49 8.66874 49H32.3313C34.8868 49 36.9875 48.2359 38.5761 46.7286C40.1845 45.2026 41 43.1315 41 40.5726C40.9996 39.5853 40.9663 38.6114 40.9006 37.6783Z" fill="white"/>
</g>
</svg>
