<svg width="28" height="48" viewBox="0 0 28 48" fill="none" xmlns="http://www.w3.org/2000/svg">
<path id="Vector" d="M9.24771 47.8861C9.87985 48.1575 10.6148 47.9309 10.9841 47.3451L27.7839 20.5325C28.0559 20.0986 28.0724 19.5506 27.8262 19.103C27.5801 18.6539 27.1098 18.3751 26.5999 18.3751H15.3877L19.5576 1.75235C19.7257 1.08082 19.3853 0.387257 18.7523 0.113975C18.1234 -0.1579 17.3838 0.0700066 17.0159 0.655007L0.21613 27.4675C-0.0559339 27.9015 -0.0723606 28.4495 0.173757 28.8971C0.419874 29.3462 0.890175 29.625 1.40014 29.625H12.6123L8.44244 46.2477C8.27425 46.9193 8.61463 47.6128 9.24771 47.8861Z" fill="white"/>
</svg>
