<svg width="38" height="38" viewBox="0 0 38 38" fill="none" xmlns="http://www.w3.org/2000/svg">
<path d="M36.3725 4.77603C35.9376 4.34118 35.2331 4.34118 34.7982 4.77603L31.6497 7.92453C31.2149 8.35938 30.5103 8.35938 30.0755 7.92453C29.6417 7.49072 29.6417 6.78409 30.0755 6.35028L33.224 3.20178C33.6588 2.76693 33.6588 2.06238 33.224 1.62753C31.0529 -0.543586 27.5206 -0.541434 25.3517 1.62753L21.6984 5.28079C21.0678 5.91135 20.7071 6.75069 20.7071 7.6422V11.9855C20.7071 12.3139 20.5635 12.6226 20.3037 12.8423L2.00184 28.6557C-0.282318 30.5898 -0.649849 33.9405 1.18209 36.1257C3.28946 38.6409 7.09622 38.5959 9.15549 36.1638L25.1655 17.6737C25.3774 17.4236 25.6862 17.2801 26.0145 17.2801H30.3579C31.2494 17.2801 32.0887 16.9321 32.7192 16.3016L36.3725 12.6483C38.5425 10.4783 38.5425 6.94603 36.3725 4.77603ZM6.22407 33.3246C5.7893 33.7594 5.08444 33.7594 4.64967 33.3246C4.2149 32.8899 4.2149 32.185 4.64967 31.7503C5.08444 31.3155 5.7893 31.3155 6.22407 31.7503C6.65885 32.185 6.65885 32.8899 6.22407 33.3246Z" fill="white"/>
<path d="M35.2131 25.5497L26.7453 19.5067H26.5234L19.4144 27.7289L25.5676 35.2375C28.0929 38.6031 33.0073 38.946 35.9763 35.9769C38.9483 33.0049 38.6074 28.0976 35.2131 25.5497Z" fill="white"/>
<path d="M13.1813 8.45876L11.6897 3.9839C11.5974 3.70439 11.3962 3.47283 11.132 3.3402L4.75989 0.11785C4.33038 -0.0962707 3.81293 -0.0136654 3.47479 0.326627L0.326276 3.47513C-0.0129035 3.81431 -0.0966223 4.33183 0.117499 4.76015L3.34008 11.132C3.47271 11.3963 3.70427 11.5974 3.9837 11.6898L8.45858 13.1814L12.1976 16.9204L17.2626 12.54L13.1813 8.45876Z" fill="white"/>
</svg>
