<svg width="36" height="44" viewBox="0 0 36 44" fill="none" xmlns="http://www.w3.org/2000/svg">
<path d="M35.1086 5.23213L18.3597 0.0543984C18.1252 -0.0181328 17.8752 -0.0181328 17.6406 0.0543984L0.891443 5.23213C0.362365 5.39567 0 5.89755 0 6.4668V25.4518C0 27.9211 0.970171 30.4489 2.88341 32.9649C4.34463 34.8864 6.36629 36.816 8.892 38.7C13.135 41.8649 17.3132 43.8064 17.489 43.8874C17.6516 43.9624 17.8259 44 18.0002 44C18.1745 44 18.3488 43.9625 18.5113 43.8874C18.687 43.8064 22.8651 41.8649 27.1082 38.7C29.6339 36.816 31.6555 34.8864 33.1168 32.9649C35.03 30.4489 36 27.9212 36 25.4518V6.4668C36 5.89755 35.6378 5.39567 35.1086 5.23213Z" fill="white"/>
</svg>
