<svg width="39" height="35" viewBox="0 0 39 35" fill="none" xmlns="http://www.w3.org/2000/svg">
<path d="M38.3687 15.9703L23.8097 1.28159C23.0245 0.48949 21.9416 0 20.7456 0C18.8587 0 17.3332 1.5382 17.3332 3.44399V12.2343L6.4765 1.28159C5.69195 0.48949 4.60843 0 3.41306 0C1.52556 0 0 1.5382 0 3.44399V31.5587C0 33.4591 1.5281 35 3.41306 35H3.44036C4.63572 35 5.71924 34.5131 6.50443 33.7184L17.3332 22.7939V31.5587C17.3332 33.4591 18.8606 35 20.7456 35H20.7735C21.9689 35 23.0524 34.5131 23.837 33.7184L38.3687 19.0592C39.2104 18.2114 39.2104 16.8189 38.3687 15.9703Z" fill="white"/>
</svg>
