<svg width="68" height="68" viewBox="0 0 68 68" fill="none" xmlns="http://www.w3.org/2000/svg">
<path d="M53.9282 36.0007L42.6026 35.1771L51.6848 36.6804L52.8305 36.8722C51.9244 39.3211 50.4564 41.7396 48.4701 44.3236C47.4072 45.6963 46.8845 48.0886 46.9934 49.8229C47.172 52.6074 48.065 56.002 48.579 57.7799C48.6205 57.9223 48.6282 58.0724 48.6014 58.2183C48.5747 58.3642 48.5144 58.5019 48.4251 58.6204C48.3359 58.7388 48.2202 58.8348 48.0874 58.9007C47.9545 58.9666 47.8082 59.0006 47.6599 59H42.6418L39.3399 51.8797L40.7425 57.9498H30.6714C30.4471 57.9493 30.2301 57.8701 30.0582 57.7259C29.8863 57.5818 29.7703 57.3819 29.7305 57.1611C29.443 55.5139 28.7069 51.7969 27.7921 50.9428C26.3546 49.6094 23.0005 50.4068 20.9401 50.4896C15.7695 50.7598 17.3595 46.4327 16.2487 42.6373C15.3775 39.648 12.8946 40.306 13.0035 38.1969C13.0732 36.907 16.571 35.2468 16.5798 31.203C16.5841 30.0656 16.375 28.3226 16.3402 27.1417C16.2333 23.811 17.4091 20.5664 19.6246 18.0779L20.3521 18.5224L27.4306 22.832L21.6894 17.0277L21.0534 16.3872C23.7802 13.2628 27.962 11.1581 32.7101 10.6221L31.4294 13.143L35.132 17.0648L33.9276 24.2657C33.9225 24.2979 33.9275 24.3309 33.9418 24.3602C33.9562 24.3895 33.9792 24.4137 34.0078 24.4294C34.0363 24.4451 34.0691 24.4516 34.1015 24.4481C34.1339 24.4445 34.1644 24.431 34.1889 24.4095L44.6608 15.812L41.6987 11.4065C46.3073 12.7573 49.8967 15.5897 51.9658 19.8863L45.2205 26.0174L53.1005 21.7557C53.9393 23.5285 54.5062 25.4177 54.782 27.3596C55.2526 30.2652 54.9584 33.2434 53.9282 36.0007Z" fill="white"/>
<path d="M34.763 23.3218C34.7334 23.3511 34.6948 23.3697 34.6534 23.3745C34.612 23.3793 34.5701 23.3702 34.5345 23.3485C34.4989 23.3268 34.4716 23.2938 34.4569 23.2548C34.4422 23.2158 34.4409 23.173 34.4533 23.1331C34.9582 21.5134 36.2062 17.599 36.87 16.3275C36.8941 16.2795 36.9015 16.2248 36.891 16.1722C36.8805 16.1195 36.8528 16.0719 36.8121 16.0368L34.1885 13.6916C33.9678 13.4941 33.8191 13.2288 33.7655 12.9375C33.712 12.6462 33.7567 12.3454 33.8927 12.0823L36.7598 6.53032C36.8425 6.37049 36.9674 6.23648 37.1211 6.14294C37.2748 6.04941 37.4512 5.99996 37.631 6H41.6028C41.7792 6.00004 41.9523 6.04769 42.1038 6.13793C42.2553 6.22818 42.3797 6.35767 42.4638 6.51273C42.5479 6.6678 42.5886 6.8427 42.5815 7.01898C42.5745 7.19525 42.5201 7.36636 42.424 7.51426L39.549 11.9394C39.5167 11.9899 39.5037 12.0504 39.5123 12.1098C39.5209 12.1692 39.5507 12.2235 39.596 12.2627L41.815 14.1949C41.951 14.3122 42.062 14.4558 42.1412 14.6171C42.2204 14.7784 42.2662 14.9541 42.2759 15.1335C42.2857 15.3128 42.2587 15.4923 42.1965 15.6608C42.1344 15.8293 42.0383 15.9832 41.9143 16.1131C40.5016 17.6221 36.2598 21.8381 34.763 23.3218Z" fill="white"/>
<circle cx="34" cy="34" r="32" stroke="#6B948D" stroke-width="4"/>
<rect x="61.457" y="15.9741" width="4" height="64.1042" transform="rotate(60 61.457 15.9741)" fill="#6B948D"/>
</svg>
