<svg width="55" height="55" viewBox="0 0 55 55" fill="none" xmlns="http://www.w3.org/2000/svg">
<path id="Vector" d="M54.1352 26.8984C54.5676 26.8984 55 26.4688 55 26.0391V21.6563C55 21.1406 54.5676 20.7969 54.1352 20.7969H49.7248C49.2924 20.7969 48.8601 21.1406 48.8601 21.6563V23.0312H44.7091L31.3915 14.7813C32.5157 13.75 33.2075 12.2891 33.2075 10.6562C33.2075 9.45312 32.5157 7.82031 30.9591 5.75781V0.859375C30.9591 0.34375 30.5267 0 30.0943 0C29.662 0 29.2296 0.34375 29.2296 0.859375V5.15625H25.7704V0.859375C25.7704 0.34375 25.4245 0 24.9057 0C24.4733 0 24.0409 0.34375 24.0409 0.859375V5.75781C22.5708 7.82031 21.8789 9.45312 21.8789 10.6562C21.8789 12.2891 22.5708 13.75 23.6085 14.7813L10.2909 23.0312H6.13994V21.6563C6.13994 21.1406 5.70755 20.7969 5.27516 20.7969H0.86478C0.345912 20.7969 0 21.1406 0 21.6563V26.0391C0 26.4688 0.345912 26.8984 0.86478 26.8984H2.16195V48.8984H0.86478C0.345912 48.8984 0 49.2422 0 49.7578V54.1406C0 54.6563 0.345912 55 0.86478 55H5.27516C5.70755 55 6.13994 54.6563 6.13994 54.1406V52.8516H48.8601V54.1406C48.8601 54.6563 49.2924 55 49.7248 55H54.1352C54.5676 55 55 54.6563 55 54.1406V49.7578C55 49.2422 54.5676 48.8984 54.1352 48.8984H52.7516V26.8984H54.1352ZM27.0676 9.88281H27.9324C28.4513 9.88281 28.7972 10.2266 28.7972 10.7422C28.7972 11.2578 28.4513 11.6016 27.9324 11.6016H27.0676C26.5487 11.6016 26.2028 11.2578 26.2028 10.7422C26.2028 10.2266 26.5487 9.88281 27.0676 9.88281ZM12.0204 46.4922C12.0204 47.0078 11.5881 47.3516 11.1557 47.3516C10.6368 47.3516 10.2909 47.0078 10.2909 46.4922V29.3906C10.2909 28.9609 10.6368 28.5312 11.1557 28.5312C11.5881 28.5312 12.0204 28.9609 12.0204 29.3906V46.4922ZM20.2358 46.4922C20.2358 47.0078 19.8899 47.3516 19.3711 47.3516C18.8522 47.3516 18.5063 47.0078 18.5063 46.4922V29.3906C18.5063 28.9609 18.8522 28.5312 19.3711 28.5312C19.8899 28.5312 20.2358 28.9609 20.2358 29.3906V46.4922ZM28.3648 46.4922C28.3648 47.0078 28.0189 47.3516 27.5 47.3516C27.0676 47.3516 26.6352 47.0078 26.6352 46.4922V29.3906C26.6352 28.9609 27.0676 28.5312 27.5 28.5312C28.0189 28.5312 28.3648 28.9609 28.3648 29.3906V46.4922ZM36.4937 46.4922C36.4937 47.0078 36.0613 47.3516 35.6289 47.3516C35.1101 47.3516 34.7642 47.0078 34.7642 46.4922V29.3906C34.7642 28.9609 35.1101 28.5312 35.6289 28.5312C36.0613 28.5312 36.4937 28.9609 36.4937 29.3906V46.4922ZM13.577 23.0312L25.1651 15.8125C25.8569 16.1562 26.6352 16.3281 27.5 16.3281C28.3648 16.3281 29.1431 16.1562 29.8349 15.8125L41.423 23.0312H13.577ZM44.7091 46.4922C44.7091 47.0078 44.3632 47.3516 43.8443 47.3516C43.4119 47.3516 42.9796 47.0078 42.9796 46.4922V29.3906C42.9796 28.9609 43.4119 28.5312 43.8443 28.5312C44.3632 28.5312 44.7091 28.9609 44.7091 29.3906V46.4922Z" fill="white"/>
</svg>
