<svg width="47" height="45" viewBox="0 0 47 45" fill="none" xmlns="http://www.w3.org/2000/svg">
<g id="Vector">
<path d="M2.35 42.6316C2.35 44.0526 3.29 45 4.7 45H42.3C43.71 45 44.65 44.0526 44.65 42.6316V23.6842H2.35V42.6316ZM30.55 28.4211H35.25V33.1579H30.55V28.4211ZM11.75 28.4211H16.45V33.1579H11.75V28.4211Z" fill="white"/>
<path d="M44.65 9.47368H35.25V2.36842C35.25 1.18421 34.075 0 32.9 0H14.1C12.925 0 11.75 1.18421 11.75 2.36842V9.47368H2.35C0.94 9.47368 0 10.4211 0 11.8421V18.9474H47V11.8421C47 10.4211 46.06 9.47368 44.65 9.47368ZM30.55 9.47368H16.45V4.73684H30.55V9.47368Z" fill="white"/>
</g>
</svg>
