<svg width="42" height="42" viewBox="0 0 42 42" fill="none" xmlns="http://www.w3.org/2000/svg">
<g id="Vector">
<path d="M38.3085 10.8281H41.9999V2.57244C41.9999 2.07451 41.7005 1.6258 41.2403 1.43549C40.7809 1.24518 40.251 1.35018 39.8991 1.70209L1.70225 39.8992C1.35034 40.2511 1.24534 40.781 1.43565 41.2404C1.62596 41.7006 2.07467 42 2.5726 42H10.8282V38.7187C10.8282 38.0395 11.3795 37.4883 12.0587 37.4883C12.7379 37.4883 13.2891 38.0395 13.2891 38.7187V42H16.5704V38.7187C16.5704 38.0395 17.1216 37.4883 17.8008 37.4883C18.4801 37.4883 19.0313 38.0395 19.0313 38.7187V42H22.3126V38.7187C22.3126 38.0395 22.8638 37.4883 23.543 37.4883C24.2222 37.4883 24.7735 38.0395 24.7735 38.7187V42H28.0547V38.7187C28.0547 38.0395 28.606 37.4883 29.2852 37.4883C29.9644 37.4883 30.5157 38.0395 30.5157 38.7187V42H33.7969V38.7187C33.7969 38.0395 34.3481 37.4883 35.0274 37.4883C35.7066 37.4883 36.2578 38.0395 36.2578 38.7187V42H40.7695C41.4488 42 42 41.4487 42 40.7695V36.2578H38.7188C38.0395 36.2578 37.4883 35.7066 37.4883 35.0273C37.4883 34.3481 38.0395 33.7969 38.7188 33.7969H42V30.5156H38.7188C38.0395 30.5156 37.4883 29.9644 37.4883 29.2852C37.4883 28.6059 38.0395 28.0547 38.7188 28.0547H42V24.7734H38.7188C38.0395 24.7734 37.4883 24.2222 37.4883 23.543C37.4883 22.8638 38.0395 22.3125 38.7188 22.3125H42V19.0313H38.7188C38.0395 19.0313 37.4883 18.48 37.4883 17.8008C37.4883 17.1216 38.0395 16.5703 38.7188 16.5703H42V13.2891H38.3086C37.6294 13.2891 37.0781 12.7378 37.0781 12.0586C37.0781 11.3794 37.6293 10.8281 38.3085 10.8281ZM34.6171 33.3867C34.6171 34.0659 34.0659 34.6172 33.3867 34.6172H20.3962C19.8983 34.6172 19.4496 34.3178 19.2593 33.8576C19.069 33.3982 19.174 32.8683 19.5259 32.5164L32.5163 19.5259C32.8682 19.174 33.3981 19.069 33.8575 19.2593C34.3177 19.4496 34.6171 19.8983 34.6171 20.3963V33.3867Z" fill="white"/>
<path d="M3.79732 23.8235L9.01778 29.044L5.58068 32.4803C5.09915 32.9618 4.31986 32.9593 3.8408 32.4803L0.360221 28.9997C-0.122122 28.5173 -0.118021 27.7381 0.360221 27.2598L3.79732 23.8235Z" fill="white"/>
<path d="M28.5911 9.13174C28.706 9.13174 28.8225 9.12846 28.9398 9.12189L10.7577 27.3041L5.5372 22.0836L23.4798 4.14096C23.5068 5.53467 24.0039 6.76842 24.9227 7.68799C25.8693 8.63373 27.1474 9.13174 28.5911 9.13174Z" fill="white"/>
<path d="M32.7222 1.75787L30.6189 6.19084C29.1153 6.87662 27.5559 6.84052 26.6626 5.9472C25.8529 5.13756 25.7479 3.77994 26.2467 2.41248L31.0824 0.118887C31.5524 -0.104237 32.1127 -0.00744063 32.4802 0.360059C32.8477 0.728379 32.9445 1.28783 32.7222 1.75787Z" fill="white"/>
</g>
</svg>
