<svg width="56" height="56" viewBox="0 0 56 56" fill="none" xmlns="http://www.w3.org/2000/svg">
<path id="Soft Star" d="M27.2528 0.663772C27.3579 -0.221257 28.6421 -0.221257 28.7472 0.663772L29.6282 8.08837C30.7657 17.6755 38.3245 25.2343 47.9116 26.3718L55.3361 27.2528C56.2213 27.3579 56.2213 28.6421 55.3361 28.7472L47.9116 29.6282C38.3245 30.7657 30.7657 38.3245 29.6282 47.9116L28.7472 55.3361C28.6421 56.2213 27.3579 56.2213 27.2528 55.3361L26.3718 47.9116C25.2343 38.3245 17.6755 30.7657 8.08837 29.6282L0.663772 28.7472C-0.221257 28.6421 -0.221257 27.3579 0.663772 27.2528L8.08837 26.3718C17.6755 25.2343 25.2343 17.6755 26.3718 8.08837L27.2528 0.663772Z" fill="white"/>
</svg>
