<svg width="40" height="40" viewBox="0 0 40 40" fill="none" xmlns="http://www.w3.org/2000/svg">
<path id="Vector" d="M20 0C8.94602 0 0 8.945 0 20C0 31.0538 8.945 40 20 40C31.054 40 40 31.055 40 20C40 8.94602 31.055 0 20 0ZM19.4082 29.3609C18.2762 29.3609 17.4074 28.4131 17.4074 27.3337C17.4074 26.228 18.3025 25.3066 19.4082 25.3066C20.514 25.3066 21.4352 26.228 21.4352 27.3337C21.4352 28.413 20.5402 29.3609 19.4082 29.3609ZM22.4093 19.12C20.9614 20.252 20.935 21.0418 20.935 22.4107C20.935 22.911 20.6717 23.4902 19.3818 23.4902C18.3023 23.4902 17.9339 23.0952 17.9339 21.7263C17.9339 19.4623 18.9343 18.3829 19.6977 17.7248C20.5665 16.9876 22.0408 16.1716 22.0408 14.75C22.0408 13.5389 20.9877 12.9598 19.6714 12.9598C16.9862 12.9598 17.5654 14.987 16.1437 14.987C15.4329 14.987 14.5641 14.513 14.5641 13.4863C14.5641 12.0648 16.1963 9.95859 19.7504 9.95859C23.1201 9.95859 25.3578 11.8278 25.3578 14.3024C25.3578 16.777 23.1201 18.5672 22.4093 19.12Z" fill="white"/>
</svg>
