<svg width="40" height="46" viewBox="0 0 40 46" fill="none" xmlns="http://www.w3.org/2000/svg">
<g id="Vector">
<path d="M20 0C12.0031 0 5.33333 6.51098 5.33333 14.8242C5.33333 17.9869 6.2736 20.8071 8.07813 23.4498L18.8776 40.4823C19.4015 41.3103 20.5996 41.3087 21.1224 40.4823L31.9687 23.3918C33.7344 20.8689 34.6667 17.9065 34.6667 14.8242C34.6667 6.65014 28.0872 0 20 0ZM20 21.5625C16.3242 21.5625 13.3333 18.5395 13.3333 14.8242C13.3333 11.1089 16.3242 8.08594 20 8.08594C23.6758 8.08594 26.6667 11.1089 26.6667 14.8242C26.6667 18.5395 23.6758 21.5625 20 21.5625Z" fill="white"/>
<path d="M30.4235 30.9687L23.7096 41.5781C21.9717 44.3167 18.0186 44.3077 16.2891 41.5807L9.56427 30.9715C3.64747 32.3542 0 34.8871 0 37.9141C0 43.1665 10.3047 46 20 46C29.6953 46 40 43.1665 40 37.9141C40 34.885 36.3475 32.3507 30.4235 30.9687Z" fill="white"/>
</g>
</svg>
