<svg width="48" height="49" viewBox="0 0 48 49" fill="none" xmlns="http://www.w3.org/2000/svg">
<rect x="0.0908203" y="0.544922" width="47.9135" height="47.9135" rx="23.9568" fill="#192422"/>
<path d="M24.0477 12.5225C21.6786 12.5225 19.3627 13.225 17.3929 14.5412C15.4231 15.8574 13.8878 17.7281 12.9811 19.9169C12.0745 22.1057 11.8373 24.5141 12.2995 26.8377C12.7617 29.1613 13.9025 31.2956 15.5777 32.9708C17.2529 34.646 19.3873 35.7869 21.7109 36.2491C24.0344 36.7112 26.4429 36.474 28.6316 35.5674C30.8204 34.6608 32.6912 33.1255 34.0074 31.1557C35.3236 29.1858 36.0261 26.8699 36.0261 24.5008C36.0226 21.325 34.7595 18.2803 32.5139 16.0347C30.2682 13.7891 27.2235 12.526 24.0477 12.5225ZM22.1307 17.1603C22.2184 16.7676 22.4507 16.4224 22.7813 16.1931C23.1119 15.9639 23.5167 15.8674 23.9152 15.9229C24.2961 15.9875 24.6466 16.1715 24.9162 16.4483C25.1857 16.7251 25.3603 17.0804 25.4147 17.4629C25.4304 17.5607 25.4377 17.6644 25.4465 17.7944L25.4626 18.0115C25.4648 18.0374 25.4628 18.0635 25.4568 18.0887C25.445 18.1347 25.4357 18.1895 25.4245 18.2481C25.3954 18.4482 25.3417 18.644 25.2646 18.8309C25.1541 19.1495 24.9468 19.4257 24.6718 19.6209C24.3968 19.8161 24.0677 19.9205 23.7304 19.9197H23.7109C23.3632 19.9328 23.0215 19.8271 22.7419 19.6201C22.4623 19.413 22.2616 19.1169 22.1727 18.7806C22.0224 18.2526 22.0079 17.6953 22.1307 17.1603ZM26.8883 30.6C25.5511 31.5739 24.036 32.6779 22.1727 33.0612C22.0815 33.0777 21.9892 33.0865 21.8965 33.0876L21.8017 33.091H21.7562C21.5437 33.1023 21.3316 33.0631 21.1371 32.9768C20.9426 32.8905 20.7713 32.7594 20.6371 32.5943C20.5013 32.3899 20.4163 32.156 20.3893 31.9121C20.3622 31.6681 20.3939 31.4213 20.4816 31.1921C20.802 30.1449 21.1235 29.0981 21.4462 28.0518C21.8901 26.6085 22.3326 25.1646 22.7736 23.72C22.8064 23.6165 22.8229 23.5084 22.8225 23.3998C22.7196 23.3808 22.6136 23.3877 22.514 23.4199C22.355 23.4811 22.2004 23.553 22.051 23.635C21.8629 23.7404 21.6657 23.8287 21.4619 23.899C21.3273 23.9218 21.1894 23.9171 21.0567 23.8853C20.9239 23.8535 20.799 23.7951 20.6894 23.7137C20.6494 23.6842 20.617 23.6457 20.5949 23.6012C20.5728 23.5567 20.5616 23.5076 20.5623 23.458C20.5502 23.2436 20.6225 23.0331 20.7637 22.8713C22.2725 21.5771 23.594 20.9112 25.0495 20.7132C25.205 20.6912 25.3618 20.6803 25.5189 20.6805C25.7301 20.6548 25.9444 20.6794 26.1443 20.7523C26.3443 20.8252 26.5241 20.9443 26.6693 21.1C26.775 21.2813 26.8362 21.4851 26.8479 21.6947C26.8597 21.9042 26.8215 22.1136 26.7367 22.3056L26.2967 23.8036C25.696 25.8669 25.0982 27.9307 24.5034 29.9952C24.4866 30.0874 24.4852 30.1818 24.4995 30.2744C24.5719 30.2841 24.6455 30.2794 24.7161 30.2607C24.9507 30.1541 25.1781 30.0319 25.4059 29.9092C25.6338 29.7865 25.8513 29.6687 26.0806 29.563C26.1983 29.505 26.3293 29.479 26.4602 29.4876C26.5912 29.4962 26.7176 29.5391 26.8267 29.6119C26.9152 29.6849 26.9871 29.7759 27.0377 29.8788C27.0883 29.9818 27.1163 30.0943 27.12 30.2089C27.1129 30.2872 27.0884 30.3629 27.0483 30.4306C27.0082 30.4983 26.9536 30.5561 26.8883 30.6Z" fill="white"/>
</svg>
