<svg width="49" height="49" viewBox="0 0 49 49" fill="none" xmlns="http://www.w3.org/2000/svg">
<g id="like">
<rect x="0.988281" y="0.544922" width="47.9135" height="47.9135" rx="23.9568" fill="#192422"/>
<g id="Vector">
<path d="M13.6901 35.0021H16.4352C17.4947 35.0021 18.3567 34.1244 18.3567 33.0456V20.1888C18.3567 19.1099 17.4947 18.2323 16.4352 18.2323H13.6901C12.6305 18.2323 11.7686 19.1099 11.7686 20.1888V33.0456C11.7686 34.1244 12.6305 35.0021 13.6901 35.0021Z" fill="#68918A"/>
<path d="M25.8024 10.127C24.7044 10.127 24.1554 10.6859 24.1554 13.4809C24.1554 16.1372 21.6288 18.2748 20.0037 19.376V33.2256C21.7617 34.054 25.2808 35.2815 30.7435 35.2815H32.5003C34.6415 35.2815 36.4642 33.7164 36.8265 31.5698L38.0563 24.303C38.5175 21.5639 36.4532 19.0708 33.7301 19.0708H28.5474C28.5474 19.0708 29.371 17.3938 29.371 14.5989C29.371 11.2449 26.9004 10.127 25.8024 10.127Z" fill="#68918A"/>
</g>
</g>
</svg>
