<svg width="49" height="49" viewBox="0 0 49 49" fill="none" xmlns="http://www.w3.org/2000/svg">
<rect x="0.193359" y="0.544922" width="47.9135" height="47.9135" rx="23.9568" fill="#192422"/>
<path d="M15.9168 34.7202C16.0083 36.1892 16.9622 37.0784 18.4219 37.0784H29.7717C31.4337 37.0784 32.3105 36.2088 32.4117 34.5237C32.6814 29.984 33.3366 18.915 33.3848 18.011H14.9437C14.9437 18.2076 15.5892 29.4043 15.9168 34.7202Z" fill="#E82C2C"/>
<path d="M33.3655 13.5402C32.06 13.5304 30.7593 13.5206 29.4586 13.5451C29.3815 12.6313 28.63 11.9238 27.7291 11.9238H20.5704C19.6696 11.9238 18.9181 12.6313 18.8458 13.5451C17.5065 13.5206 16.1625 13.5304 14.8232 13.5402C14.1199 13.55 13.6093 13.948 13.4406 14.5769C13.1468 15.6725 13.7971 16.5764 14.91 16.5814C17.9979 16.5912 21.0811 16.5863 24.1642 16.5863H33.3559C34.3531 16.5863 34.9264 16.0164 34.9312 15.0682C34.936 14.1199 34.3579 13.5451 33.3655 13.5402Z" fill="#E82C2C"/>
</svg>
