<svg width="32" height="32" viewBox="0 0 32 32" fill="none" xmlns="http://www.w3.org/2000/svg">
<g id="icon_swipe">
<rect width="32" height="32" rx="6" fill="#68918A" fill-opacity="0.12"/>
<path id="Vector" d="M24.1818 7.78125C23.2552 6.61332 22.0353 5.6509 20.654 4.99799C19.2726 4.34508 17.7262 4 16.1818 4C14.6374 4 13.091 4.34508 11.7097 4.99799C11.0355 5.31665 10.4001 5.70951 9.81818 6.16356V5.71875C9.81818 5.24412 9.41118 4.85938 8.90909 4.85938C8.407 4.85938 8 5.24412 8 5.71875V8.29688C8 8.7667 8.40768 9.15625 8.90909 9.15625H11.6364C12.1385 9.15625 12.5455 8.77151 12.5455 8.29688C12.5455 7.82224 12.1385 7.4375 11.6364 7.4375H11.0449C12.4865 6.34154 14.303 5.71875 16.1818 5.71875C18.7434 5.71875 21.1904 6.8753 22.7273 8.8125C23.0285 9.19213 23.5984 9.26913 24 8.98438C24.4017 8.69962 24.4831 8.16096 24.1818 7.78125Z" fill="#68918A"/>
<path id="Vector_2" d="M23.6036 13.7966C22.745 12.9851 21.6036 12.5381 20.3894 12.5381C19.1753 12.5381 18.0338 12.9851 17.1753 13.7966L15.2468 15.6196L12.0327 12.5813C10.9694 11.5761 9.2391 11.5761 8.17569 12.5813C7.11233 13.5865 7.11233 15.2221 8.17574 16.2273L11.4993 19.3691C11.2237 19.4938 10.9695 19.6631 10.7471 19.8733C9.68369 20.8786 9.68369 22.5142 10.7471 23.5194L12.0327 24.7347C13.5781 26.1955 15.6327 27 17.8181 27C20.0036 27 22.0582 26.1955 23.6035 24.7347C25.1489 23.2738 26 21.3316 26 19.2656C26 17.1997 25.1489 15.2574 23.6036 13.7966ZM22.3179 23.5193C21.116 24.6555 19.518 25.2813 17.8181 25.2813C16.1183 25.2813 14.5203 24.6555 13.3184 23.5193L12.0328 22.304C11.6783 21.9689 11.6783 21.4237 12.0328 21.0886C12.388 20.7529 12.9625 20.7528 13.318 21.0882L14.604 22.304C14.959 22.6395 15.5347 22.6395 15.8897 22.304C16.2447 21.9683 16.2447 21.4242 15.8897 21.0886L9.46142 15.0119C9.10692 14.6769 9.10692 14.1317 9.46137 13.7966C9.81592 13.4615 10.3926 13.4615 10.7471 13.7966L14.604 17.4426C14.715 17.5475 14.8475 17.6196 14.9881 17.6589C15.2692 17.7376 15.5826 17.6852 15.8206 17.5016C15.8766 17.4584 15.828 17.5009 18.4609 15.0119C18.9761 14.525 19.6609 14.2569 20.3894 14.2569C21.1179 14.2569 21.8028 14.525 22.3179 15.012C23.5199 16.1482 24.1818 17.6588 24.1818 19.2656C24.1818 20.8725 23.5199 22.3831 22.3179 23.5193Z" fill="#68918A"/>
</g>
</svg>
