<svg width="115" height="25" viewBox="0 0 115 25" fill="none" xmlns="http://www.w3.org/2000/svg">
<g id="logo">
<g id="kraftainer">
<path id="path82" d="M78.8542 14.0122L80.3813 9.91305L81.924 14.0122H78.8542ZM79.3813 8.36663L75.8892 17.6523H77.7586L78.6246 15.3795H82.1528L83.0334 17.6523H84.8888L81.4108 8.36663H79.3813Z" fill="white"/>
<path id="path84" d="M86.2031 8.36663V17.6523H87.9967V8.36663H86.2031Z" fill="white"/>
<path id="path86" d="M76.2236 8.36663H68.7273V9.73361H71.5859V17.6523H73.3793V9.73361H76.2236V8.36663Z" fill="white"/>
<path id="path88" d="M97.7617 17.6523V8.36663H95.9683V14.826L91.447 8.36663H89.8755V17.6523H91.669V11.1931L96.1905 17.6523H97.7617Z" fill="white"/>
<path id="path90" d="M112.715 12.6831C112.413 12.9228 111.994 13.0445 111.468 13.0445H109.384V9.851H111.584C112.112 9.851 112.514 9.9818 112.778 10.2396C113.043 10.4984 113.177 10.9074 113.177 11.455C113.177 12.0257 113.022 12.4388 112.715 12.6831ZM113.532 14.5475C113.445 14.4091 113.327 14.2773 113.181 14.1558L113.072 14.066L113.204 14.0199C113.773 13.821 114.219 13.4951 114.53 13.0517C114.842 12.6079 115 12.0707 115 11.455C115 10.5118 114.754 9.75227 114.269 9.19798C113.786 8.64624 113.014 8.36663 111.974 8.36663H107.59V17.6523H109.384V14.529H110.992C111.281 14.529 111.485 14.5772 111.616 14.6766C111.743 14.7736 111.855 14.9323 111.958 15.1618L113.035 17.6523H114.887L113.807 15.1213C113.713 14.8822 113.62 14.6892 113.532 14.5475Z" fill="white"/>
<path id="path92" d="M106.078 9.74828V8.36663H99.563V17.6523H106.078V16.2852H101.357V13.6931H105.544V12.3259H101.357V9.74828H106.078Z" fill="white"/>
<path id="path94" d="M41.4261 8.36663H39.3963L35.7037 12.4955V8.36663H33.9102V17.6523H35.7037V14.709L37.0352 13.2464L39.7373 17.6523H41.631L38.1386 12.1071L41.4261 8.36663Z" fill="white"/>
<path id="path96" d="M54.2696 14.0122L55.7968 9.91305L57.3394 14.0122H54.2696ZM54.7968 8.36663L51.3047 17.6523H53.1739L54.0402 15.3795H57.5682L58.4489 17.6523H60.3042L56.8264 8.36663H54.7968Z" fill="white"/>
<path id="path98" d="M48.1766 12.6831C47.8752 12.9228 47.4559 13.0445 46.9305 13.0445H44.8458V9.851H47.0458C47.574 9.851 47.9759 9.9818 48.2402 10.2396C48.5053 10.4986 48.6396 10.9076 48.6396 11.455C48.6396 12.0257 48.4838 12.4388 48.1766 12.6831ZM47.4357 8.36663H43.0522V17.6523H44.8458V14.529H46.4539C46.7435 14.529 46.9475 14.5772 47.0781 14.6767C47.2052 14.7734 47.317 14.9321 47.4198 15.1618L48.4971 17.6523H50.3491L49.2701 15.123C49.1751 14.8823 49.0826 14.6893 48.9942 14.5474C48.9076 14.4089 48.7894 14.2772 48.6427 14.1558L48.5342 14.066L48.6664 14.0199C49.2352 13.821 49.6815 13.4951 49.9928 13.0517C50.3042 12.6079 50.4618 12.0707 50.4618 11.455C50.4618 10.5118 50.2159 9.75227 49.7308 9.19798C49.2479 8.64624 48.4756 8.36663 47.4357 8.36663Z" fill="white"/>
<path id="path100" d="M67.4692 12.3259H63.4122V9.74828H68.0033V8.36663H61.6187V17.6523H63.4122V13.6931H67.4692V12.3259Z" fill="white"/>
</g>
<g id="icon">
<path id="path136" d="M0 3.03804V18.7263L1.93793 19.7129V4.02772L0 3.03804Z" fill="#68918A"/>
<path id="path138" d="M2.44263 4.28626V19.9705L4.38056 20.957V5.27604L2.44263 4.28626Z" fill="#68918A"/>
<path id="path140" d="M26.226 6.16976L14.0082 0.000303268L0.282715 2.27101L12.4508 8.43066L26.226 6.16976Z" fill="#68918A"/>
<path id="path142" d="M9.77075 23.7004L12.0782 24.875V9.21832L9.77075 8.03232V23.7004Z" fill="#68918A"/>
<path id="path144" d="M26.5383 6.92688L21.9606 7.69361V11.1276L17.5985 14.2357V8.42447L13.0208 9.19121V25L17.4638 24.3177V19.0367L18.8909 17.9754L21.8799 20.199V23.8378L26.5383 23.1807V18.2533L22.4723 15.4738L26.5383 12.4922V6.92688Z" fill="#68918A"/>
<path id="path146" d="M7.32812 6.78051V22.4568L9.26606 23.4434V7.77281L8.49705 7.37752L7.32812 6.78051Z" fill="#68918A"/>
<path id="path148" d="M4.88525 5.53251V21.2126L6.82319 22.1992V6.52219L4.88525 5.53251Z" fill="#68918A"/>
</g>
</g>
</svg>
