<svg width="226" height="50" viewBox="0 0 226 50" fill="none" xmlns="http://www.w3.org/2000/svg">
<g id="logo">
<g id="Vector">
<path d="M152.748 26.9669L155.832 18.6939L158.947 26.9669H152.748ZM153.813 15.5746L146.761 34.3138H150.536L152.285 29.7256H159.409L161.187 34.3138H164.933L157.911 15.5746H153.813Z" fill="white"/>
<path d="M167.588 15.5746V34.3138H171.209V15.5746H167.588Z" fill="white"/>
<path d="M147.437 15.5746H132.3V18.3333H138.072V34.3138H141.694V18.3333H147.437V15.5746Z" fill="white"/>
<path d="M190.927 34.3138V15.5746H187.305V28.6087L178.176 15.5746H175.003V34.3138H178.625V21.2788L187.754 34.3138H190.927Z" fill="white"/>
<path d="M221.12 24.2854C220.511 24.7683 219.665 25.0129 218.603 25.0129H214.394V18.5683H218.837C219.903 18.5683 220.715 18.8323 221.248 19.3538C221.783 19.8753 222.054 20.7025 222.054 21.8067C222.054 22.9591 221.74 23.7929 221.12 24.2854ZM222.77 28.0485C222.596 27.7685 222.357 27.5013 222.061 27.2566L221.842 27.0763L222.109 26.983C223.257 26.5806 224.158 25.9239 224.787 25.029C225.416 24.1341 225.734 23.0493 225.734 21.8067C225.734 19.9042 225.237 18.3719 224.258 17.2517C223.283 16.1379 221.724 15.5746 219.624 15.5746H210.772V34.3138H214.394V28.0099H217.641C218.225 28.0099 218.638 28.1064 218.902 28.3093C219.158 28.5024 219.384 28.8243 219.592 29.2879L221.767 34.3138H225.506L223.326 29.2042C223.135 28.7245 222.949 28.335 222.77 28.0485Z" fill="white"/>
<path d="M207.718 18.3623V15.5746H194.564V34.3138H207.718V31.5541H198.186V26.3231H206.64V23.5643H198.186V18.3623H207.718Z" fill="white"/>
<path d="M77.1729 15.5746H73.0744L65.6182 23.9055V15.5746H61.9967V34.3138H65.6182V28.3736L68.3069 25.4218L73.7629 34.3138H77.5864L70.5348 23.1233L77.1729 15.5746Z" fill="white"/>
<path d="M103.107 26.9669L106.19 18.6939L109.306 26.9669H103.107ZM104.172 15.5746L97.1202 34.3138H100.895L102.644 29.7256H109.768L111.546 34.3138H115.292L108.27 15.5746H104.172Z" fill="white"/>
<path d="M90.8037 24.2854C90.1952 24.7683 89.3486 25.0129 88.2876 25.0129H84.0781V18.5683H88.5203C89.587 18.5683 90.3985 18.8323 90.9321 19.3538C91.4674 19.8753 91.7385 20.7025 91.7385 21.8067C91.7385 22.9591 91.424 23.7929 90.8037 24.2854ZM89.3076 15.5746H80.4565V34.3138H84.0781V28.0099H87.3252C87.9099 28.0099 88.3218 28.1064 88.5853 28.3093C88.8421 28.5024 89.0679 28.8243 89.2756 29.2879L91.4509 34.3138H95.1904L93.0117 29.2106C92.8195 28.7245 92.633 28.335 92.4545 28.0485C92.2798 27.7685 92.041 27.5013 91.7449 27.2566L91.5254 27.0763L91.7927 26.983C92.9413 26.5806 93.8425 25.9239 94.4709 25.029C95.0994 24.1341 95.4181 23.0493 95.4181 21.8067C95.4181 19.9042 94.9215 18.3719 93.942 17.2517C92.967 16.1379 91.4075 15.5746 89.3076 15.5746Z" fill="white"/>
<path d="M129.76 23.5643H121.568V18.3623H130.838V15.5746H117.946V34.3138H121.568V26.3231H129.76V23.5643Z" fill="white"/>
<path d="M82.9429 42.3059C82.8585 43.5723 82.7631 44.4813 82.6562 45.0331C82.5487 45.5848 82.3921 45.985 82.185 46.2338H84.9866V42.3059H82.9429ZM86.2385 46.2338H87.042V49.0428H85.8827V47.4574H81.3587V49.0428H80.199V46.2338H80.8532C81.0295 46.0864 81.1652 45.8607 81.2607 45.5575C81.3564 45.2546 81.4427 44.7942 81.5194 44.1765C81.5958 43.5584 81.6951 42.5544 81.8178 41.1634H86.2385V46.2338Z" fill="white"/>
<path d="M91.1528 46.3735C91.5429 46.3735 91.8914 46.2863 92.1977 46.1115C92.5034 45.9367 92.7428 45.6917 92.915 45.3772C93.0871 45.0623 93.1737 44.707 93.1737 44.3104C93.1737 43.7123 92.9841 43.2185 92.6051 42.8299C92.2262 42.4414 91.742 42.2473 91.1528 42.2473C90.563 42.2473 90.0792 42.4414 89.7002 42.8299C89.3213 43.2185 89.132 43.7123 89.132 44.3104C89.132 44.9088 89.3213 45.4023 89.7002 45.7908C90.0792 46.1794 90.563 46.3735 91.1528 46.3735ZM93.5235 46.6706C92.8921 47.2964 92.1019 47.609 91.1528 47.609C90.2035 47.609 89.4129 47.2964 88.7816 46.6706C88.1503 46.0455 87.8344 45.2584 87.8344 44.3104C87.8344 43.6888 87.9781 43.1254 88.2651 42.6204C88.552 42.1153 88.9497 41.721 89.4592 41.437C89.9679 41.1534 90.5329 41.0118 91.1528 41.0118C91.7728 41.0118 92.3372 41.1534 92.8461 41.437C93.3551 41.721 93.7534 42.1153 94.0403 42.6204C94.3273 43.1254 94.4709 43.6888 94.4709 44.3104C94.4709 45.2584 94.1551 46.0455 93.5235 46.6706Z" fill="white"/>
<path d="M103.645 47.4573H102.416L101.67 43.1679L99.5917 47.3878H99.3276L97.2607 43.1679L96.5146 47.4573H95.2862L96.3998 41.1634H97.4792L99.4655 45.1847L101.463 41.1634H102.531L103.645 47.4573Z" fill="white"/>
<path d="M106.337 45.7847C106.724 46.1774 107.21 46.3735 107.795 46.3735C108.381 46.3735 108.863 46.1774 109.242 45.7847C109.621 45.3926 109.811 44.8992 109.811 44.3046C109.811 43.7104 109.621 43.2185 109.242 42.8299C108.863 42.4414 108.379 42.2473 107.79 42.2473C107.407 42.2473 107.061 42.3368 106.75 42.5154C106.441 42.6944 106.197 42.9407 106.021 43.2555C105.845 43.5703 105.757 43.9218 105.757 44.3104C105.757 44.9011 105.951 45.3926 106.337 45.7847ZM110.109 41.1634H111.096V47.4573H110.063L109.937 46.6883C109.34 47.3022 108.593 47.609 107.698 47.609C106.772 47.609 106 47.2945 105.384 46.6652C104.768 46.0355 104.46 45.2488 104.46 44.3046C104.46 43.3604 104.768 42.5756 105.384 41.9501C106 41.3247 106.772 41.0118 107.698 41.0118C108.609 41.0118 109.363 41.3228 109.96 41.944L110.109 41.1634Z" fill="white"/>
<path d="M120.351 41.1634H121.063V47.4573H119.846V43.4596L116.539 47.4573H115.804V41.1634H117.033V45.1264L120.351 41.1634Z" fill="white"/>
<path d="M126.344 44.1124C126.888 44.4388 127.159 44.9478 127.159 45.6392C127.159 46.2222 126.93 46.696 126.471 47.0614C126.011 47.4268 125.422 47.609 124.702 47.609C124.006 47.609 123.437 47.4245 122.997 47.0553C122.557 46.6864 122.318 46.191 122.28 45.5694H123.439C123.485 45.8414 123.619 46.0551 123.841 46.2103C124.063 46.3661 124.35 46.4433 124.702 46.4433C125.062 46.4433 125.353 46.36 125.575 46.1929C125.797 46.0258 125.908 45.8102 125.908 45.5459C125.908 45.2896 125.811 45.0797 125.615 44.9165C125.42 44.7533 125.162 44.6716 124.84 44.6716H124.036V43.6695H124.84C125.131 43.6695 125.361 43.6015 125.529 43.4654C125.697 43.3295 125.782 43.1447 125.782 42.9117C125.782 42.6632 125.682 42.4649 125.483 42.3174C125.284 42.1697 125.02 42.0957 124.691 42.0957C124.392 42.0957 124.145 42.1658 123.95 42.3059C123.755 42.4456 123.638 42.64 123.6 42.8882H122.44C122.471 42.329 122.699 41.8764 123.123 41.5304C123.548 41.1846 124.082 41.0118 124.725 41.0118C125.383 41.0118 125.925 41.1827 126.35 41.5246C126.775 41.8665 126.987 42.2978 126.987 42.8183C126.987 43.3781 126.773 43.8092 126.344 44.1124Z" fill="white"/>
<path d="M135.346 47.4573L133.486 44.7765H132.717V47.4573H131.442V41.1634H132.717V43.5993H133.497L135.185 41.1634H136.689L134.588 44.1823L136.919 47.4573H135.346Z" fill="white"/>
<path d="M140.455 46.3735C140.846 46.3735 141.194 46.2863 141.5 46.1115C141.806 45.9367 142.046 45.6917 142.218 45.3772C142.39 45.0623 142.476 44.707 142.476 44.3104C142.476 43.7123 142.287 43.2185 141.908 42.8299C141.529 42.4414 141.044 42.2473 140.455 42.2473C139.866 42.2473 139.382 42.4414 139.003 42.8299C138.624 43.2185 138.434 43.7123 138.434 44.3104C138.434 44.9088 138.624 45.4023 139.003 45.7908C139.382 46.1794 139.866 46.3735 140.455 46.3735ZM142.826 46.6706C142.195 47.2964 141.404 47.609 140.455 47.609C139.506 47.609 138.716 47.2964 138.084 46.6706C137.453 46.0455 137.137 45.2584 137.137 44.3104C137.137 43.6888 137.281 43.1254 137.568 42.6204C137.854 42.1153 138.252 41.721 138.762 41.437C139.271 41.1534 139.835 41.0118 140.455 41.0118C141.075 41.0118 141.64 41.1534 142.149 41.437C142.658 41.721 143.056 42.1153 143.343 42.6204C143.63 43.1254 143.773 43.6888 143.773 44.3104C143.773 45.2584 143.458 46.0455 142.826 46.6706Z" fill="white"/>
<path d="M149.262 41.1634H150.513V47.4573H149.262V44.8235H146.391V47.4573H145.128V41.1634H146.391V43.6344H149.262V41.1634Z" fill="white"/>
<path d="M157.23 41.1634V42.329H155.049V47.4573H153.808V42.329H151.615V41.1634H157.23Z" fill="white"/>
<path d="M160.893 42.1774C160.418 42.1774 160.014 42.3133 159.682 42.5853C159.349 42.8573 159.129 43.2307 159.021 43.7042H162.776C162.699 43.3859 162.573 43.1116 162.397 42.8827C162.221 42.6535 162.005 42.4787 161.748 42.358C161.492 42.2376 161.206 42.1774 160.893 42.1774ZM164.05 44.322C164.05 44.4388 164.043 44.5827 164.027 44.7533H158.998C159.075 45.2584 159.284 45.6589 159.624 45.9541C159.964 46.2496 160.387 46.397 160.893 46.397C161.138 46.397 161.367 46.36 161.582 46.2863C161.796 46.2122 161.986 46.1076 162.15 45.9714C162.315 45.8356 162.45 45.6704 162.558 45.476H163.901C163.656 46.1443 163.266 46.6668 162.73 47.0437C162.194 47.4207 161.582 47.609 160.893 47.609C159.982 47.609 159.222 47.2945 158.614 46.6652C158.005 46.0355 157.701 45.2507 157.701 44.3104C157.701 43.3701 158.005 42.5853 158.614 41.956C159.222 41.3266 159.982 41.0118 160.893 41.0118C161.513 41.0118 162.064 41.1615 162.546 41.4605C163.028 41.7596 163.4 42.1597 163.66 42.6609C163.92 43.1624 164.05 43.7158 164.05 44.322Z" fill="white"/>
<path d="M169.619 39.0884V40.0557H166.542V39.0884H169.619ZM169.952 41.1634H170.664V47.4573H169.447V43.4596L166.14 47.4573H165.405V41.1634H166.634V45.1264L169.952 41.1634Z" fill="white"/>
<path d="M176.612 41.1634H177.863V47.4573H176.612V44.8235H173.741V47.4573H172.478V41.1634H173.741V43.6344H176.612V41.1634Z" fill="white"/>
<path d="M182.41 42.1774C181.935 42.1774 181.531 42.3133 181.198 42.5853C180.866 42.8573 180.645 43.2307 180.538 43.7042H184.293C184.216 43.3859 184.09 43.1116 183.914 42.8827C183.738 42.6535 183.522 42.4787 183.265 42.358C183.009 42.2376 182.724 42.1774 182.41 42.1774ZM185.567 44.322C185.567 44.4388 185.56 44.5827 185.544 44.7533H180.515C180.592 45.2584 180.8 45.6589 181.141 45.9541C181.482 46.2496 181.905 46.397 182.41 46.397C182.655 46.397 182.884 46.36 183.099 46.2863C183.313 46.2122 183.502 46.1076 183.667 45.9714C183.832 45.8356 183.968 45.6704 184.075 45.476H185.418C185.173 46.1443 184.783 46.6668 184.247 47.0437C183.711 47.4207 183.099 47.609 182.41 47.609C181.499 47.609 180.739 47.2945 180.131 46.6652C179.522 46.0355 179.218 45.2507 179.218 44.3104C179.218 43.3701 179.522 42.5853 180.131 41.956C180.739 41.3266 181.499 41.0118 182.41 41.0118C183.03 41.0118 183.581 41.1615 184.063 41.4605C184.545 41.7596 184.917 42.1597 185.177 42.6609C185.437 43.1624 185.567 43.7158 185.567 44.322Z" fill="white"/>
<path d="M188.702 45.7847C189.085 46.1774 189.569 46.3735 190.154 46.3735C190.74 46.3735 191.224 46.1774 191.607 45.7847C191.989 45.3926 192.181 44.9011 192.181 44.3104C192.181 43.72 191.989 43.2285 191.607 42.836C191.224 42.4436 190.742 42.2473 190.16 42.2473C189.777 42.2473 189.429 42.3368 189.115 42.5154C188.801 42.6944 188.558 42.9407 188.386 43.2555C188.214 43.5703 188.128 43.9218 188.128 44.3104C188.128 44.9011 188.319 45.3926 188.702 45.7847ZM190.252 41.0118C190.864 41.0118 191.415 41.1534 191.905 41.437C192.395 41.721 192.778 42.1153 193.053 42.6203C193.329 43.1254 193.467 43.6888 193.467 44.3104C193.467 45.2584 193.162 46.0455 192.554 46.6706C191.945 47.2964 191.178 47.609 190.252 47.609C189.456 47.609 188.771 47.3566 188.197 46.8515V49.7188H186.922V41.1634H187.783L188.025 41.9324C188.622 41.3189 189.364 41.0118 190.252 41.0118Z" fill="white"/>
<path d="M197.692 46.3735C198.082 46.3735 198.431 46.2863 198.737 46.1115C199.043 45.9367 199.282 45.6917 199.455 45.3772C199.627 45.0623 199.713 44.707 199.713 44.3104C199.713 43.7123 199.523 43.2185 199.144 42.8299C198.766 42.4414 198.281 42.2473 197.692 42.2473C197.103 42.2473 196.618 42.4414 196.24 42.8299C195.861 43.2185 195.671 43.7123 195.671 44.3104C195.671 44.9088 195.861 45.4023 196.24 45.7908C196.618 46.1794 197.103 46.3735 197.692 46.3735ZM200.063 46.6706C199.431 47.2964 198.641 47.609 197.692 47.609C196.743 47.609 195.953 47.2964 195.321 46.6706C194.69 46.0455 194.374 45.2584 194.374 44.3104C194.374 43.6888 194.517 43.1254 194.805 42.6204C195.091 42.1153 195.489 41.721 195.999 41.437C196.508 41.1534 197.072 41.0118 197.692 41.0118C198.312 41.0118 198.877 41.1534 199.386 41.437C199.894 41.721 200.293 42.1153 200.58 42.6204C200.867 43.1254 201.01 43.6888 201.01 44.3104C201.01 45.2584 200.695 46.0455 200.063 46.6706Z" fill="white"/>
<path d="M205.374 46.3271C205.626 46.3271 205.831 46.2531 205.987 46.1053C206.144 45.9579 206.223 45.7693 206.223 45.5401C206.223 45.3109 206.143 45.1226 205.982 44.9751C205.821 44.8274 205.614 44.7533 205.362 44.7533H203.617V46.3271H205.374ZM206.074 42.9815C206.074 42.7639 206.003 42.5891 205.862 42.4571C205.719 42.3251 205.534 42.2589 205.304 42.2589H203.617V43.7042H205.304C205.534 43.7042 205.719 43.6382 205.862 43.5063C206.003 43.3743 206.074 43.1991 206.074 42.9815ZM206.567 44.1707C206.713 44.2328 206.845 44.3123 206.963 44.4095C207.082 44.5067 207.184 44.6194 207.268 44.7475C207.352 44.8756 207.417 45.0176 207.463 45.1731C207.509 45.3286 207.532 45.4876 207.532 45.6508C207.532 46.1639 207.348 46.5934 206.981 46.9388C206.613 47.2845 206.154 47.4573 205.603 47.4573H202.365V41.1634H205.557C206.077 41.1634 206.504 41.3131 206.837 41.6118C207.171 41.9112 207.337 42.2978 207.337 42.772C207.337 43.0672 207.268 43.3388 207.13 43.5877C206.992 43.8365 206.805 44.0306 206.567 44.1707Z" fill="white"/>
<path d="M0 5.99302V36.9426L3.57325 38.8889V7.94585L0 5.99302Z" fill="#68918A"/>
<path d="M4.5037 8.45361V39.3958L8.07695 41.3419V10.4064L4.5037 8.45361Z" fill="#68918A"/>
<path d="M48.3571 12.1705L25.8292 0L0.521569 4.4785L22.9575 16.6316L48.3571 12.1705Z" fill="#68918A"/>
<path d="M18.0148 46.7551L22.2695 49.0723V18.1852L18.0148 15.8461V46.7551Z" fill="#68918A"/>
<path d="M48.9331 13.6655L40.4927 15.1778V21.952L32.4493 28.0839V16.6186L24.0087 18.131V49.3194L32.201 47.9732V37.5549L34.8324 35.4612L40.3436 39.8479V47.0261L48.9331 45.7301V36.0095L41.4358 30.5271L48.9331 24.6447V13.6655Z" fill="#68918A"/>
<path d="M13.5111 13.3769V44.3019L17.0844 46.2483V15.3341L15.6665 14.5551L13.5111 13.3769Z" fill="#68918A"/>
<path d="M9.00741 10.9142V41.8488L12.5807 43.7951V12.867L9.00741 10.9142Z" fill="#68918A"/>
</g>
</g>
</svg>
