<svg width="156" height="35" viewBox="0 0 156 35" fill="none" xmlns="http://www.w3.org/2000/svg">
<g id="logo">
<g id="kraftainer">
<path id="path82" d="M106.967 19.6158L109.039 13.8769L111.132 19.6158H106.967ZM107.682 11.7119L102.945 24.7119H105.481L106.656 21.53H111.442L112.637 24.7119H115.153L110.436 11.7119H107.682Z" fill="#0B1312"/>
<path id="path84" d="M116.937 11.7119V24.7119H119.37V11.7119H116.937Z" fill="#0B1312"/>
<path id="path86" d="M103.399 11.7119H93.2305V13.6257H97.1082V24.7119H99.541V13.6257H103.399V11.7119Z" fill="#0B1312"/>
<path id="path88" d="M132.616 24.7119V11.7119H130.183V20.7551L124.05 11.7119H121.918V24.7119H124.351V15.669L130.484 24.7119H132.616Z" fill="#0B1312"/>
<path id="path90" d="M152.9 17.7549C152.491 18.0905 151.922 18.2609 151.209 18.2609H148.381V13.79H151.366C152.082 13.79 152.628 13.9732 152.986 14.334C153.345 14.6965 153.528 15.269 153.528 16.0356C153.528 16.8346 153.316 17.413 152.9 17.7549ZM154.009 20.3652C153.891 20.1714 153.731 19.9869 153.532 19.8167L153.385 19.691L153.564 19.6265C154.336 19.348 154.941 18.8918 155.363 18.271C155.786 17.6497 156 16.8976 156 16.0356C156 14.7152 155.666 13.6518 155.008 12.8758C154.353 12.1034 153.305 11.7119 151.894 11.7119H145.948V24.7119H148.381V20.3393H150.563C150.955 20.3393 151.232 20.4067 151.409 20.5458C151.582 20.6816 151.733 20.9038 151.873 21.2251L153.334 24.7119H155.847L154.382 21.1684C154.254 20.8337 154.129 20.5635 154.009 20.3652Z" fill="#0B1312"/>
<path id="path92" d="M143.897 13.6462V11.7119H135.06V24.7119H143.897V22.7979H137.493V19.1689H143.172V17.2549H137.493V13.6462H143.897Z" fill="#0B1312"/>
<path id="path94" d="M56.1955 11.7119H53.4421L48.433 17.4923V11.7119H46V24.7119H48.433V20.5912L50.2392 18.5436L53.9046 24.7119H56.4735L51.736 16.9485L56.1955 11.7119Z" fill="#0B1312"/>
<path id="path96" d="M73.6186 19.6158L75.6903 13.8769L77.7829 19.6158H73.6186ZM74.3338 11.7119L69.5967 24.7119H72.1323L73.3074 21.53H78.0933L79.2879 24.7119H81.8046L77.0869 11.7119H74.3338Z" fill="#0B1312"/>
<path id="path98" d="M65.3527 17.7549C64.9439 18.0905 64.3751 18.2609 63.6623 18.2609H60.8344V13.79H63.8187C64.5353 13.79 65.0804 13.9732 65.4389 14.334C65.7985 14.6967 65.9807 15.2692 65.9807 16.0356C65.9807 16.8346 65.7693 17.413 65.3527 17.7549ZM64.3476 11.7119H58.4014V24.7119H60.8344V20.3393H63.0158C63.4086 20.3393 63.6853 20.4067 63.8625 20.5461C64.0349 20.6814 64.1866 20.9036 64.3261 21.2251L65.7875 24.7119H68.2997L66.836 21.1709C66.7071 20.8339 66.5816 20.5637 66.4617 20.365C66.3443 20.1711 66.1839 19.9867 65.9849 19.8167L65.8377 19.691L66.0171 19.6265C66.7887 19.348 67.3941 18.8918 67.8163 18.271C68.2388 17.6497 68.4526 16.8976 68.4526 16.0356C68.4526 14.7152 68.119 13.6518 67.461 12.8758C66.8059 12.1034 65.7583 11.7119 64.3476 11.7119Z" fill="#0B1312"/>
<path id="path100" d="M91.5233 17.2549H86.0199V13.6462H92.2478V11.7119H83.5869V24.7119H86.0199V19.1689H91.5233V17.2549Z" fill="#0B1312"/>
</g>
<g id="icon">
<path id="path136" d="M0 4.25385V26.2174L2.62885 27.5986V5.63939L0 4.25385Z" fill="#68918A"/>
<path id="path138" d="M3.31348 6.00077V27.9588L5.94232 29.3398V7.38646L3.31348 6.00077Z" fill="#68918A"/>
<path id="path140" d="M35.5764 8.63746L19.0028 0.000228882L0.383789 3.17922L16.89 11.8027L35.5764 8.63746Z" fill="#68918A"/>
<path id="path142" d="M13.2539 33.1808L16.3841 34.8252V12.9058L13.2539 11.2454V33.1808Z" fill="#68918A"/>
<path id="path144" d="M36 9.69763L29.7902 10.771V15.5787L23.8729 19.93V11.7943L17.6631 12.8677V35L23.6902 34.0448V26.6513L25.6261 25.1656L29.6807 28.2786V33.3729L36 32.453V25.5547L30.4843 21.6634L36 17.489V9.69763Z" fill="#68918A"/>
<path id="path146" d="M9.94043 9.49232V31.4391L12.5693 32.8203V10.8815L11.5261 10.3281L9.94043 9.49232Z" fill="#68918A"/>
<path id="path148" d="M6.62695 7.74571V29.6979L9.2558 31.0791V9.13125L6.62695 7.74571Z" fill="#68918A"/>
</g>
</g>
</svg>
