<svg width="57" height="58" viewBox="0 0 57 58" fill="none" xmlns="http://www.w3.org/2000/svg">
<g id="Vector">
<path d="M0 7.04784V43.4448L4.16232 45.7337V9.34438L0 7.04784Z" fill="white"/>
<path d="M5.24617 9.94151V46.3297L9.40849 48.6184V12.2381L5.24617 9.94151Z" fill="white"/>
<path d="M56.329 14.3126L30.0873 0L0.607552 5.26675L26.7422 19.5589L56.329 14.3126Z" fill="white"/>
<path d="M20.9847 54.9844L25.9408 57.7094V21.386L20.9847 18.6352V54.9844Z" fill="white"/>
<path d="M57 16.0707L47.1682 17.8492V25.8157L37.7988 33.0268V19.5436L27.9667 21.3221V58L37.5095 56.4169V44.1648L40.5748 41.7027L46.9945 46.8615V55.3031L57 53.7789V42.3475L48.2668 35.9001L57 28.9824V16.0707Z" fill="white"/>
<path d="M15.7385 15.7313V52.0994L19.9008 54.3883V18.033L18.2492 17.1169L15.7385 15.7313Z" fill="white"/>
<path d="M10.4923 12.8351V49.2145L14.6547 51.5033V15.1317L10.4923 12.8351Z" fill="white"/>
</g>
</svg>
