<svg width="0" height="0" class="hidden">
  <symbol xmlns="http://www.w3.org/2000/svg" viewBox="0 0 10 16" id="ic_arr_hor">
    <path d="M2 2L8 8L2 14" stroke="currentColor" stroke-width="3" stroke-linecap="round" stroke-linejoin="round" fill="none"></path>
  </symbol>
  <symbol xmlns="http://www.w3.org/2000/svg" viewBox="0 0 10 6" id="ic_arr_ver">
    <path fill-rule="evenodd" clip-rule="evenodd" d="M0.292893 0.292893C0.683417 -0.0976311 1.31658 -0.0976311 1.70711 0.292893L5 3.58579L8.29289 0.292893C8.68342 -0.0976311 9.31658 -0.0976311 9.70711 0.292893C10.0976 0.683417 10.0976 1.31658 9.70711 1.70711L5.70711 5.70711C5.31658 6.09763 4.68342 6.09763 4.29289 5.70711L0.292893 1.70711C-0.0976311 1.31658 -0.0976311 0.683417 0.292893 0.292893Z" fill="currentColor"></path>
  </symbol>
  <symbol xmlns="http://www.w3.org/2000/svg" viewBox="0 0 37 23" id="ic_arrow_hor">
    <path d="M36.0607 12.5607C36.6464 11.9749 36.6464 11.0251 36.0607 10.4393L26.5147 0.893398C25.9289 0.307611 24.9792 0.307611 24.3934 0.893398C23.8076 1.47919 23.8076 2.42893 24.3934 3.01472L32.8787 11.5L24.3934 19.9853C23.8076 20.5711 23.8076 21.5208 24.3934 22.1066C24.9792 22.6924 25.9289 22.6924 26.5147 22.1066L36.0607 12.5607ZM0 13H35V10H0V13Z" fill="currentColor"></path>
  </symbol>
  <symbol xmlns="http://www.w3.org/2000/svg" viewBox="0 0 14 19" id="ic_buttonUp">
    <path fill-rule="evenodd" clip-rule="evenodd" d="M6.34086 0.151453C6.54538 0.052567 6.77051 0 7.00057 0C7.23064 0 7.45577 0.052567 7.66029 0.151453C7.86452 0.250201 8.04129 0.391693 8.18165 0.562159L13.7726 7.36507C14.1233 7.79175 14.0616 8.4219 13.635 8.77257C13.2083 9.12323 12.5781 9.06161 12.2275 8.63493L8.00003 3.49111L8.00003 18C8.00003 18.5523 7.55231 19 7.00003 19C6.44774 19 6.00003 18.5523 6.00003 18L6.00003 3.49211L1.77254 8.63501C1.42183 9.06165 0.791667 9.12321 0.365023 8.77251C-0.0616212 8.4218 -0.123182 7.79164 0.227522 7.36499L5.81898 0.562792C5.95933 0.392328 6.13662 0.250202 6.34086 0.151453Z" fill="currentColor"></path>
  </symbol>
  <symbol xmlns="http://www.w3.org/2000/svg" viewBox="0 0 20 15" id="ic_check">
    <path fill-rule="evenodd" clip-rule="evenodd" d="M20 2.25231L6.70701 15L0 9.21132L2.22197 6.84374L6.58664 10.6108L17.6513 0L20 2.25231Z" fill="currentColor"></path>
  </symbol>
  <symbol fill="none" xmlns="http://www.w3.org/2000/svg" viewBox="0 0 18 18" id="ic_fullscreen">
    <path d="M16.4037 1H12.4022C12.244 1 12.0923 1.06283 11.9805 1.17467C11.8686 1.2865 11.8058 1.43819 11.8058 1.59635C11.8058 1.75451 11.8686 1.90619 11.9805 2.01803C12.0923 2.12987 12.244 2.19269 12.4022 2.19269H14.9635L10.7473 6.40887C10.6919 6.46428 10.6479 6.53005 10.618 6.60245C10.588 6.67484 10.5725 6.75243 10.5725 6.83079C10.5725 6.90914 10.588 6.98673 10.618 7.05913C10.6479 7.13152 10.6919 7.19729 10.7473 7.2527C10.8027 7.30811 10.8685 7.35206 10.9409 7.38205C11.0133 7.41203 11.0909 7.42746 11.1692 7.42746C11.2476 7.42746 11.3252 7.41203 11.3976 7.38205C11.4699 7.35206 11.5357 7.30811 11.5911 7.2527L15.8073 3.03653V5.59784C15.8073 5.756 15.8701 5.90768 15.982 6.01952C16.0938 6.13136 16.2455 6.19419 16.4037 6.19419C16.5618 6.19419 16.7135 6.13136 16.8253 6.01952C16.9372 5.90768 17 5.756 17 5.59784V1.59635C17 1.43819 16.9372 1.2865 16.8253 1.17467C16.7135 1.06283 16.5618 1 16.4037 1Z" fill="currentColor"></path>
    <path d="M16.4037 11.8058C16.2455 11.8058 16.0938 11.8686 15.982 11.9805C15.8701 12.0923 15.8073 12.244 15.8073 12.4022V14.9635L11.5911 10.7473C11.4792 10.6354 11.3275 10.5725 11.1692 10.5725C11.011 10.5725 10.8592 10.6354 10.7473 10.7473C10.6354 10.8592 10.5725 11.011 10.5725 11.1692C10.5725 11.3275 10.6354 11.4792 10.7473 11.5911L14.9635 15.8073H12.4022C12.244 15.8073 12.0923 15.8701 11.9805 15.982C11.8686 16.0938 11.8058 16.2455 11.8058 16.4037C11.8058 16.5618 11.8686 16.7135 11.9805 16.8253C12.0923 16.9372 12.244 17 12.4022 17H16.4037C16.5618 17 16.7135 16.9372 16.8253 16.8253C16.9372 16.7135 17 16.5618 17 16.4037V12.4022C17 12.244 16.9372 12.0923 16.8253 11.9805C16.7135 11.8686 16.5618 11.8058 16.4037 11.8058Z" fill="currentColor"></path>
    <path d="M3.03653 2.19269H5.59784C5.756 2.19269 5.90768 2.12987 6.01952 2.01803C6.13136 1.90619 6.19419 1.75451 6.19419 1.59635C6.19419 1.43819 6.13136 1.2865 6.01952 1.17467C5.90768 1.06283 5.756 1 5.59784 1H1.59635C1.43819 1 1.2865 1.06283 1.17467 1.17467C1.06283 1.2865 1 1.43819 1 1.59635V5.59784C1 5.756 1.06283 5.90768 1.17467 6.01952C1.2865 6.13136 1.43819 6.19419 1.59635 6.19419C1.75451 6.19419 1.90619 6.13136 2.01803 6.01952C2.12987 5.90768 2.19269 5.756 2.19269 5.59784V3.03653L6.40887 7.2527C6.52077 7.3646 6.67254 7.42746 6.83079 7.42746C6.98904 7.42746 7.1408 7.3646 7.2527 7.2527C7.3646 7.1408 7.42746 6.98904 7.42746 6.83079C7.42746 6.67254 7.3646 6.52077 7.2527 6.40887L3.03653 2.19269Z" fill="currentColor"></path>
    <path d="M6.40887 10.7473L2.19269 14.9635V12.4022C2.19269 12.244 2.12987 12.0923 2.01803 11.9805C1.90619 11.8686 1.75451 11.8058 1.59635 11.8058C1.43819 11.8058 1.2865 11.8686 1.17467 11.9805C1.06283 12.0923 1 12.244 1 12.4022V16.4037C1 16.5618 1.06283 16.7135 1.17467 16.8253C1.2865 16.9372 1.43819 17 1.59635 17H5.59784C5.756 17 5.90768 16.9372 6.01952 16.8253C6.13136 16.7135 6.19419 16.5618 6.19419 16.4037C6.19419 16.2455 6.13136 16.0938 6.01952 15.982C5.90768 15.8701 5.756 15.8073 5.59784 15.8073H3.03653L7.2527 11.5911C7.30811 11.5357 7.35206 11.4699 7.38205 11.3976C7.41203 11.3252 7.42746 11.2476 7.42746 11.1692C7.42746 11.0909 7.41203 11.0133 7.38205 10.9409C7.35206 10.8685 7.30811 10.8027 7.2527 10.7473C7.19729 10.6919 7.13152 10.6479 7.05913 10.618C6.98673 10.588 6.90914 10.5725 6.83079 10.5725C6.75243 10.5725 6.67484 10.588 6.60245 10.618C6.53005 10.6479 6.46428 10.6919 6.40887 10.7473Z" fill="currentColor"></path>
    <path d="M16.4037 1H12.4022C12.244 1 12.0923 1.06283 11.9805 1.17467C11.8686 1.2865 11.8058 1.43819 11.8058 1.59635C11.8058 1.75451 11.8686 1.90619 11.9805 2.01803C12.0923 2.12987 12.244 2.19269 12.4022 2.19269H14.9635L10.7473 6.40887C10.6919 6.46428 10.6479 6.53005 10.618 6.60245C10.588 6.67484 10.5725 6.75243 10.5725 6.83079C10.5725 6.90914 10.588 6.98673 10.618 7.05913C10.6479 7.13152 10.6919 7.19729 10.7473 7.2527C10.8027 7.30811 10.8685 7.35206 10.9409 7.38205C11.0133 7.41203 11.0909 7.42746 11.1692 7.42746C11.2476 7.42746 11.3252 7.41203 11.3976 7.38205C11.4699 7.35206 11.5357 7.30811 11.5911 7.2527L15.8073 3.03653V5.59784C15.8073 5.756 15.8701 5.90768 15.982 6.01952C16.0938 6.13136 16.2455 6.19419 16.4037 6.19419C16.5618 6.19419 16.7135 6.13136 16.8253 6.01952C16.9372 5.90768 17 5.756 17 5.59784V1.59635C17 1.43819 16.9372 1.2865 16.8253 1.17467C16.7135 1.06283 16.5618 1 16.4037 1Z" stroke="currentColor"></path>
    <path d="M16.4037 11.8058C16.2455 11.8058 16.0938 11.8686 15.982 11.9805C15.8701 12.0923 15.8073 12.244 15.8073 12.4022V14.9635L11.5911 10.7473C11.4792 10.6354 11.3275 10.5725 11.1692 10.5725C11.011 10.5725 10.8592 10.6354 10.7473 10.7473C10.6354 10.8592 10.5725 11.011 10.5725 11.1692C10.5725 11.3275 10.6354 11.4792 10.7473 11.5911L14.9635 15.8073H12.4022C12.244 15.8073 12.0923 15.8701 11.9805 15.982C11.8686 16.0938 11.8058 16.2455 11.8058 16.4037C11.8058 16.5618 11.8686 16.7135 11.9805 16.8253C12.0923 16.9372 12.244 17 12.4022 17H16.4037C16.5618 17 16.7135 16.9372 16.8253 16.8253C16.9372 16.7135 17 16.5618 17 16.4037V12.4022C17 12.244 16.9372 12.0923 16.8253 11.9805C16.7135 11.8686 16.5618 11.8058 16.4037 11.8058Z" stroke="currentColor"></path>
    <path d="M3.03653 2.19269H5.59784C5.756 2.19269 5.90768 2.12987 6.01952 2.01803C6.13136 1.90619 6.19419 1.75451 6.19419 1.59635C6.19419 1.43819 6.13136 1.2865 6.01952 1.17467C5.90768 1.06283 5.756 1 5.59784 1H1.59635C1.43819 1 1.2865 1.06283 1.17467 1.17467C1.06283 1.2865 1 1.43819 1 1.59635V5.59784C1 5.756 1.06283 5.90768 1.17467 6.01952C1.2865 6.13136 1.43819 6.19419 1.59635 6.19419C1.75451 6.19419 1.90619 6.13136 2.01803 6.01952C2.12987 5.90768 2.19269 5.756 2.19269 5.59784V3.03653L6.40887 7.2527C6.52077 7.3646 6.67254 7.42746 6.83079 7.42746C6.98904 7.42746 7.1408 7.3646 7.2527 7.2527C7.3646 7.1408 7.42746 6.98904 7.42746 6.83079C7.42746 6.67254 7.3646 6.52077 7.2527 6.40887L3.03653 2.19269Z" stroke="currentColor"></path>
    <path d="M6.40887 10.7473L2.19269 14.9635V12.4022C2.19269 12.244 2.12987 12.0923 2.01803 11.9805C1.90619 11.8686 1.75451 11.8058 1.59635 11.8058C1.43819 11.8058 1.2865 11.8686 1.17467 11.9805C1.06283 12.0923 1 12.244 1 12.4022V16.4037C1 16.5618 1.06283 16.7135 1.17467 16.8253C1.2865 16.9372 1.43819 17 1.59635 17H5.59784C5.756 17 5.90768 16.9372 6.01952 16.8253C6.13136 16.7135 6.19419 16.5618 6.19419 16.4037C6.19419 16.2455 6.13136 16.0938 6.01952 15.982C5.90768 15.8701 5.756 15.8073 5.59784 15.8073H3.03653L7.2527 11.5911C7.30811 11.5357 7.35206 11.4699 7.38205 11.3976C7.41203 11.3252 7.42746 11.2476 7.42746 11.1692C7.42746 11.0909 7.41203 11.0133 7.38205 10.9409C7.35206 10.8685 7.30811 10.8027 7.2527 10.7473C7.19729 10.6919 7.13152 10.6479 7.05913 10.618C6.98673 10.588 6.90914 10.5725 6.83079 10.5725C6.75243 10.5725 6.67484 10.588 6.60245 10.618C6.53005 10.6479 6.46428 10.6919 6.40887 10.7473Z" stroke="currentColor"></path>
  </symbol>
  <symbol xmlns="http://www.w3.org/2000/svg" viewBox="0 0 64 64" id="ic_inst">
    <path d="M39 18H25C21.1503 18 18 21.1503 18 24.9998V39.0002C18 42.8487 21.1503 46 25 46H39C42.8497 46 46 42.8487 46 39.0002V24.9998C46 21.1503 42.8497 18 39 18ZM43.6666 39.0002C43.6666 41.5726 41.5739 43.6666 39 43.6666H25C22.4272 43.6666 20.3334 41.5726 20.3334 39.0002V24.9998C20.3334 22.4267 22.4272 20.3334 25 20.3334H39C41.5739 20.3334 43.6666 22.4267 43.6666 24.9998V39.0002Z" fill="currentColor"></path>
    <path d="M32 24.9998C28.1332 24.9998 25 28.1333 25 31.9997C25 35.8646 28.1332 39.0002 32 39.0002C35.8657 39.0002 39 35.8646 39 31.9997C39 28.1333 35.8657 24.9998 32 24.9998ZM32 36.6668C29.4229 36.6668 27.3334 34.5774 27.3334 31.9997C27.3334 29.422 29.4229 27.3332 32 27.3332C34.5771 27.3332 36.6666 29.422 36.6666 31.9997C36.6666 34.5774 34.5771 36.6668 32 36.6668Z" fill="currentColor"></path>
    <path fill-rule="evenodd" clip-rule="evenodd" d="M43.6666 39.0002C43.6666 41.5726 41.5739 43.6666 39 43.6666H25C22.4272 43.6666 20.3334 41.5726 20.3334 39.0002V24.9998C20.3334 22.4267 22.4272 20.3334 25 20.3334H39C41.5739 20.3334 43.6666 22.4267 43.6666 24.9998V39.0002ZM39.5845 26.1664C40.551 26.1664 41.3345 25.3829 41.3345 24.4164C41.3345 23.4499 40.551 22.6664 39.5845 22.6664C38.618 22.6664 37.8345 23.4499 37.8345 24.4164C37.8345 25.3829 38.618 26.1664 39.5845 26.1664ZM25 31.9997C25 28.1333 28.1332 24.9998 32 24.9998C35.8657 24.9998 39 28.1333 39 31.9997C39 35.8646 35.8657 39.0002 32 39.0002C28.1332 39.0002 25 35.8646 25 31.9997Z" fill="currentColor"></path>
  </symbol>
  <symbol xmlns="http://www.w3.org/2000/svg" viewBox="0 0 10 18" id="ic_pin">
    <rect x="4" y="5" width="2" height="13" rx="1" fill="currentColor" fill-opacity="0.3"></rect>
    <circle cx="5" cy="5" r="5" fill="currentColor"></circle>
  </symbol>
  <symbol fill="none" xmlns="http://www.w3.org/2000/svg" viewBox="0 0 12 12" id="ic_plus">
    <path d="M6 0V12" stroke="currentColor" stroke-width="2"></path>
    <path d="M12 6L0 6" stroke="currentColor" stroke-width="2"></path>
  </symbol>
  <symbol xmlns="http://www.w3.org/2000/svg" viewBox="0 0 26 24" id="ic_problem">
    <path id="Vector" d="M25.4598 18.3646L16.2752 1.82631C14.7996 -0.607154 11.2024 -0.610387 9.72476 1.82631L0.540662 18.3646C-0.967846 20.8512 0.858502 24 3.81514 24H22.1846C25.1387 24 26.9683 20.8537 25.4598 18.3646ZM13 21.0154C12.1602 21.0154 11.4766 20.3458 11.4766 19.5231C11.4766 18.7005 12.1602 18.0309 13 18.0309C13.8398 18.0309 14.5234 18.7005 14.5234 19.5231C14.5234 20.3458 13.8398 21.0154 13 21.0154ZM14.5234 15.0463C14.5234 15.8689 13.8398 16.5386 13 16.5386C12.1602 16.5386 11.4766 15.8689 11.4766 15.0463V7.58488C11.4766 6.76224 12.1602 6.0926 13 6.0926C13.8398 6.0926 14.5234 6.76224 14.5234 7.58488V15.0463Z" fill="currentColor"></path>
  </symbol>
  <symbol xmlns="http://www.w3.org/2000/svg" viewBox="0 0 22 29" id="ic_result">
    <path fill-rule="evenodd" clip-rule="evenodd" d="M11 0C9.48122 0 8.25 1.29837 8.25 2.9H2.0625C0.923409 2.9 0 3.87378 0 5.075V26.825C0 28.0262 0.923409 29 2.0625 29H19.9375C21.0766 29 22 28.0262 22 26.825V5.075C22 3.87378 21.0766 2.9 19.9375 2.9H13.75C13.75 1.29837 12.5188 0 11 0ZM5.5 8.7V7.975C5.5 6.77378 6.42341 5.8 7.5625 5.8H14.4375C15.5766 5.8 16.5 6.77378 16.5 7.975V8.7H5.5ZM16.0973 13.4747C16.6342 14.041 16.6342 14.9591 16.0973 15.5253L10.5973 21.3253C10.0603 21.8915 9.1897 21.8915 8.65272 21.3253L5.90272 18.4253C5.36576 17.8591 5.36576 16.9409 5.90272 16.3747C6.4397 15.8085 7.3103 15.8085 7.84728 16.3747L9.625 18.2494L14.1527 13.4747C14.6897 12.9084 15.5603 12.9084 16.0973 13.4747Z" fill="currentColor"></path>
  </symbol>
  <symbol xmlns="http://www.w3.org/2000/svg" viewBox="0 0 14 14" id="ic_search">
    <path fill-rule="evenodd" clip-rule="evenodd" d="M6 0.00585938C9.31371 0.00585938 12 2.69215 12 6.00586C12 7.30169 11.5892 8.50158 10.8907 9.48239L13.7071 12.2988C14.0976 12.6893 14.0976 13.3224 13.7071 13.713C13.3166 14.1035 12.6834 14.1035 12.2929 13.713L9.47653 10.8966C8.49572 11.5951 7.29583 12.0059 6 12.0059C2.68629 12.0059 0 9.31957 0 6.00586C0 2.69215 2.68629 0.00585938 6 0.00585938ZM10 6.00586C10 3.79672 8.20914 2.00586 6 2.00586C3.79086 2.00586 2 3.79672 2 6.00586C2 8.215 3.79086 10.0059 6 10.0059C6.74181 10.0059 7.43645 9.80393 8.03197 9.45204C8.61441 9.10788 9.10202 8.62027 9.44618 8.03783C9.79807 7.44231 10 6.74767 10 6.00586Z" fill="currentColor"></path>
  </symbol>
  <symbol xmlns="http://www.w3.org/2000/svg" viewBox="0 0 30 30" id="ic_solution">
    <path d="M10.4766 24.9498C10.4854 25.3014 10.4941 25.6318 10.5035 25.8645C10.5621 27.1307 11.6473 28.1555 12.9129 28.1555H13.0078C13.1092 29.1867 13.9752 30 15 30C16.0248 30 16.8926 29.1867 16.9922 28.1555H17.0854C18.351 28.1555 19.4379 27.1307 19.4947 25.8645C19.5041 25.6301 19.5129 25.299 19.5217 24.9498H10.4766Z" fill="currentColor"></path>
    <path d="M24.3498 14.035C24.1107 9.14531 19.6529 5.20605 14.9924 5.21074C10.3213 5.21426 5.88926 9.13652 5.6502 14.035C5.55352 16.7578 6.92051 19.1988 9.00586 20.8207C9.39502 21.1207 9.72045 21.4953 9.96312 21.9226C10.2058 22.3499 10.3608 22.8213 10.4191 23.3092H19.5809C19.6435 22.8168 19.803 22.3416 20.0501 21.9111C20.2971 21.4806 20.627 21.1033 21.0205 20.8008C23.0912 19.1777 24.4465 16.7484 24.3498 14.035ZM20.8852 12.7459C20.7515 12.8053 20.6075 12.8378 20.4614 12.8415C20.3152 12.8452 20.1697 12.8201 20.0333 12.7676C19.8968 12.7151 19.772 12.6362 19.6661 12.5355C19.5601 12.4347 19.475 12.3141 19.4156 12.1805C18.9404 11.1094 17.9883 10.2164 16.8697 9.7916C16.733 9.7397 16.6079 9.66138 16.5015 9.56112C16.395 9.46086 16.3094 9.34062 16.2494 9.20726C16.1895 9.07391 16.1564 8.93005 16.152 8.78389C16.1477 8.63774 16.1721 8.49216 16.224 8.35547C16.2759 8.21877 16.3542 8.09364 16.4545 7.98721C16.5548 7.88078 16.675 7.79514 16.8084 7.73518C16.9417 7.67523 17.0856 7.64212 17.2317 7.63776C17.3779 7.6334 17.5235 7.65787 17.6602 7.70977C19.3462 8.34989 20.7094 9.63281 21.4506 11.277C21.5701 11.5467 21.5777 11.8528 21.4717 12.1281C21.3657 12.4035 21.1547 12.6254 20.8852 12.7453V12.7459Z" fill="currentColor"></path>
    <path d="M15 3.89355C14.7047 3.89355 14.4216 3.77626 14.2128 3.56748C14.004 3.3587 13.8867 3.07553 13.8867 2.78027V1.11328C13.8867 0.818021 14.004 0.534853 14.2128 0.326073C14.4216 0.117292 14.7047 0 15 0C15.2953 0 15.5784 0.117292 15.7872 0.326073C15.996 0.534853 16.1133 0.818021 16.1133 1.11328V2.78027C16.1133 3.07553 15.996 3.3587 15.7872 3.56748C15.5784 3.77626 15.2953 3.89355 15 3.89355Z" fill="currentColor"></path>
    <path d="M2.78027 15.423H1.11328C0.818021 15.423 0.534853 15.3058 0.326073 15.097C0.117292 14.8882 0 14.605 0 14.3098C0 14.0145 0.117292 13.7313 0.326073 13.5226C0.534853 13.3138 0.818021 13.1965 1.11328 13.1965H2.78027C3.07553 13.1965 3.3587 13.3138 3.56748 13.5226C3.77626 13.7313 3.89355 14.0145 3.89355 14.3098C3.89355 14.605 3.77626 14.8882 3.56748 15.097C3.3587 15.3058 3.07553 15.423 2.78027 15.423Z" fill="currentColor"></path>
    <path d="M28.8867 15.423H27.2197C26.9245 15.423 26.6413 15.3058 26.4325 15.097C26.2237 14.8882 26.1064 14.605 26.1064 14.3098C26.1064 14.0145 26.2237 13.7313 26.4325 13.5226C26.6413 13.3138 26.9245 13.1965 27.2197 13.1965H28.8867C29.182 13.1965 29.4651 13.3138 29.6739 13.5226C29.8827 13.7313 30 14.0145 30 14.3098C30 14.605 29.8827 14.8882 29.6739 15.097C29.4651 15.3058 29.182 15.423 28.8867 15.423Z" fill="currentColor"></path>
    <path d="M6.35918 6.78223C6.21298 6.78234 6.0682 6.75357 5.93316 6.69756C5.79811 6.64155 5.67547 6.55941 5.57227 6.45586L4.39453 5.27695C4.2908 5.17365 4.20846 5.05091 4.15223 4.91575C4.096 4.78059 4.06698 4.63566 4.06683 4.48927C4.06667 4.34288 4.0954 4.19789 4.15135 4.06261C4.2073 3.92734 4.28938 3.80442 4.3929 3.70091C4.49641 3.59739 4.61933 3.51531 4.75461 3.45936C4.88988 3.4034 5.03487 3.37468 5.18126 3.37483C5.32765 3.37499 5.47258 3.40401 5.60774 3.46024C5.7429 3.51647 5.86565 3.59881 5.96895 3.70254L7.14844 4.88144C7.30425 5.03714 7.41037 5.23556 7.45338 5.45159C7.49638 5.66763 7.47434 5.89156 7.39003 6.09506C7.30572 6.29856 7.16293 6.47247 6.97975 6.59479C6.79656 6.71711 6.58121 6.78234 6.36094 6.78223H6.35918Z" fill="currentColor"></path>
    <path d="M24.8191 25.2428C24.6729 25.243 24.5281 25.2143 24.393 25.1583C24.258 25.1023 24.1354 25.0201 24.0322 24.9164L22.8516 23.7375C22.6435 23.5286 22.5268 23.2456 22.5271 22.9508C22.5274 22.6559 22.6447 22.3732 22.8532 22.1647C23.0617 21.9562 23.3444 21.8389 23.6392 21.8386C23.9341 21.8383 24.217 21.955 24.426 22.1631L25.6055 23.342C25.7613 23.4977 25.8674 23.6961 25.9104 23.9121C25.9534 24.1282 25.9314 24.3521 25.8471 24.5556C25.7627 24.7591 25.62 24.933 25.4368 25.0553C25.2536 25.1777 25.0382 25.2429 24.818 25.2428H24.8191Z" fill="currentColor"></path>
    <path d="M23.6408 6.78223C23.4204 6.78269 23.2048 6.71771 23.0213 6.59552C22.8379 6.47334 22.6948 6.29944 22.6103 6.09587C22.5258 5.8923 22.5036 5.66822 22.5465 5.45203C22.5895 5.23583 22.6956 5.03725 22.8516 4.88144L24.0305 3.70254C24.2392 3.49368 24.5224 3.37632 24.8178 3.37626C25.1131 3.37621 25.3963 3.49347 25.6052 3.70225C25.814 3.91103 25.9314 4.19422 25.9315 4.48954C25.9315 4.78485 25.8142 5.0681 25.6055 5.27695L24.4277 6.45586C24.3245 6.55941 24.2019 6.64155 24.0668 6.69756C23.9318 6.75357 23.787 6.78234 23.6408 6.78223Z" fill="currentColor"></path>
    <path d="M5.18086 25.2428C4.96069 25.2427 4.7455 25.1773 4.56249 25.0548C4.37948 24.9324 4.23688 24.7585 4.15272 24.5551C4.06855 24.3516 4.04661 24.1278 4.08965 23.9119C4.13269 23.6959 4.23879 23.4976 4.39453 23.342L5.57227 22.1631C5.78105 21.9541 6.06431 21.8366 6.35973 21.8364C6.65515 21.8362 6.93855 21.9534 7.14756 22.1622C7.35657 22.371 7.47409 22.6542 7.47425 22.9497C7.47442 23.2451 7.35722 23.5285 7.14844 23.7375L5.96953 24.9164C5.86612 25.0202 5.74319 25.1024 5.60783 25.1584C5.47247 25.2145 5.32735 25.2431 5.18086 25.2428Z" fill="currentColor"></path>
  </symbol>
  <symbol xmlns="http://www.w3.org/2000/svg" viewBox="0 0 27 30" id="ic_video_play">
    <path d="M24.375 11.7524C26.875 13.1958 26.875 16.8042 24.375 18.2476L5.625 29.0729C3.125 30.5163 -1.4736e-06 28.7121 -1.34742e-06 25.8253L-4.01038e-07 4.17468C-2.74854e-07 1.28793 3.125 -0.516291 5.625 0.927085L24.375 11.7524Z" fill="currentColor"></path>
  </symbol>
  <symbol xmlns="http://www.w3.org/2000/svg" viewBox="0 0 64 64" id="ic_whatsapp">
    <path fill-rule="evenodd" clip-rule="evenodd" d="M31.9993 16C36.2595 16.0017 40.2623 17.6521 43.2713 20.647C46.3221 23.6838 48.0012 27.6675 48 31.864C47.998 36.0903 46.3248 40.071 43.288 43.0728C40.2587 46.0671 36.2494 47.7163 31.9995 47.7163H31.9932C29.7375 47.7154 27.4991 47.2346 25.4519 46.318C25.0279 46.1281 24.5551 46.0658 24.1022 46.1688L19.1182 47.3013C17.6883 47.6263 16.4065 46.353 16.7218 44.9209L17.7886 40.0769C17.892 39.6073 17.8184 39.1183 17.6083 38.6859C16.5534 36.515 16.0004 34.1781 16 31.8596V31.8518C16.0039 27.6282 17.6764 23.6423 20.7106 20.6431C23.7394 17.6489 27.7486 16 31.9993 16ZM26.9444 24.8665H27.6457C27.9065 24.8772 28.1948 24.8977 28.469 25.5046C28.6581 25.9232 28.9743 26.7066 29.2241 27.3256C29.4044 27.7722 29.5501 28.1333 29.5885 28.2097C29.6799 28.3918 29.741 28.6047 29.619 28.8479C29.5939 28.8979 29.5717 28.9441 29.5508 28.9878C29.4699 29.1562 29.4072 29.2867 29.262 29.4558C29.079 29.6685 28.8568 29.8916 28.6924 30.0547C28.5089 30.2366 28.3182 30.4338 28.5316 30.7983C28.7452 31.1631 29.5003 32.395 30.5885 33.3611C31.7639 34.4046 32.7757 34.8476 33.2857 35.0709C33.3823 35.1132 33.461 35.1476 33.5193 35.1768C33.8854 35.3591 34.0989 35.3286 34.3123 35.0852C34.5259 34.842 35.2446 33.9993 35.4887 33.635C35.7328 33.27 35.9767 33.3308 36.3123 33.4521C36.6316 33.5681 38.2717 34.3857 38.7449 34.6216C38.7689 34.6336 38.7899 34.644 38.8076 34.6528C38.8791 34.6885 38.946 34.7206 39.0081 34.7504C39.2631 34.8729 39.4355 34.9557 39.5092 35.0779C39.6006 35.2302 39.6006 35.9597 39.2956 36.8105C38.9906 37.6614 37.4963 38.4822 36.8252 38.5427C36.7607 38.5486 36.6966 38.5561 36.6306 38.5638C36.0106 38.6365 35.2278 38.7282 32.4335 37.6311C28.9952 36.281 26.7283 32.9348 26.2603 32.2441C26.222 32.1875 26.1958 32.1488 26.1819 32.1304L26.1777 32.1247C25.9798 31.8614 24.6876 30.1413 24.6876 28.3616C24.6876 26.6834 25.5159 25.8036 25.8971 25.3988C25.9231 25.3711 25.9471 25.3456 25.9686 25.3223C26.3039 24.9578 26.7002 24.8665 26.9444 24.8665Z" fill="currentColor"></path>
  </symbol>
  <symbol xmlns="http://www.w3.org/2000/svg" viewBox="0 0 64 64" id="ic_youtube">
    <path d="M48.7497 25.1365L48.7481 25.1208C48.7193 24.8445 48.4327 22.3868 47.2493 21.1368C45.8815 19.6665 44.3308 19.4879 43.5851 19.4023C43.5233 19.3952 43.4668 19.3887 43.4162 19.3818L43.3568 19.3756C38.862 19.0456 32.0738 19.0005 32.0058 19.0003L31.9999 19L31.9939 19.0003C31.9259 19.0005 25.1378 19.0456 20.6025 19.3756L20.5425 19.3818C20.4943 19.3884 20.4411 19.3944 20.3833 19.4012C19.6461 19.4871 18.112 19.666 16.7403 21.1895C15.6132 22.4261 15.2874 24.8311 15.254 25.1014L15.2501 25.1365C15.2399 25.2515 15 27.9885 15 30.7364V33.305C15 36.0528 15.2399 38.7899 15.2501 38.9052L15.2519 38.9224C15.2807 39.1943 15.567 41.6069 16.745 42.8574C18.0311 44.2785 19.6572 44.4665 20.5319 44.5676C20.6702 44.5836 20.7892 44.5972 20.8704 44.6116L20.949 44.6226C23.5443 44.8719 31.6813 44.9948 32.0263 44.9997L32.0367 45L32.0471 44.9997C32.115 44.9995 38.903 44.9544 43.3978 44.6244L43.4572 44.6182C43.514 44.6106 43.5778 44.6038 43.6479 44.5964C44.3809 44.5178 45.9067 44.3547 47.2594 42.8519C48.3865 41.615 48.7126 39.21 48.7458 38.94L48.7497 38.9049C48.7598 38.7897 49 36.0528 49 33.305V30.7364C48.9997 27.9885 48.7598 25.2517 48.7497 25.1365ZM47.0073 33.305C47.0073 35.8483 46.7873 38.4675 46.7666 38.7079C46.682 39.3703 46.3383 40.8919 45.7892 41.4945C44.9425 42.435 44.0727 42.5282 43.4377 42.5961C43.361 42.6042 43.2899 42.612 43.2256 42.6201C38.8781 42.9376 32.3462 42.9863 32.0453 42.9881C31.7078 42.9831 23.6898 42.8593 21.1737 42.6233C21.0447 42.6021 20.9054 42.5858 20.7586 42.5691C20.0139 42.4829 18.9945 42.3651 18.2106 41.4945L18.1921 41.4746C17.6526 40.9071 17.3188 39.4842 17.2339 38.7158C17.2181 38.534 16.9924 35.8839 16.9924 33.305V30.7364C16.9924 28.196 17.2119 25.5796 17.2332 25.3342C17.3341 24.554 17.6842 23.1246 18.2106 22.5469C19.0832 21.5778 20.0033 21.4705 20.6118 21.3995C20.6167 21.3989 20.6215 21.3984 20.6263 21.3978C20.6789 21.3916 20.7283 21.3859 20.7742 21.3799C25.1409 21.064 31.6326 21.0144 31.9909 21.0117C31.9945 21.0117 31.9975 21.0116 31.9999 21.0116C32.2359 21.0132 38.8124 21.0609 43.1841 21.3799C43.2368 21.3865 43.2943 21.3932 43.356 21.4004L43.3594 21.4008C43.9853 21.4728 44.9314 21.5818 45.7996 22.5167L45.8076 22.5254C46.3471 23.0929 46.681 24.5407 46.7658 25.3245C46.7809 25.4961 47.0073 28.152 47.0073 30.7364V33.305Z" fill="currentColor"></path>
    <path fill-rule="evenodd" clip-rule="evenodd" d="M47.0073 33.305C47.0073 35.8483 46.7873 38.4675 46.7666 38.7079C46.682 39.3703 46.3383 40.8919 45.7892 41.4945C44.9425 42.435 44.0727 42.5282 43.4377 42.5961C43.361 42.6042 43.2899 42.612 43.2256 42.6201C38.8781 42.9376 32.3462 42.9863 32.0453 42.9881C31.7078 42.9831 23.6898 42.8593 21.1737 42.6233C21.0447 42.6021 20.9054 42.5858 20.7586 42.5691C20.0139 42.4829 18.9945 42.3651 18.2106 41.4945L18.1921 41.4746C17.6526 40.9071 17.3188 39.4842 17.2339 38.7158C17.2181 38.534 16.9924 35.8839 16.9924 33.305V30.7364C16.9924 28.196 17.2119 25.5796 17.2332 25.3342C17.3341 24.554 17.6842 23.1246 18.2106 22.5469C19.0832 21.5778 20.0033 21.4705 20.6118 21.3995L20.6263 21.3978C20.6789 21.3916 20.7283 21.3859 20.7742 21.3799C25.1409 21.064 31.6326 21.0144 31.9909 21.0117L31.9999 21.0116C32.2359 21.0132 38.8124 21.0609 43.1841 21.3799C43.2368 21.3865 43.2943 21.3932 43.356 21.4004L43.3594 21.4008C43.9853 21.4728 44.9314 21.5818 45.7996 22.5167L45.8076 22.5254C46.3471 23.0929 46.681 24.5407 46.7658 25.3245C46.7809 25.4961 47.0073 28.152 47.0073 30.7364V33.305ZM29.7218 26.3148L37.2332 30.4642C37.6778 30.7099 37.9528 31.18 37.951 31.6915C37.9489 32.203 37.6706 32.671 37.2247 32.9132L29.713 36.9912C29.5068 37.1033 29.2827 37.1591 29.0591 37.1591C28.815 37.1591 28.5714 37.0926 28.3517 36.9601C27.931 36.7063 27.6799 36.2592 27.6799 35.7645V27.5368C27.6799 27.0397 27.9325 26.5918 28.3561 26.3383C28.7795 26.0851 29.2899 26.0762 29.7218 26.3148Z" fill="currentColor"></path>
  </symbol>
</svg>