<svg width="39" height="38" viewBox="0 0 39 38" fill="none" xmlns="http://www.w3.org/2000/svg">
<g clip-path="url(#clip0_1959_6895)">
<path d="M37.7171 9.87803C37.279 8.25016 35.9955 6.96699 34.368 6.52864C31.3943 5.71484 19.4996 5.71484 19.4996 5.71484C19.4996 5.71484 7.60526 5.71484 4.63159 6.49762C3.03531 6.93568 1.72055 8.25045 1.28248 9.87803C0.5 12.8514 0.5 19.0179 0.5 19.0179C0.5 19.0179 0.5 25.2155 1.28248 28.1578C1.72084 29.7854 3.004 31.0688 4.63188 31.5072C7.63657 32.321 19.4999 32.321 19.4999 32.321C19.4999 32.321 31.3943 32.321 34.368 31.5382C35.9958 31.1002 37.279 29.8167 37.7174 28.1891C38.4998 25.2155 38.4998 19.0492 38.4998 19.0492C38.4998 19.0492 38.5312 12.8514 37.7171 9.87803Z" fill="#FF0000"/>
<path d="M15.7125 24.7147L25.6035 19.0179L15.7125 13.321V24.7147Z" fill="white"/>
</g>
<defs>
<clipPath id="clip0_1959_6895">
<rect width="38" height="38" fill="white" transform="translate(0.5)"/>
</clipPath>
</defs>
</svg>
